SplineFontDB: 3.2
FontName: OverusedGrotesk-BlackItalic
FullName: Overused Grotesk Black
FamilyName: Overused Grotesk
Weight: Black
Copyright: Copyright (c) 2023, Bao Nguyen (RandomMaerks) (rmforbusiness@gmail.com)
UComments: "2023-7-28: Created with FontForge (http://fontforge.org)"
Version: 0.4
ItalicAngle: -10
UnderlinePosition: -102
UnderlineWidth: 51
Ascent: 819
Descent: 205
InvalidEm: 0
UFOAscent: 819.2
UFODescent: -204.8
LayerCount: 2
Layer: 0 0 "Back" 1
Layer: 1 0 "public.default" 0 "glyphs"
StyleMap: 0x0001
FSType: 0
OS2Version: 0
OS2_WeightWidthSlopeOnly: 0
OS2_UseTypoMetrics: 1
CreationTime: 1691315371
ModificationTime: 1695396802
PfmFamily: 17
TTFWeight: 900
TTFWidth: 5
LineGap: 92
VLineGap: 0
OS2TypoAscent: 819
OS2TypoAOffset: 0
OS2TypoDescent: -205
OS2TypoDOffset: 0
OS2TypoLinegap: 92
OS2WinAscent: 1024
OS2WinAOffset: 0
OS2WinDescent: 225
OS2WinDOffset: 0
HheadAscent: 1049
HheadAOffset: 0
HheadDescent: -225
HheadDOffset: 0
OS2Vendor: 'Rand'
Lookup: 1 0 0 "ss11StyleSet11inLatinlookup21" { "ss11StyleSet11inLatinlookup21 subtable"  } ['ss11' ('latn' <'dflt' > 'DFLT' <'dflt' > ) ]
Lookup: 1 0 0 "cv05CharacterVariants05inLatinlookup22" { "cv05CharacterVariants05inLatinlookup22 subtable"  } ['cv05' ('latn' <'dflt' > 'DFLT' <'dflt' > ) ]
Lookup: 1 0 0 "cv01CharacterVariants01inLatinlookup16" { "cv01CharacterVariants01inLatinlookup16 subtable"  } ['cv01' ('latn' <'dflt' > 'DFLT' <'dflt' > ) ]
Lookup: 1 0 0 "cv02CharacterVariants02inLatinlookup17" { "cv02CharacterVariants02inLatinlookup17 subtable"  } ['cv02' ('latn' <'dflt' > 'DFLT' <'dflt' > ) ]
Lookup: 1 0 0 "cv03CharacterVariants03inLatinlookup18" { "cv03CharacterVariants03inLatinlookup18 subtable"  } ['cv03' ('latn' <'dflt' > 'DFLT' <'dflt' > ) ]
Lookup: 1 0 0 "cv04CharacterVariants04inLatinlookup19" { "cv04CharacterVariants04inLatinlookup19 subtable"  } ['cv04' ('latn' <'dflt' > 'DFLT' <'dflt' > ) ]

StartChar: A
Encoding: 65 65 0
GlifName: A_
Width: 693
VWidth: 0
GlyphClass: 2
Flags: HW
AnchorPoint: "bottom2" 678 0 basechar 0
AnchorPoint: "bottom1" 348 0 basechar 0
AnchorPoint: "top1" 470 717 basechar 0
LayerCount: 2
Fore
SplineSet
222 256 m 257
 562 256 l 257
 536 104 l 257
 196 104 l 257
 222 256 l 257
678 0 m 257
 485 0 l 257
 436 465 l 257
 227 0 l 257
 15 0 l 257
 353 666 l 257
 575 666 l 257
 678 0 l 257
EndSplineSet
EndChar

StartChar: AE
Encoding: 198 198 1
GlifName: A_E_
Width: 985
VWidth: 0
GlyphClass: 2
Flags: HW
AnchorPoint: "top1" 552 717 basechar 0
LayerCount: 2
Fore
SplineSet
1056 666 m 257
 1024 483 l 257
 727 483 l 257
 717 427 l 257
 986 427 l 257
 953 245 l 257
 685 245 l 257
 674 182 l 257
 971 182 l 257
 939 0 l 257
 447 0 l 257
 466 104 l 257
 285 104 l 261
 228 0 l 261
 15 0 l 257
 397 666 l 257
 1056 666 l 257
367 256 m 261
 493 256 l 257
 534 492 l 257
 493 492 l 261
 367 256 l 261
EndSplineSet
EndChar

StartChar: B
Encoding: 66 66 12
GlifName: B_
Width: 663
VWidth: 0
GlyphClass: 2
Flags: HW
LayerCount: 2
Fore
SplineSet
482 666 m 258
 607 666 687 602 687 505 c 0
 687 438 639 372 568 343 c 257
 627 319 662 266 662 200 c 0
 662 87 568 0 446 0 c 258
 46 0 l 257
 163 666 l 257
 482 666 l 258
449 504 m 258
 329 504 l 257
 314 417 l 257
 434 417 l 258
 463 417 481 437 481 468 c 0
 481 488 467 504 449 504 c 258
430 255 m 258
 286 255 l 257
 269 162 l 257
 409 162 l 258
 444 162 468 185 468 218 c 0
 468 239 452 255 430 255 c 258
EndSplineSet
EndChar

StartChar: C
Encoding: 67 67 13
GlifName: C_
Width: 693
VWidth: 0
GlyphClass: 2
Flags: HW
AnchorPoint: "bottom1" 348 0 basechar 0
AnchorPoint: "top1" 473 717 basechar 0
LayerCount: 2
Fore
SplineSet
89 280 m 0
 89 505 237 675 434 675 c 4
 606 675 723 584 723 399 c 261
 528 399 l 261
 528 466 494 501 429 501 c 4
 346 501 286 410 286 286 c 0
 286 209 323 166 391 166 c 4
 445 166 486 198 500 252 c 261
 701 252 l 261
 668 92 565 -8 380 -8 c 4
 203 -8 89 104 89 280 c 0
EndSplineSet
EndChar

StartChar: D
Encoding: 68 68 20
GlifName: D_
Width: 695
VWidth: 0
GlyphClass: 2
Flags: HW
AnchorPoint: "top1" 445 717 basechar 0
LayerCount: 2
Fore
SplineSet
328 494 m 261
 271 172 l 261
 386 172 l 262
 466 172 523 257 523 375 c 4
 523 451 487 494 422 494 c 262
 328 494 l 261
443 666 m 262
 616 666 723 556 723 380 c 4
 723 153 588 0 386 0 c 262
 46 0 l 261
 163 666 l 261
 443 666 l 262
EndSplineSet
EndChar

StartChar: Dcroat
Encoding: 272 272 22
GlifName: D_croat
Width: 762
VWidth: 0
GlyphClass: 2
Flags: HW
LayerCount: 2
Fore
SplineSet
104 414 m 257
 505 414 l 257
 477 252 l 257
 75 252 l 257
 104 414 l 257
399 494 m 257
 343 172 l 257
 457 172 l 258
 537 172 595 257 595 375 c 0
 595 451 559 494 494 494 c 258
 399 494 l 257
515 666 m 258
 688 666 795 556 795 380 c 0
 795 153 660 0 458 0 c 258
 118 0 l 257
 235 666 l 257
 515 666 l 258
EndSplineSet
EndChar

StartChar: E
Encoding: 69 69 23
GlifName: E_
Width: 573
VWidth: 0
GlyphClass: 2
Flags: HW
AnchorPoint: "bottom2" 523 0 basechar 0
AnchorPoint: "bottom1" 303 0 basechar 0
AnchorPoint: "top1" 432 717 basechar 0
LayerCount: 2
Fore
SplineSet
655 666 m 257
 623 483 l 257
 326 483 l 257
 316 427 l 257
 584 427 l 257
 552 245 l 257
 284 245 l 257
 273 182 l 257
 570 182 l 257
 538 0 l 257
 46 0 l 257
 163 666 l 257
 655 666 l 257
EndSplineSet
EndChar

StartChar: Eng
Encoding: 330 330 34
GlifName: E_ng
Width: 696
VWidth: 0
GlyphClass: 2
Flags: HW
LayerCount: 2
Fore
SplineSet
573 666 m 257
 768 666 l 257
 652 8 l 258
 628 -126 531 -205 390 -205 c 258
 326 -205 l 257
 357 -33 l 257
 388 -33 l 258
 431 -33 452 -19 458 14 c 258
 461 31 l 257
 306 370 l 257
 241 0 l 257
 46 0 l 257
 163 666 l 257
 389 666 l 257
 515 336 l 261
 573 666 l 257
EndSplineSet
EndChar

StartChar: Eth
Encoding: 208 208 36
GlifName: E_th
Width: 762
VWidth: 0
GlyphClass: 2
Flags: HW
LayerCount: 2
Fore
SplineSet
104 414 m 257
 505 414 l 257
 477 252 l 257
 75 252 l 257
 104 414 l 257
399 494 m 257
 343 172 l 257
 457 172 l 258
 537 172 595 257 595 375 c 0
 595 451 559 494 494 494 c 258
 399 494 l 257
515 666 m 258
 688 666 795 556 795 380 c 0
 795 153 660 0 458 0 c 258
 118 0 l 257
 235 666 l 257
 515 666 l 258
EndSplineSet
EndChar

StartChar: F
Encoding: 70 70 37
GlifName: F_
Width: 573
VWidth: 0
GlyphClass: 2
Flags: HW
LayerCount: 2
Fore
SplineSet
655 666 m 257
 623 483 l 257
 326 483 l 257
 311 396 l 257
 579 396 l 257
 547 214 l 257
 278 214 l 257
 241 0 l 257
 46 0 l 257
 163 666 l 257
 655 666 l 257
EndSplineSet
EndChar

StartChar: G
Encoding: 71 71 38
GlifName: G_
Width: 703
VWidth: 0
GlyphClass: 2
Flags: HW
HStem: -8 174<280 400> 0 22G<508 637> 237 155<317 437> 503 173<282 414>
VStem: 36 198<224 445>
AnchorPoint: "bottom1" 373 0 basechar 0
AnchorPoint: "top1" 474 717 basechar 0
LayerCount: 2
Fore
SplineSet
536 275 m 261x78
 732 392 l 261
 654 0 l 261
 529 0 l 261
 536 275 l 261x78
395 392 m 261
 732 392 l 261
 654 239 l 261
 369 239 l 261
 395 392 l 261
89 271 m 0
 89 504 236 675 435 675 c 4
 621 675 731 583 731 429 c 261
 532 429 l 261
 532 474 496 502 438 502 c 4
 351 502 287 409 287 284 c 0
 287 209 322 166 385 166 c 4
 440 166 511 202 511 269 c 261
 592 262 l 261
 539 100 485 -6 332 -6 c 4
 189 -6 89 107 89 271 c 0
EndSplineSet
Substitution2: "ss04StyleSet4inLatinlookup3 subtable" G.ss04
EndChar

StartChar: G.ss04
Encoding: 65540 -1 39
GlifName: G_.ss04
Width: 703
VWidth: 0
GlyphClass: 2
Flags: HW
HStem: -8 174<287 417> 257 134<317 449> 503 173<283 416>
VStem: 36 198<227 443>
AnchorPoint: "top1" 474 717 basechar 0
AnchorPoint: "bottom1" 375 0 basechar 0
LayerCount: 2
Fore
SplineSet
89 271 m 0
 89 504 235 675 435 675 c 0
 621 675 731 583 731 429 c 1
 532 429 l 1
 532 474 496 502 438 502 c 0
 351 502 287 409 287 284 c 0
 287 209 324 166 389 166 c 0
 449 166 484 189 502 239 c 1
 369 239 l 1
 395 392 l 1
 732 392 l 1
 722 331 l 2
 684 102 566 -6 381 -6 c 0
 209 -6 89 107 89 271 c 0
EndSplineSet
EndChar

StartChar: H
Encoding: 72 72 44
GlifName: H_
Width: 675
VWidth: 0
GlyphClass: 2
Flags: HW
HStem: 0 22G<46 241 435 630> 253 182<241 435> 645 20G<46 241 435 630>
VStem: 46 195<0 253 435 666> 435 195<0 253 435 666>
AnchorPoint: "top1" 465 717 basechar 0
LayerCount: 2
Fore
SplineSet
163 666 m 261
 358 666 l 261
 317 435 l 261
 512 435 l 261
 553 666 l 261
 747 666 l 261
 630 0 l 261
 435 0 l 261
 480 253 l 261
 285 253 l 261
 241 0 l 261
 46 0 l 261
 163 666 l 261
EndSplineSet
EndChar

StartChar: Hbar
Encoding: 294 294 45
GlifName: H_bar
Width: 696
VWidth: 0
GlyphClass: 2
Flags: HW
LayerCount: 2
Fore
SplineSet
117 604 m 257
 793 604 l 257
 771 483 l 257
 95 483 l 257
 117 604 l 257
174 666 m 257
 368 666 l 257
 324 415 l 257
 519 415 l 257
 563 666 l 257
 757 666 l 257
 640 0 l 257
 445 0 l 257
 490 253 l 257
 295 253 l 257
 251 0 l 257
 56 0 l 257
 174 666 l 257
EndSplineSet
EndChar

StartChar: I
Encoding: 73 73 47
GlifName: I_
Width: 282
VWidth: 0
GlyphClass: 2
Flags: W
HStem: 0 21G<44 242.514> 646 20G<157.486 356>
VStem: 44 312
AnchorPoint: "bottom2" 239 0 basechar 0
AnchorPoint: "bottom1" 143 0 basechar 0
AnchorPoint: "top1" 271 717 basechar 0
LayerCount: 2
Fore
SplineSet
161 666 m 257
 356 666 l 257
 239 0 l 261
 44 0 l 257
 161 666 l 257
EndSplineSet
Substitution2: "ss11StyleSet11inLatinlookup21 subtable" I.ss11
EndChar

StartChar: J
Encoding: 74 74 60
GlifName: J_
Width: 401
VWidth: 0
GlyphClass: 2
Flags: HW
AnchorPoint: "top1" 385 717 basechar 0
LayerCount: 2
Fore
SplineSet
47 172 m 257
 119 172 l 258
 167 172 195 194 205 250 c 258
 278 666 l 257
 473 666 l 257
 395 223 l 258
 370 82 285 0 162 0 c 258
 27 0 l 257
 47 172 l 257
EndSplineSet
Substitution2: "ss06StyleSet6inLatinlookup5 subtable" J.ss06
EndChar

StartChar: J.ss06
Encoding: 65544 -1 61
GlifName: J_.ss06
Width: 613
VWidth: 0
GlyphClass: 2
Flags: HW
HStem: -8 184<254 351> 645 20G<368 572>
VStem: 368 205<193 666>
AnchorPoint: "top1" 591 717 basechar 0
LayerCount: 2
Fore
SplineSet
259 262 m 257
 259 204 284 177 338 177 c 0
 374 177 400 202 407 243 c 258
 480 666 l 257
 685 666 l 257
 608 225 l 258
 579 59 480 -8 341 -8 c 0
 165 -8 76 82 76 262 c 257
 259 262 l 257
EndSplineSet
EndChar

StartChar: K
Encoding: 75 75 63
GlifName: K_
Width: 695
VWidth: 0
GlyphClass: 2
Flags: HW
AnchorPoint: "bottom1" 349 0 basechar 0
AnchorPoint: "top1" 476 717 basechar 0
LayerCount: 2
Fore
SplineSet
163 666 m 257
 358 666 l 257
 241 0 l 257
 46 0 l 257
 163 666 l 257
543 666 m 261
 795 666 l 257
 494 342 l 257
 690 0 l 257
 476 0 l 257
 352 239 l 257
 256 141 l 257
 198 283 l 261
 543 666 l 261
EndSplineSet
EndChar

StartChar: L
Encoding: 76 76 64
GlifName: L_
Width: 512
VWidth: 0
GlyphClass: 2
Flags: HW
HStem: 0 182<241 486> 645 20G<46 241>
VStem: 46 195<182 666>
AnchorPoint: "top2" 370 461 basechar 0
AnchorPoint: "bottom1" 283 0 basechar 0
AnchorPoint: "top1" 273 717 basechar 0
LayerCount: 2
Fore
SplineSet
486 0 m 257
 46 0 l 257
 163 666 l 257
 359 666 l 261
 274 182 l 261
 519 182 l 257
 486 0 l 257
EndSplineSet
EndChar

StartChar: Lslash
Encoding: 321 321 69
GlifName: L_slash
Width: 542
VWidth: 0
GlyphClass: 2
Flags: HW
LayerCount: 2
Fore
SplineSet
72 411 m 257
 473 486 l 257
 446 335 l 257
 46 259 l 257
 72 411 l 257
517 0 m 257
 77 0 l 257
 194 666 l 257
 389 666 l 257
 303 182 l 257
 549 182 l 257
 517 0 l 257
EndSplineSet
EndChar

StartChar: M
Encoding: 77 77 70
GlifName: M_
Width: 886
VWidth: 0
GlyphClass: 2
Flags: HW
LayerCount: 2
Fore
SplineSet
530 0 m 257
 356 0 l 257
 309 390 l 257
 241 0 l 257
 46 0 l 257
 163 666 l 257
 443 666 l 261
 483 268 l 261
 658 666 l 261
 958 666 l 257
 841 0 l 257
 646 0 l 257
 715 390 l 257
 530 0 l 257
EndSplineSet
EndChar

StartChar: N
Encoding: 78 78 71
GlifName: N_
Width: 696
VWidth: 0
GlyphClass: 2
Flags: HW
AnchorPoint: "bottom1" 353 0 basechar 0
AnchorPoint: "top1" 476 717 basechar 0
LayerCount: 2
Fore
SplineSet
573 666 m 257
 768 666 l 257
 650 0 l 257
 459 0 l 261
 306 370 l 257
 241 0 l 257
 46 0 l 257
 163 666 l 257
 389 666 l 257
 513 326 l 257
 573 666 l 257
EndSplineSet
EndChar

StartChar: O
Encoding: 79 79 75
GlifName: O_
Width: 721
VWidth: 0
GlyphClass: 2
Flags: W
HStem: -8 174<327.048 470.795> 502 174<371.293 506.499>
VStem: 89 198<207.007 397.25> 550 196<260.275 459.046>
AnchorPoint: "top3" 557 666 basechar 0
AnchorPoint: "bottom1" 359 0 basechar 0
AnchorPoint: "top1" 487 717 basechar 0
LayerCount: 2
Fore
SplineSet
89 276 m 0
 89 501 235 676 447 676 c 4
 628 676 746 560 746 381 c 4
 746 156 608 -8 393 -8 c 4
 209 -8 89 103 89 276 c 0
550 375 m 4
 550 456 509 502 438 502 c 4
 353 502 287 406 287 285 c 0
 287 209 329 166 402 166 c 4
 489 166 550 252 550 375 c 4
EndSplineSet
EndChar

StartChar: OE
Encoding: 338 338 76
GlifName: O_E_
Width: 1015
VWidth: 0
GlyphClass: 2
Flags: HW
LayerCount: 2
Fore
SplineSet
1099 666 m 257
 1067 483 l 257
 770 483 l 257
 760 427 l 257
 1029 427 l 257
 996 245 l 257
 728 245 l 257
 717 182 l 257
 1014 182 l 257
 982 0 l 257
 490 0 l 257
 608 666 l 257
 1099 666 l 257
89 276 m 0
 89 501 223 676 417 676 c 4
 549 676 634 564 634 391 c 0
 634 160 523 -8 352 -8 c 4
 192 -8 89 103 89 276 c 0
550 375 m 0
 550 456 509 502 438 502 c 0
 353 502 287 406 287 285 c 0
 287 209 329 166 402 166 c 0
 489 166 550 252 550 375 c 0
EndSplineSet
EndChar

StartChar: Ohorn
Encoding: 416 416 83
GlifName: O_horn
Width: 721
VWidth: 0
GlyphClass: 2
Flags: HW
AnchorPoint: "top1" 446 717 basechar 0
AnchorPoint: "bottom1" 359 0 basechar 0
LayerCount: 2
Fore
SplineSet
89 276 m 0
 89 501 235 676 447 676 c 0
 628 676 746 560 746 381 c 0
 746 156 608 -8 393 -8 c 0
 209 -8 89 103 89 276 c 0
550 375 m 0
 550 456 509 502 438 502 c 0
 353 502 287 406 287 285 c 0
 287 209 329 166 402 166 c 0
 489 166 550 252 550 375 c 0
534 666 m 257
 642 666 l 258
 671 666 696 676 704 723 c 258
 716 791 l 257
 859 791 l 257
 846 717 l 258
 826 601 723 565 636 565 c 258
 516 565 l 257
 534 666 l 257
EndSplineSet
EndChar

StartChar: Oslash
Encoding: 216 216 86
GlifName: O_slash
Width: 721
VWidth: 0
GlyphClass: 2
Flags: HW
LayerCount: 2
Fore
SplineSet
714 717 m 261
 798 635 l 261
 125 -51 l 257
 41 31 l 257
 714 717 l 261
89 276 m 0
 89 501 235 676 447 676 c 4
 628 676 746 560 746 381 c 4
 746 156 608 -8 393 -8 c 4
 209 -8 89 103 89 276 c 0
550 375 m 4
 550 456 509 502 438 502 c 4
 353 502 287 406 287 285 c 0
 287 209 329 166 402 166 c 4
 489 166 550 252 550 375 c 4
EndSplineSet
EndChar

StartChar: P
Encoding: 80 80 88
GlifName: P_
Width: 641
VWidth: 0
GlyphClass: 2
Flags: HW
LayerCount: 2
Fore
SplineSet
424 501 m 258
 329 501 l 257
 306 373 l 257
 401 373 l 258
 467 373 489 419 489 452 c 0
 489 484 466 501 424 501 c 258
418 201 m 258
 276 201 l 257
 241 0 l 257
 46 0 l 257
 164 666 l 257
 451 666 l 258
 597 666 685 582 685 452 c 4
 685 336 590 201 418 201 c 258
EndSplineSet
EndChar

StartChar: Q
Encoding: 81 81 89
GlifName: Q_
Width: 721
VWidth: 0
GlyphClass: 2
Flags: HW
LayerCount: 2
Fore
SplineSet
726 85 m 257
 628 -17 l 257
 341 253 l 257
 439 355 l 257
 726 85 l 257
89 276 m 0
 89 501 235 676 447 676 c 0
 628 676 746 560 746 381 c 0
 746 156 608 -8 393 -8 c 0
 209 -8 89 103 89 276 c 0
550 375 m 0
 550 456 509 502 438 502 c 0
 353 502 287 406 287 285 c 0
 287 209 329 166 402 166 c 0
 489 166 550 252 550 375 c 0
EndSplineSet
EndChar

StartChar: R
Encoding: 82 82 90
GlifName: R_
Width: 641
VWidth: 0
GlyphClass: 2
Flags: HW
AnchorPoint: "bottom1" 331 0 basechar 0
AnchorPoint: "top1" 444 717 basechar 0
LayerCount: 2
Fore
SplineSet
369 214 m 257
 443 316 l 257
 573 316 630 268 630 157 c 258
 630 0 l 257
 436 0 l 257
 436 139 l 258
 436 196 420 214 369 214 c 257
431 504 m 262
 330 504 l 261
 307 376 l 261
 411 376 l 262
 479 376 492 430 492 456 c 4
 492 487 470 504 431 504 c 262
449 286 m 261
 418 214 l 261
 279 214 l 261
 241 0 l 261
 46 0 l 261
 164 666 l 261
 470 666 l 262
 609 666 694 588 694 467 c 4
 694 377 606 286 449 286 c 261
EndSplineSet
Substitution2: "ss05StyleSet5inLatinlookup4 subtable" R.ss05
EndChar

StartChar: R.ss05
Encoding: 65547 -1 91
GlifName: R_.ss05
Width: 641
VWidth: 0
GlyphClass: 2
Flags: HW
AnchorPoint: "top1" 445 717 basechar 0
AnchorPoint: "bottom1" 331 0 basechar 0
LayerCount: 2
Fore
SplineSet
526 269 m 257
 629 0 l 257
 419 0 l 257
 345 269 l 257
 526 269 l 257
431 504 m 258
 330 504 l 257
 307 376 l 257
 411 376 l 258
 479 376 492 430 492 456 c 0
 492 487 470 504 431 504 c 258
428 214 m 258
 279 214 l 257
 241 0 l 257
 46 0 l 257
 164 666 l 257
 470 666 l 258
 609 666 694 588 694 467 c 0
 694 341 598 214 428 214 c 258
EndSplineSet
EndChar

StartChar: S
Encoding: 83 83 94
GlifName: S_
Width: 645
VWidth: 0
GlyphClass: 2
Flags: HW
AnchorPoint: "bottom1" 331 0 basechar 0
AnchorPoint: "top1" 435 717 basechar 0
LayerCount: 2
Fore
SplineSet
399 234 m 258
 285 255 l 258
 180 274 120 342 120 445 c 0
 120 590 220 676 391 676 c 0
 572 676 675 594 675 449 c 257
 480 449 l 257
 480 500 449 527 392 527 c 0
 349 527 321 506 321 474 c 0
 321 456 333 440 355 436 c 258
 457 418 l 258
 588 394 647 325 647 222 c 0
 647 74 542 -10 376 -10 c 0
 190 -10 76 78 76 224 c 257
 272 224 l 257
 272 172 311 141 375 141 c 0
 416 141 447 166 447 197 c 0
 447 215 430 229 399 234 c 258
EndSplineSet
EndChar

StartChar: T
Encoding: 84 84 99
GlifName: T_
Width: 593
VWidth: 0
GlyphClass: 2
Flags: HW
HStem: 0 22G<200 394> 483 182<26 200 394 568>
VStem: 200 195<0 483>
AnchorPoint: "bottom1" 301 0 basechar 0
AnchorPoint: "top1" 420 717 basechar 0
LayerCount: 2
Fore
SplineSet
686 666 m 261
 654 483 l 261
 479 483 l 261
 394 0 l 261
 200 0 l 261
 285 483 l 261
 111 483 l 261
 143 666 l 261
 686 666 l 261
EndSplineSet
EndChar

StartChar: Tbar
Encoding: 358 358 100
GlifName: T_bar
Width: 593
VWidth: 0
GlyphClass: 2
Flags: HW
LayerCount: 2
Fore
SplineSet
152 369 m 257
 584 369 l 257
 554 197 l 257
 122 197 l 257
 152 369 l 257
686 666 m 257
 654 483 l 257
 479 483 l 257
 394 0 l 257
 200 0 l 257
 285 483 l 257
 111 483 l 257
 143 666 l 257
 686 666 l 257
EndSplineSet
EndChar

StartChar: Thorn
Encoding: 222 222 102
GlifName: T_horn
Width: 641
VWidth: 0
GlyphClass: 2
Flags: HW
LayerCount: 2
Fore
SplineSet
161 666 m 257
 356 666 l 257
 340 573 l 257
 444 573 l 258
 583 573 670 491 670 359 c 0
 670 220 560 109 401 109 c 258
 260 109 l 257
 241 0 l 257
 44 0 l 257
 161 666 l 257
313 409 m 257
 290 281 l 257
 385 281 l 258
 437 281 473 312 473 359 c 0
 473 391 450 409 408 409 c 258
 313 409 l 257
EndSplineSet
EndChar

StartChar: U
Encoding: 85 85 103
GlifName: U_
Width: 654
VWidth: 0
GlyphClass: 2
Flags: HW
AnchorPoint: "top3" 537 666 basechar 0
AnchorPoint: "bottom2" 403 0 basechar 0
AnchorPoint: "bottom1" 332 0 basechar 0
AnchorPoint: "top1" 446 717 basechar 0
LayerCount: 2
Fore
SplineSet
158 666 m 257
 352 666 l 257
 284 271 l 258
 274 213 306 172 374 172 c 0
 421 172 457 205 465 255 c 258
 537 666 l 257
 732 666 l 257
 657 239 l 258
 630 88 517 -8 366 -8 c 0
 177 -8 60 117 91 289 c 258
 158 666 l 257
EndSplineSet
EndChar

StartChar: V
Encoding: 86 86 116
GlifName: V_
Width: 693
VWidth: 0
GlyphClass: 2
Flags: HW
LayerCount: 2
Fore
SplineSet
133 666 m 257
 324 666 l 257
 376 221 l 261
 582 666 l 257
 795 666 l 257
 458 0 l 257
 236 0 l 257
 133 666 l 257
EndSplineSet
EndChar

StartChar: W
Encoding: 87 87 117
GlifName: W_
Width: 1070
VWidth: 0
GlyphClass: 2
Flags: HW
AnchorPoint: "top1" 654 717 basechar 0
LayerCount: 2
Fore
SplineSet
133 666 m 257
 324 666 l 257
 337 216 l 257
 520 666 l 257
 762 666 l 257
 787 216 l 257
 960 666 l 257
 1172 666 l 257
 876 0 l 257
 632 0 l 257
 609 443 l 257
 441 0 l 257
 187 0 l 257
 133 666 l 257
EndSplineSet
EndChar

StartChar: X
Encoding: 88 88 119
GlifName: X_
Width: 672
VWidth: 0
GlyphClass: 2
Flags: HW
LayerCount: 2
Fore
SplineSet
133 666 m 257
 324 666 l 257
 406 446 l 257
 562 666 l 257
 775 666 l 257
 535 333 l 257
 657 0 l 257
 466 0 l 257
 384 219 l 261
 228 0 l 257
 15 0 l 257
 255 333 l 257
 133 666 l 257
EndSplineSet
EndChar

StartChar: Y
Encoding: 89 89 120
GlifName: Y_
Width: 672
VWidth: 0
GlyphClass: 2
Flags: HW
AnchorPoint: "bottom1" 339 0 basechar 0
AnchorPoint: "top1" 461 717 basechar 0
LayerCount: 2
Fore
SplineSet
277 222 m 257
 133 666 l 257
 334 666 l 257
 402 421 l 257
 552 666 l 257
 775 666 l 257
 471 221 l 257
 432 0 l 257
 238 0 l 257
 277 222 l 257
EndSplineSet
EndChar

StartChar: Z
Encoding: 90 90 126
GlifName: Z_
Width: 616
VWidth: 0
GlyphClass: 2
Flags: HW
AnchorPoint: "top1" 436 717 basechar 0
LayerCount: 2
Fore
SplineSet
163 666 m 257
 677 666 l 257
 654 473 l 257
 307 162 l 257
 599 162 l 257
 570 0 l 257
 56 0 l 257
 80 193 l 257
 426 504 l 261
 135 504 l 257
 163 666 l 257
EndSplineSet
EndChar

StartChar: a
Encoding: 97 97 131
GlifName: a
Width: 589
VWidth: 0
GlyphClass: 2
Flags: HW
HStem: -14 150<156 293> 0 22G<368 571> 393 136<248 341>
VStem: 351 195<8 216 323 383>
AnchorPoint: "bottom1" 316 0 basechar 0
AnchorPoint: "bottom2" 571 0 basechar 0
AnchorPoint: "top1" 398 572 basechar 0
LayerCount: 2
Fore
SplineSet
577 152 m 262x70
 564 77 561 31 571 0 c 261
 377 0 l 261
 369 30 368 75 376 119 c 262
 415 347 l 262
 419.333333333 374 396.8 394 363 394 c 4
 329.703703704 394 310.185185185 380 301 350 c 261
 104 350 l 261
 130 458 232 529 359 529 c 4
 525 529 625 436 602 301 c 262
 577 152 l 262x70
412 171 m 261
 392 55 322 -13 225 -13 c 4
 130 -13 63 52 63 144 c 4
 63 257 133 313 257 316 c 262
 376 319 l 262
 402 320 412 331 415 345 c 261
 410 211 l 261
 313 208 l 262
 283 207 264 195 264 169 c 4
 264 144 284 130 314 130 c 4
 347 130 381 150 388 189 c 261
 412 171 l 261
EndSplineSet
Substitution2: "ss01StyleSet1inLatinlookup0 subtable" a.ss01
Substitution2: "cv05CharacterVariants05inLatinlookup22 subtable" a.spur
EndChar

StartChar: a.ss01
Encoding: 65551 -1 132
GlifName: a.ss01
Width: 622
VWidth: 0
GlyphClass: 2
Flags: HW
AnchorPoint: "bottom2" 580 0 basechar 0
AnchorPoint: "top1" 418 573 basechar 0
AnchorPoint: "bottom1" 336 0 basechar 0
LayerCount: 2
Fore
SplineSet
671 512 m 257
 475 512 l 257
 385 0 l 257
 581 0 l 257
 671 512 l 257
477 321 m 0
 477 458 417 539 316 539 c 0
 181 539 74 393 74 211 c 0
 74 74 137 -11 237 -11 c 0
 370 -11 477 138 477 321 c 0
272 233 m 0
 272 311 314 369 369 369 c 0
 409 369 430 338 430 281 c 0
 430 203 390 145 335 145 c 0
 295 145 272 176 272 233 c 0
EndSplineSet
Substitution2: "cv05CharacterVariants05inLatinlookup22 subtable" a.spur.ss01
EndChar

StartChar: acutecomb
Encoding: 769 769 139
GlifName: acutecomb
Width: 307
VWidth: 0
GlyphClass: 4
Flags: HW
AnchorPoint: "top1" 250 512 mark 0
LayerCount: 2
Fore
SplineSet
504 717 m 257
 315 512 l 261
 151 512 l 257
 279 717 l 257
 504 717 l 257
EndSplineSet
EndChar

StartChar: adieresis.ss01.ss03
Encoding: 65556 -1 142
GlifName: adieresis.ss01.ss03
Width: 622
VWidth: 0
GlyphClass: 2
Flags: HW
LayerCount: 2
Fore
SplineSet
171 667 m 260
 171 728 221 777 282 777 c 260
 343 777 392 728 392 667 c 260
 392 606 343 556 282 556 c 260
 221 556 171 606 171 667 c 260
468 667 m 260
 468 728 518 777 579 777 c 260
 640 777 689 728 689 667 c 260
 689 606 640 556 579 556 c 260
 518 556 468 606 468 667 c 260
EndSplineSet
Refer: 132 -1 N 1 0 0 1 0 0 2
EndChar

StartChar: ae
Encoding: 230 230 144
GlifName: ae
Width: 932
VWidth: 0
GlyphClass: 2
Flags: HW
AnchorPoint: "top1" 560 573 basechar 0
LayerCount: 2
Fore
SplineSet
453 232 m 0
 453 402 561 523 713 523 c 0
 876 523 971 413 944 246 c 258
 938 212 l 257
 585 212 l 257
 606 330 l 257
 753 330 l 257
 753 366 727 389 686 389 c 0
 628 389 598 333 598 223 c 0
 598 165 620 138 667 138 c 0
 699 138 720 150 731 175 c 257
 937 175 l 257
 901 53 816 -9 685 -9 c 0
 537 -9 453 79 453 232 c 0
546 152 m 257x70
 376 119 l 257
 415 347 l 258
 420 374 394 394 355 394 c 0
 326 394 309 380 301 350 c 257
 104 350 l 257
 129 458 227 529 349 529 c 0
 501 529 592 436 571 301 c 258
 546 152 l 257x70
494 171 m 257
 469 55 384 -13 266 -13 c 0
 148 -13 63 52 63 144 c 0
 63 257 133 313 257 316 c 258
 376 319 l 258
 402 320 412 331 415 345 c 257
 410 211 l 257
 313 208 l 258
 283 207 264 195 264 169 c 0
 264 144 284 130 314 130 c 0
 347 130 381 150 388 189 c 257
 494 171 l 257
EndSplineSet
EndChar

StartChar: ampersand
Encoding: 38 38 149
GlifName: ampersand
Width: 728
VWidth: 0
GlyphClass: 2
Flags: HW
LayerCount: 2
Fore
SplineSet
427 674 m 256
 553 674 645 604 645 512 c 0
 645 402 563 339 399 301 c 256
 307 280 269 251 269 198 c 0
 269 161 301 140 357 140 c 256
 448 140 537 203 559 326 c 257
 735 326 l 257
 700 121 539 -8 344 -8 c 256
 188 -8 67 58 67 162 c 0
 67 274 140 336 338 395 c 256
 434 423 475 451 475 496 c 0
 475 519 456 536 429 536 c 256
 395 536 371 515 371 486 c 0
 371 448 416 412 448 369 c 258
 723 0 l 257
 519 0 l 257
 241 334 l 258
 196 388 182 432 182 474 c 0
 182 594 281 674 427 674 c 256
EndSplineSet
EndChar

StartChar: asciicircum
Encoding: 94 94 154
GlifName: asciicircum
Width: 481
VWidth: 0
GlyphClass: 2
Flags: HW
LayerCount: 2
Fore
SplineSet
278 737 m 257
 463 737 l 257
 536 512 l 257
 389 512 l 261
 363 651 l 261
 287 512 l 261
 126 512 l 257
 278 737 l 257
EndSplineSet
EndChar

StartChar: asciitilde
Encoding: 126 126 155
GlifName: asciitilde
Width: 519
VWidth: 0
GlyphClass: 2
Flags: HW
LayerCount: 2
Fore
SplineSet
244 517 m 256
 300 517 327 497 354 481 c 256
 372 471 387 462 411 462 c 256
 448 462 473 480 478 511 c 257
 584 511 l 257
 562 388 495 318 399 318 c 256
 354 318 329 334 308 348 c 256
 289 361 273 374 248 374 c 256
 218 374 195 354 190 323 c 257
 82 323 l 257
 105 451 161 517 244 517 c 256
EndSplineSet
EndChar

StartChar: asterisk
Encoding: 42 42 156
GlifName: asterisk
Width: 579
VWidth: 0
GlyphClass: 2
Flags: HW
LayerCount: 2
Fore
SplineSet
351 725 m 257
 482 701 l 257
 433 520 l 257
 616 562 l 257
 635 430 l 257
 447 421 l 257
 544 260 l 257
 424 202 l 257
 357 377 l 257
 234 236 l 257
 141 331 l 257
 288 449 l 257
 114 522 l 257
 177 640 l 257
 334 537 l 257
 351 725 l 257
EndSplineSet
Substitution2: "ss09StyleSet9inLatinlookup8 subtable" asterisk.ss09
EndChar

StartChar: asterisk.ss09
Encoding: 65562 -1 157
GlifName: asterisk.ss09
Width: 714
VWidth: 0
GlyphClass: 2
Flags: HW
LayerCount: 2
Fore
SplineSet
386 676 m 261
 557 645 l 261
 514 452 l 261
 697 528 l 261
 756 365 l 261
 568 306 l 261
 725 185 l 261
 613 52 l 261
 467 186 l 261
 442 -10 l 261
 270 20 l 261
 314 213 l 261
 131 137 l 261
 71 301 l 261
 259 360 l 261
 103 480 l 261
 215 613 l 261
 361 479 l 261
 386 676 l 261
EndSplineSet
EndChar

StartChar: at
Encoding: 64 64 158
GlifName: at
Width: 968
VWidth: 0
GlyphClass: 2
Flags: HW
LayerCount: 2
Fore
SplineSet
481 249 m 0
 481 300 505 340 537 340 c 256
 562 340 576 322 576 290 c 0
 576 239 551 199 520 199 c 256
 495 199 481 216 481 249 c 0
617 329 m 0
 617 419 571 473 494 473 c 256
 393 473 312 361 312 223 c 0
 312 125 362 66 443 66 c 256
 538 66 617 186 617 329 c 0
771 453 m 257
 607 453 l 257
 564 206 l 258
 546 109 608 57 746 57 c 256
 898 57 991 172 991 360 c 0
 991 573 828 707 599 707 c 256
 294 707 75 486 75 191 c 0
 75 -20 243 -162 495 -162 c 256
 568 -162 646 -150 711 -127 c 257
 717 27 l 257
 658 4 585 -8 503 -8 c 256
 336 -8 244 67 244 202 c 0
 244 407 388 553 592 553 c 256
 738 553 819 477 819 342 c 0
 819 252 798 199 761 199 c 260
 738 199 728 212 733 237 c 258
 771 453 l 257
EndSplineSet
EndChar

StartChar: b
Encoding: 98 98 161
GlifName: b
Width: 622
VWidth: 0
GlyphClass: 2
Flags: HW
LayerCount: 2
Fore
SplineSet
171 717 m 261
 367 717 l 261
 241 0 l 261
 45 0 l 261
 171 717 l 261
237 187 m 4
 237 375 339 526 466 526 c 4
 569 526 640 435 640 301 c 4
 640 120 538 -16 402 -16 c 4
 298 -16 237 59 237 187 c 4
442 288 m 4
 442 339 418 369 376 369 c 4
 324 369 285 308 285 227 c 4
 285 176 309 146 351 146 c 4
 402 146 442 208 442 288 c 4
EndSplineSet
EndChar

StartChar: backslash
Encoding: 92 92 162
GlifName: backslash
Width: 512
VWidth: 0
GlyphClass: 2
Flags: HW
LayerCount: 2
Fore
SplineSet
356 666 m 257
 478 0 l 257
 273 0 l 261
 151 666 l 257
 356 666 l 257
EndSplineSet
EndChar

StartChar: bar
Encoding: 124 124 163
GlifName: bar
Width: 282
VWidth: 0
GlyphClass: 2
Flags: HW
LayerCount: 2
Fore
SplineSet
188 819 m 261
 383 819 l 261
 202 -205 l 261
 8 -205 l 261
 188 819 l 261
EndSplineSet
EndChar

StartChar: braceleft
Encoding: 123 123 164
GlifName: braceleft
Width: 368
VWidth: 0
GlyphClass: 2
Flags: HW
LayerCount: 2
Fore
SplineSet
437 535 m 257
 407 535 l 258
 378 535 364 524 359 498 c 258
 340 391 l 258
 331 338 293 301 234 287 c 257
 288 273 312 235 303 182 c 258
 285 76 l 258
 280 50 290 39 319 39 c 258
 350 39 l 257
 320 -133 l 257
 257 -133 l 258
 135 -133 77 -62 98 59 c 258
 116 166 l 258
 121 192 111 203 82 203 c 258
 61 203 l 257
 91 371 l 257
 111 371 l 258
 140 371 154 382 159 408 c 258
 178 514 l 258
 199 635 283 707 405 707 c 258
 468 707 l 257
 437 535 l 257
EndSplineSet
EndChar

StartChar: braceright
Encoding: 125 125 165
GlifName: braceright
Width: 368
VWidth: 0
GlyphClass: 2
Flags: HW
LayerCount: 2
Fore
SplineSet
32 39 m 257
 63 39 l 258
 92 39 106 50 111 76 c 258
 129 182 l 258
 138 235 177 273 236 287 c 257
 182 301 157 338 166 391 c 258
 185 498 l 258
 190 524 180 535 151 535 c 258
 120 535 l 257
 150 707 l 257
 213 707 l 258
 335 707 393 635 372 514 c 258
 353 408 l 258
 348 382 359 371 388 371 c 258
 408 371 l 257
 379 203 l 257
 358 203 l 258
 329 203 316 192 311 166 c 258
 292 59 l 258
 271 -62 187 -133 65 -133 c 258
 2 -133 l 257
 32 39 l 257
EndSplineSet
EndChar

StartChar: bracketleft
Encoding: 91 91 166
GlifName: bracketleft
Width: 368
VWidth: 0
GlyphClass: 2
Flags: HW
LayerCount: 2
Fore
SplineSet
323 524 m 257
 435 524 l 257
 468 707 l 257
 160 707 l 257
 12 -133 l 257
 320 -133 l 257
 352 49 l 257
 239 49 l 257
 323 524 l 257
EndSplineSet
EndChar

StartChar: bracketright
Encoding: 93 93 167
GlifName: bracketright
Width: 368
VWidth: 0
GlyphClass: 2
Flags: HW
LayerCount: 2
Fore
SplineSet
147 49 m 257
 34 49 l 257
 2 -133 l 257
 309 -133 l 257
 457 707 l 257
 150 707 l 257
 118 524 l 257
 231 524 l 257
 147 49 l 257
EndSplineSet
EndChar

StartChar: bullet
Encoding: 8226 8226 168
GlifName: bullet
Width: 344
VWidth: 0
GlyphClass: 2
Flags: HW
LayerCount: 2
Fore
SplineSet
31 332 m 256
 31 411 93 473 172 473 c 256
 251 473 313 411 313 332 c 256
 313 253 251 190 172 190 c 256
 93 190 31 253 31 332 c 256
EndSplineSet
EndChar

StartChar: c
Encoding: 99 99 169
GlifName: c
Width: 607
VWidth: 0
GlyphClass: 2
Flags: HW
AnchorPoint: "bottom1" 312 0 basechar 0
AnchorPoint: "top1" 404 572 basechar 0
LayerCount: 2
Fore
SplineSet
76 221 m 4
 76 411 200 532 369 532 c 4
 539 532 625 444 625 299 c 261
 426 299 l 261
 426 345 404 369 362 369 c 4
 311 369 272 307 272 226 c 4
 272 173 297 145 344 145 c 4
 388 145 412 166 422 212 c 261
 611 212 l 261
 587 65 486 -19 337 -19 c 4
 178 -19 76 75 76 221 c 4
EndSplineSet
EndChar

StartChar: colon
Encoding: 58 58 176
GlifName: colon
Width: 282
VWidth: 0
GlyphClass: 2
Flags: HW
LayerCount: 2
Fore
SplineSet
127 511 m 257
 336 511 l 257
 300 309 l 257
 91 309 l 257
 127 511 l 257
72 202 m 257
 281 202 l 257
 246 0 l 257
 37 0 l 257
 72 202 l 257
EndSplineSet
Substitution2: "ss03StyleSet3inLatinlookup2 subtable" colon.ss03
Substitution2: "tnumTabularNumbersinLatinlookup11 subtable" colon.tabl
EndChar

StartChar: colon.ss03
Encoding: 65565 -1 177
GlifName: colon.ss03
Width: 282
VWidth: 0
GlyphClass: 2
Flags: HW
LayerCount: 2
Fore
SplineSet
102 414 m 260
 102 475 152 524 213 524 c 260
 274 524 324 475 324 414 c 260
 324 353 274 303 213 303 c 260
 152 303 102 353 102 414 c 260
44 99 m 256
 44 160 94 210 155 210 c 256
 216 210 265 160 265 99 c 256
 265 38 216 -11 155 -11 c 256
 94 -11 44 38 44 99 c 256
EndSplineSet
Substitution2: "tnumTabularNumbersinLatinlookup11 subtable" colon.ss03.tabl
EndChar

StartChar: comma
Encoding: 44 44 178
GlifName: comma
Width: 282
VWidth: 0
GlyphClass: 2
Flags: HW
LayerCount: 2
Fore
SplineSet
72 202 m 257
 281 202 l 257
 246 0 l 257
 132 -189 l 257
 -2 -189 l 257
 160 0 l 257
 37 0 l 257
 72 202 l 257
EndSplineSet
Substitution2: "ss03StyleSet3inLatinlookup2 subtable" comma.ss03
EndChar

StartChar: comma.ss03
Encoding: 65566 -1 179
GlifName: comma.ss03
Width: 282
VWidth: 0
GlyphClass: 2
Flags: HW
LayerCount: 2
Fore
SplineSet
35 99 m 260
 35 160 84 210 145 210 c 260
 206 210 256 160 256 99 c 262
 256 -26 l 262
 256 -115 199 -167 103 -167 c 262
 50 -167 l 261
 50 -77 l 261
 72 -77 l 262
 135 -77 164 -59 164 -19 c 262
 164 -10 l 261
 158 -11 151 -11 145 -11 c 260
 84 -11 35 38 35 99 c 260
EndSplineSet
EndChar

StartChar: d
Encoding: 100 100 180
GlifName: d
Width: 622
VWidth: 0
GlyphClass: 2
Flags: W
HStem: -11 156<187 380> 369 170<247.569 395.716>
VStem: 74 198<161.652 318.618>
AnchorPoint: "top2" 713 512 basechar 0
LayerCount: 2
Fore
SplineSet
707 717 m 261
 511 717 l 261
 385 0 l 261
 581 0 l 261
 707 717 l 261
477 321 m 4
 477 458 417 539 316 539 c 4
 181 539 74 393 74 211 c 4
 74 74 137 -11 237 -11 c 4
 370 -11 477 138 477 321 c 4
272 233 m 4
 272 311 314 369 369 369 c 4
 409 369 430 338 430 281 c 4
 430 203 390 145 335 145 c 4
 295 145 272 176 272 233 c 4
EndSplineSet
EndChar

StartChar: dagger
Encoding: 8224 8224 181
GlifName: dagger
Width: 428
VWidth: 0
GlyphClass: 2
Flags: HW
LayerCount: 2
Fore
SplineSet
180 360 m 257
 87 360 l 257
 114 512 l 257
 207 512 l 257
 230 645 l 257
 425 645 l 257
 402 512 l 257
 495 512 l 257
 468 360 l 257
 375 360 l 257
 311 0 l 257
 117 0 l 257
 180 360 l 257
EndSplineSet
EndChar

StartChar: daggerdbl
Encoding: 8225 8225 182
GlifName: daggerdbl
Width: 428
VWidth: 0
GlyphClass: 2
Flags: HW
LayerCount: 2
Fore
SplineSet
402 512 m 257
 495 512 l 257
 468 360 l 257
 375 360 l 257
 361 285 l 257
 455 285 l 257
 428 133 l 257
 335 133 l 257
 311 0 l 257
 117 0 l 257
 140 133 l 257
 47 133 l 257
 74 285 l 257
 167 285 l 257
 180 360 l 257
 87 360 l 257
 114 512 l 257
 207 512 l 257
 230 645 l 257
 425 645 l 257
 402 512 l 257
EndSplineSet
EndChar

StartChar: dcroat
Encoding: 273 273 184
GlifName: dcroat
Width: 665
VWidth: 0
GlyphClass: 2
Flags: HW
LayerCount: 2
Fore
SplineSet
373 666 m 257
 352 547 l 257
 754 547 l 257
 775 666 l 257
 373 666 l 257
707 717 m 257
 511 717 l 257
 385 0 l 257
 581 0 l 257
 707 717 l 257
475 310 m 0
 475 440 415 518 315 518 c 4
 180 518 74 378 74 201 c 0
 74 70 137 -11 237 -11 c 0
 369 -11 475 132 475 310 c 0
272 223 m 0
 272 295 313 348 368 348 c 4
 407 348 428 321 428 270 c 0
 428 198 389 145 335 145 c 0
 295 145 272 173 272 223 c 0
EndSplineSet
EndChar

StartChar: divide
Encoding: 247 247 185
GlifName: divide
Width: 524
VWidth: 0
GlyphClass: 2
Flags: HW
LayerCount: 2
Fore
SplineSet
280 568 m 257
 448 568 l 257
 418 397 l 257
 250 397 l 257
 280 568 l 257
210 167 m 257
 378 167 l 257
 347 -4 l 257
 180 -4 l 257
 210 167 l 257
89 358 m 257
 562 358 l 257
 535 207 l 257
 62 207 l 257
 89 358 l 257
EndSplineSet
Substitution2: "ss03StyleSet3inLatinlookup2 subtable" divide.ss03
Substitution2: "tnumTabularNumbersinLatinlookup11 subtable" divide.tabl
EndChar

StartChar: divide.ss03
Encoding: 65567 -1 186
GlifName: divide.ss03
Width: 524
VWidth: 0
GlyphClass: 2
Flags: HW
LayerCount: 2
Fore
SplineSet
232 490 m 256
 232 551 282 601 343 601 c 256
 404 601 454 551 454 490 c 256
 454 429 404 380 343 380 c 256
 282 380 232 429 232 490 c 256
174 74 m 256
 174 135 224 184 285 184 c 256
 346 184 395 135 395 74 c 256
 395 13 346 -37 285 -37 c 256
 224 -37 174 13 174 74 c 256
89 358 m 257
 562 358 l 257
 535 207 l 257
 62 207 l 257
 89 358 l 257
EndSplineSet
Substitution2: "tnumTabularNumbersinLatinlookup11 subtable" divide.ss03.tabl
EndChar

StartChar: dollar
Encoding: 36 36 187
GlifName: dollar
Width: 645
VWidth: 0
GlyphClass: 2
Flags: HW
LayerCount: 2
Fore
SplineSet
427 778 m 261
 489 778 l 261
 328 -133 l 261
 267 -133 l 261
 427 778 l 261
397 234 m 258
 283 255 l 258
 178 274 118 342 118 445 c 0
 118 590 218 676 389 676 c 0
 570 676 673 594 673 449 c 257
 478 449 l 257
 478 500 447 527 390 527 c 0
 347 527 318 506 318 474 c 0
 318 456 331 440 353 436 c 258
 455 418 l 258
 586 394 645 325 645 222 c 0
 645 74 540 -10 374 -10 c 0
 188 -10 74 78 74 224 c 257
 270 224 l 257
 270 172 309 141 373 141 c 0
 414 141 445 166 445 197 c 0
 445 215 428 229 397 234 c 258
EndSplineSet
EndChar

StartChar: dotbelowcomb
Encoding: 803 803 188
GlifName: dotbelowcomb
Width: 282
VWidth: 0
GlyphClass: 4
Flags: HW
HStem: -205 151<33 242>
VStem: 33 209<-205 -54>
AnchorPoint: "bottom1" 141 0 mark 0
LayerCount: 2
Fore
SplineSet
23 -54 m 261
 232 -54 l 261
 206 -205 l 261
 -3 -205 l 261
 23 -54 l 261
EndSplineSet
Substitution2: "ss03StyleSet3inLatinlookup2 subtable" dotbelowcomb.ss03
EndChar

StartChar: dotbelowcomb.ss03
Encoding: 65568 -1 189
GlifName: dotbelowcomb.ss03
Width: 307
VWidth: 0
GlyphClass: 4
Flags: HW
HStem: -268 221<87 220>
VStem: 43 221<-224 -91>
AnchorPoint: "bottom1" 154 0 mark 0
LayerCount: 2
Fore
SplineSet
43 -158 m 256
 43 -97 93 -47 154 -47 c 256
 215 -47 264 -97 264 -158 c 256
 264 -219 215 -268 154 -268 c 256
 93 -268 43 -219 43 -158 c 256
EndSplineSet
EndChar

StartChar: dotlessi
Encoding: 305 305 190
GlifName: dotlessi
Width: 282
VWidth: 0
GlyphClass: 2
Flags: HW
HStem: 0 22<44 239 44 44> 492 20<44 239 239 239>
VStem: 44 195<0 512 0 512>
AnchorPoint: "bottom1" 147 0 basechar 0
AnchorPoint: "top1" 247 573 basechar 0
LayerCount: 2
Fore
SplineSet
134 512 m 257
 329 512 l 257
 239 0 l 257
 44 0 l 257
 134 512 l 257
EndSplineSet
PickledDataWithLists: "(dp0
Vcom.fontlab.hintData\\u000d\\u000d\\u000d\\u000d\\u000d\\u000d\\u000d\\u000d\\u000d\\u000d\\u000d\\u000d\\u000d\\u000d\\u000d\\u000d\\u000d\\u000d\\u000d\\u000d\\u000d\\u000d\\u000d\\u000d
p1
(dp2
Vhhints\\u000d\\u000d\\u000d\\u000d\\u000d\\u000d\\u000d\\u000d\\u000d\\u000d\\u000d\\u000d\\u000d\\u000d\\u000d\\u000d\\u000d\\u000d\\u000d\\u000d\\u000d\\u000d\\u000d\\u000d
p3
(lp4
(dp5
Vposition\\u000d\\u000d\\u000d\\u000d\\u000d\\u000d\\u000d\\u000d\\u000d\\u000d\\u000d\\u000d\\u000d\\u000d\\u000d\\u000d\\u000d\\u000d\\u000d\\u000d\\u000d\\u000d\\u000d\\u000d
p6
I0
sVwidth\\u000d\\u000d\\u000d\\u000d\\u000d\\u000d\\u000d\\u000d\\u000d\\u000d\\u000d\\u000d\\u000d\\u000d\\u000d\\u000d\\u000d\\u000d\\u000d\\u000d\\u000d\\u000d\\u000d\\u000d
p7
I21
sa(dp8
g6
I480
sg7
I20
sasVvhints\\u000d\\u000d\\u000d\\u000d\\u000d\\u000d\\u000d\\u000d\\u000d\\u000d\\u000d\\u000d\\u000d\\u000d\\u000d\\u000d\\u000d\\u000d\\u000d\\u000d\\u000d\\u000d\\u000d\\u000d
p9
(lp10
(dp11
g6
I43
sg7
I190
sass."
Substitution2: "ss03StyleSet3inLatinlookup2 subtable" dotlessi.ss03
EndChar

StartChar: dotlessi.ss03
Encoding: 65569 -1 191
GlifName: dotlessi.ss03
Width: 282
VWidth: 0
GlyphClass: 2
Flags: HW
AnchorPoint: "top1" 145 573 basechar 0
AnchorPoint: "bottom1" 147 0 basechar 0
LayerCount: 2
Fore
SplineSet
44 512 m 257
 239 512 l 257
 239 0 l 257
 44 0 l 257
 44 512 l 257
EndSplineSet
EndChar

StartChar: e
Encoding: 101 101 192
GlifName: e
Width: 613
VWidth: 0
GlyphClass: 2
Flags: HW
AnchorPoint: "bottom1" 312 0 basechar 0
AnchorPoint: "bottom2" 513 37 basechar 0
AnchorPoint: "top1" 404 572 basechar 0
LayerCount: 2
Fore
SplineSet
76 232 m 4
 76 402 192 523 356 523 c 4
 541 523 648 413 618 246 c 262
 612 212 l 261
 259 212 l 261
 281 330 l 261
 427 330 l 261
 427 366 401 389 360 389 c 4
 302 389 272 333 272 223 c 4
 272 165 294 138 341 138 c 4
 373 138 395 150 406 175 c 261
 611 175 l 261
 574 53 486 -9 349 -9 c 4
 175 -9 76 79 76 232 c 4
EndSplineSet
EndChar

StartChar: eight
Encoding: 56 56 202
GlifName: eight
Width: 611
VWidth: 0
GlyphClass: 2
Flags: HW
HStem: -8 148<248 363> 263 143<265 346> 309 51<295 303 308 316> 525 148<258 352>
VStem: 36 198<155 250> 56 187<418 513> 293 10<263 407> 308 10<263 309 360 407> 368 187<417 513> 378 198<155 249>
LayerCount: 2
Fore
SplineSet
521 327 m 1
 579 301 610 256 610 194 c 0
 610 77 491 -8 325 -8 c 0
 167 -8 66 62 66 172 c 0
 66 251 120 317 210 347 c 1
 163 373 139 416 139 473 c 0
 139 589 250 674 403 674 c 0
 549 674 643 605 643 497 c 0
 643 423 597 358 521 327 c 1
384 407 m 2
 424 407 452 435 452 475 c 0
 452 507 431 525 394 525 c 0
 352 525 325 498 325 457 c 0
 325 425 344 407 379 407 c 2
 384 407 l 2
351 263 m 2
 346 263 l 2
 298 263 268 237 268 195 c 0
 268 160 291 140 334 140 c 0
 383 140 415 169 415 211 c 0
 415 245 392 263 351 263 c 2
EndSplineSet
Substitution2: "tnumTabularNumbersinLatinlookup11 subtable" eight.tabl
Substitution2: "supsSuperscriptinLatinlookup15 subtable" uni2078
Substitution2: "subsSubscriptinLatinlookup14 subtable" uni2088
Substitution2: "numrNumeratorsinLatinlookup13 subtable" eight.numr
Substitution2: "dnomDenominatorsinLatinlookup12 subtable" eight.dnom
Substitution2: "cv04CharacterVariants04inLatinlookup19 subtable" uni2467
Substitution2: "cv03CharacterVariants03inLatinlookup18 subtable" uni277D
Substitution2: "cv02CharacterVariants02inLatinlookup17 subtable" eight.cv02
Substitution2: "cv01CharacterVariants01inLatinlookup16 subtable" eight.cv01
EndChar

StartChar: ellipsis
Encoding: 8230 8230 203
GlifName: ellipsis
Width: 823
VWidth: 0
GlyphClass: 2
Flags: HW
LayerCount: 2
Fore
SplineSet
613 202 m 257
 822 202 l 257
 786 0 l 257
 578 0 l 257
 613 202 l 257
343 202 m 257
 552 202 l 257
 516 0 l 257
 307 0 l 257
 343 202 l 257
72 202 m 257
 281 202 l 257
 246 0 l 257
 37 0 l 257
 72 202 l 257
EndSplineSet
Substitution2: "ss03StyleSet3inLatinlookup2 subtable" ellipsis.ss03
EndChar

StartChar: ellipsis.ss03
Encoding: 65572 -1 204
GlifName: ellipsis.ss03
Width: 847
VWidth: 0
GlyphClass: 2
Flags: HW
LayerCount: 2
Fore
SplineSet
596 99 m 256
 596 160 646 210 707 210 c 256
 768 210 817 160 817 99 c 256
 817 38 768 -11 707 -11 c 256
 646 -11 596 38 596 99 c 256
313 99 m 256
 313 160 363 210 424 210 c 256
 485 210 535 160 535 99 c 256
 535 38 485 -11 424 -11 c 256
 363 -11 313 38 313 99 c 256
31 99 m 256
 31 160 80 210 141 210 c 256
 202 210 252 160 252 99 c 256
 252 38 202 -11 141 -11 c 256
 80 -11 31 38 31 99 c 256
EndSplineSet
EndChar

StartChar: emdash
Encoding: 8212 8212 206
GlifName: emdash
Width: 1024
VWidth: 0
GlyphClass: 2
Flags: HW
LayerCount: 2
Fore
SplineSet
91 369 m 257
 1064 369 l 257
 1034 197 l 257
 60 197 l 257
 91 369 l 257
EndSplineSet
EndChar

StartChar: endash
Encoding: 8211 8211 207
GlifName: endash
Width: 716
VWidth: 0
GlyphClass: 2
Flags: HW
LayerCount: 2
Fore
SplineSet
91 369 m 257
 756 369 l 257
 726 197 l 257
 60 197 l 257
 91 369 l 257
EndSplineSet
EndChar

StartChar: eng
Encoding: 331 331 208
GlifName: eng
Width: 620
VWidth: 0
GlyphClass: 2
Flags: HW
LayerCount: 2
Fore
SplineSet
136 511 m 257
 331 511 l 257
 240 -1 l 257
 46 -1 l 257
 136 511 l 257
433 275 m 258
 443 329 421 357 373 357 c 256
 333 357 298 326 290 282 c 257
 251 288 l 257
 274 422 379 531 483 531 c 256
 599 531 658 447 634 316 c 258
 580 8 l 258
 559 -125 476 -205 359 -205 c 258
 255 -205 l 257
 285 -33 l 257
 327 -33 l 258
 363 -33 381 -19 387 14 c 258
 433 275 l 258
EndSplineSet
EndChar

StartChar: equal
Encoding: 61 61 210
GlifName: equal
Width: 602
VWidth: 0
GlyphClass: 2
Flags: HW
LayerCount: 2
Fore
SplineSet
622 256 m 257
 593 94 l 257
 42 94 l 257
 71 256 l 257
 622 256 l 257
670 532 m 257
 642 371 l 257
 91 371 l 257
 119 532 l 257
 670 532 l 257
EndSplineSet
Substitution2: "supsSuperscriptinLatinlookup15 subtable" uni207C
Substitution2: "subsSubscriptinLatinlookup14 subtable" uni208C
EndChar

StartChar: eth
Encoding: 240 240 211
GlifName: eth
Width: 672
VWidth: 0
GlyphClass: 2
Flags: HW
LayerCount: 2
Fore
SplineSet
417 256 m 256
 417 317 380 358 325 358 c 256
 270 358 233 317 233 254 c 256
 233 189 269 146 323 146 c 256
 378 146 417 192 417 256 c 256
504 717 m 257
 580 632 637 515 637 377 c 256
 637 141 517 -8 327 -8 c 256
 155 -8 36 102 36 261 c 256
 36 406 129 513 256 513 c 256
 338 513 409 468 439 397 c 257
 439 401 439 406 439 410 c 256
 439 533 375 635 290 717 c 257
 504 717 l 257
246 657 m 257
 643 682 l 257
 643 561 l 257
 246 537 l 257
 246 657 l 257
EndSplineSet
EndChar

StartChar: exclam
Encoding: 33 33 212
GlifName: exclam
Width: 282
VWidth: 0
GlyphClass: 2
Flags: HW
LayerCount: 2
Fore
SplineSet
246 0 m 257
 37 0 l 257
 63 151 l 257
 272 151 l 257
 246 0 l 257
254 205 m 261
 101 205 l 261
 161 666 l 261
 356 666 l 261
 254 205 l 261
EndSplineSet
Substitution2: "ss03StyleSet3inLatinlookup2 subtable" exclam.ss03
EndChar

StartChar: exclam.ss03
Encoding: 65573 -1 213
GlifName: exclam.ss03
Width: 282
VWidth: 0
GlyphClass: 2
Flags: HW
LayerCount: 2
Fore
SplineSet
47 89 m 256
 47 144 97 189 158 189 c 260
 219 189 268 144 268 89 c 256
 268 34 219 -11 158 -11 c 256
 97 -11 47 34 47 89 c 256
257 225 m 257
 104 225 l 257
 161 666 l 257
 356 666 l 257
 257 225 l 257
EndSplineSet
EndChar

StartChar: exclamdown
Encoding: 161 161 214
GlifName: exclamdown
Width: 282
VWidth: 0
GlyphClass: 2
Flags: HW
LayerCount: 2
Fore
SplineSet
127 512 m 257
 336 512 l 257
 309 361 l 257
 101 361 l 257
 127 512 l 257
119 307 m 257
 272 307 l 257
 212 -154 l 257
 17 -154 l 257
 119 307 l 257
EndSplineSet
Substitution2: "ss03StyleSet3inLatinlookup2 subtable" exclamdown.ss03
EndChar

StartChar: exclamdown.ss03
Encoding: 65574 -1 215
GlifName: exclamdown.ss03
Width: 282
VWidth: 0
GlyphClass: 2
Flags: HW
LayerCount: 2
Fore
SplineSet
326 422 m 260
 326 367 276 322 215 322 c 260
 154 322 104 367 104 422 c 260
 104 477 154 522 215 522 c 260
 276 522 326 477 326 422 c 260
115 286 m 261
 269 286 l 261
 211 -155 l 261
 17 -155 l 261
 115 286 l 261
EndSplineSet
EndChar

StartChar: f
Encoding: 102 102 216
GlifName: f
Width: 387
VWidth: 0
GlyphClass: 2
Flags: HW
HStem: 0 22G<96 294> 360 152<114 427> 565 152<392 464>
DStem2: 23 0 96 0 0.173648 0.984808<366.008 519.882> 96 0 291 0 0.173648 0.984808<33.785 609.095>
LayerCount: 2
Fore
SplineSet
87 360 m 257
 114 512 l 257
 454 512 l 257
 427 360 l 257
 87 360 l 257
464 565 m 257
 432 565 l 258
 403 565 388 554 384 528 c 258
 291 0 l 257
 96 0 l 257
 190 535 l 258
 210 650 299 717 427 717 c 258
 490 717 l 257
 464 565 l 257
EndSplineSet
EndChar

StartChar: five
Encoding: 53 53 217
GlifName: five
Width: 611
VWidth: 0
GlyphClass: 2
Flags: HW
LayerCount: 2
Fore
SplineSet
420 250 m 0
 420 193 387 156 334 156 c 256
 293 156 272 177 272 217 c 257
 74 217 l 257
 74 76 170 -8 332 -8 c 256
 499 -8 621 106 621 263 c 0
 621 379 558 454 459 454 c 256
 398 454 344 428 303 381 c 257
 341 505 l 257
 641 505 l 257
 669 667 l 257
 191 667 l 257
 84 274 l 257
 278 274 l 257
 297 299 324 313 356 313 c 256
 397 313 420 291 420 250 c 0
EndSplineSet
Substitution2: "tnumTabularNumbersinLatinlookup11 subtable" five.tabl
Substitution2: "supsSuperscriptinLatinlookup15 subtable" uni2075
Substitution2: "subsSubscriptinLatinlookup14 subtable" uni2085
Substitution2: "numrNumeratorsinLatinlookup13 subtable" five.numr
Substitution2: "dnomDenominatorsinLatinlookup12 subtable" five.dnom
Substitution2: "cv04CharacterVariants04inLatinlookup19 subtable" uni2464
Substitution2: "cv03CharacterVariants03inLatinlookup18 subtable" uni277A
Substitution2: "cv02CharacterVariants02inLatinlookup17 subtable" five.cv02
Substitution2: "cv01CharacterVariants01inLatinlookup16 subtable" five.cv01
EndChar

StartChar: four
Encoding: 52 52 218
GlifName: four
Width: 625
VWidth: 0
GlyphClass: 2
Flags: HW
LayerCount: 2
Fore
SplineSet
550 135 m 257
 526 0 l 257
 342 0 l 257
 366 135 l 257
 49 135 l 257
 85 337 l 257
 408 666 l 257
 644 666 l 257
 579 296 l 257
 662 296 l 257
 634 135 l 257
 550 135 l 257
394 296 m 257
 423 457 l 257
 264 296 l 261
 394 296 l 257
EndSplineSet
Substitution2: "tnumTabularNumbersinLatinlookup11 subtable" four.tabl
Substitution2: "supsSuperscriptinLatinlookup15 subtable" uni2074
Substitution2: "subsSubscriptinLatinlookup14 subtable" uni2084
Substitution2: "numrNumeratorsinLatinlookup13 subtable" four.numr
Substitution2: "dnomDenominatorsinLatinlookup12 subtable" four.dnom
Substitution2: "cv04CharacterVariants04inLatinlookup19 subtable" uni2463
Substitution2: "cv03CharacterVariants03inLatinlookup18 subtable" uni2779
Substitution2: "cv02CharacterVariants02inLatinlookup17 subtable" four.cv02
Substitution2: "cv01CharacterVariants01inLatinlookup16 subtable" four.cv01
EndChar

StartChar: g
Encoding: 103 103 219
GlifName: g
Width: 622
VWidth: 0
GlyphClass: 2
Flags: HW
AnchorPoint: "top1" 407 572 basechar 0
LayerCount: 2
Fore
SplineSet
276 245 m 4
 276 312 313 357 364 357 c 4
 408 357 432 331 432 285 c 4
 432 218 397 171 347 171 c 4
 303 171 276 198 276 245 c 4
479 324 m 4
 479 448 412 526 307 526 c 4
 178 526 77 392 77 220 c 4
 77 94 145 13 251 13 c 4
 378 13 479 151 479 324 c 4
671 512 m 261
 475 512 l 261
 384 -12 l 262
 379 -45 352 -65 311 -65 c 4
 261 -65 231 -48 231 -16 c 261
 36 -16 l 261
 36 -139 147 -205 322 -205 c 4
 459 -205 557 -141 575 -35 c 262
 671 512 l 261
EndSplineSet
EndChar

StartChar: germandbls
Encoding: 223 223 224
GlifName: germandbls
Width: 660
VWidth: 0
GlyphClass: 2
Flags: HW
LayerCount: 2
Fore
SplineSet
446 564 m 256
 381 564 332 519 319 446 c 258
 241 0 l 257
 46 0 l 257
 126 453 l 258
 153 615 287 725 455 725 c 256
 601 725 708 639 708 522 c 0
 708 408 594 324 441 324 c 261
 430 436 l 257
 481 436 516 466 516 509 c 0
 516 542 487 564 446 564 c 256
479 436 m 257
 453 283 l 257
 361 283 l 257
 388 436 l 257
 479 436 l 257
423 395 m 257
 569 395 662 321 662 203 c 0
 662 86 557 0 415 0 c 258
 301 0 l 257
 330 164 l 257
 392 164 l 258
 443 164 477 191 477 233 c 0
 477 265 451 283 403 283 c 257
 423 395 l 257
EndSplineSet
EndChar

StartChar: grave
Encoding: 96 96 225
GlifName: grave
Width: 440
VWidth: 0
GlyphClass: 2
Flags: HW
LayerCount: 2
Fore
SplineSet
166 737 m 257
 391 737 l 257
 498 532 l 257
 345 532 l 257
 166 737 l 257
EndSplineSet
EndChar

StartChar: gravecomb
Encoding: 768 768 226
GlifName: gravecomb
Width: 307
VWidth: 0
GlyphClass: 4
Flags: HW
AnchorPoint: "top1" 250 512 mark 0
LayerCount: 2
Fore
SplineSet
76 717 m 257
 281 717 l 257
 358 512 l 257
 214 512 l 261
 76 717 l 257
EndSplineSet
EndChar

StartChar: greater
Encoding: 62 62 227
GlifName: greater
Width: 605
VWidth: 0
GlyphClass: 2
Flags: HW
LayerCount: 2
Fore
SplineSet
34 41 m 257
 69 242 l 257
 466 319 l 257
 96 391 l 257
 131 594 l 257
 655 428 l 257
 616 207 l 257
 34 41 l 257
EndSplineSet
EndChar

StartChar: h
Encoding: 104 104 228
GlifName: h
Width: 620
VWidth: 0
GlyphClass: 2
Flags: HW
AnchorPoint: "top1" 273 770 basechar 0
LayerCount: 2
Fore
SplineSet
431 276 m 262
 440 331 418 358 373 358 c 260
 332 358 296 331 289 282 c 261
 250 291 l 261
 277 446 392 524 484 524 c 260
 592 524 652 410 633 300 c 262
 580 0 l 261
 384 0 l 261
 431 276 l 262
169 717 m 261
 365 717 l 261
 240 0 l 261
 45 0 l 261
 169 717 l 261
EndSplineSet
EndChar

StartChar: hbar
Encoding: 295 295 229
GlifName: hbar
Width: 661
VWidth: 0
GlyphClass: 2
Flags: HW
LayerCount: 2
Fore
SplineSet
128 666 m 257
 529 666 l 257
 508 547 l 257
 107 547 l 257
 128 666 l 257
471 269 m 258
 480 324 457 351 412 351 c 256
 371 351 335 323 328 274 c 257
 290 284 l 257
 317 439 432 517 524 517 c 256
 632 517 692 403 673 293 c 258
 621 0 l 257
 425 0 l 257
 471 269 l 258
210 717 m 257
 406 717 l 257
 281 0 l 257
 86 0 l 257
 210 717 l 257
EndSplineSet
EndChar

StartChar: hookabovecomb
Encoding: 777 777 231
GlifName: hookabovecomb
Width: 307
VWidth: 0
GlyphClass: 4
Flags: HW
AnchorPoint: "top1" 250 512 mark 0
LayerCount: 2
Fore
SplineSet
189 512 m 257
 196 551 226 574 255 592 c 256
 281 608 306 622 309 639 c 256
 313 659 303 672 285 672 c 256
 263 672 247 659 242 636 c 257
 111 636 l 257
 134 730 195 773 305 773 c 256
 400 773 454 723 440 646 c 256
 432 603 400 580 368 563 c 256
 337 547 308 535 304 512 c 257
 189 512 l 257
EndSplineSet
EndChar

StartChar: hyphen
Encoding: 45 45 232
GlifName: hyphen
Width: 524
VWidth: 0
GlyphClass: 2
Flags: HW
LayerCount: 2
Fore
SplineSet
91 369 m 261
 564 369 l 261
 533 197 l 261
 60 197 l 261
 91 369 l 261
EndSplineSet
Substitution2: "tnumTabularNumbersinLatinlookup11 subtable" hyphen.tabl
Substitution2: "supsSuperscriptinLatinlookup15 subtable" uni207B
Substitution2: "subsSubscriptinLatinlookup14 subtable" uni208B
EndChar

StartChar: i
Encoding: 105 105 233
GlifName: i
Width: 282
VWidth: 0
GlyphClass: 2
Flags: HW
HStem: 0 22G<43 241> 492 20G<130 328> 566 151<163 345>
VStem: 43 328
DStem2: 43 0 238 0 0.173648 0.984808<33.785 519.898 650.196 686.455>
AnchorPoint: "bottom2" 238 0 basechar 0
AnchorPoint: "bottom1" 147 0 basechar 0
LayerCount: 2
Fore
SplineSet
163 717 m 257
 371 717 l 257
 345 566 l 257
 136 566 l 257
 163 717 l 257
134 512 m 261
 328 512 l 261
 238 0 l 261
 43 0 l 261
 134 512 l 261
EndSplineSet
Substitution2: "ss03StyleSet3inLatinlookup2 subtable" i.ss03
EndChar

StartChar: i.ss03
Encoding: 65576 -1 234
GlifName: i.ss03
Width: 282
VWidth: 0
GlyphClass: 2
Flags: HW
HStem: 0 22G<44 239> 492 20G<44 239> 555 221<75 208>
VStem: 31 221<599 732> 44 195<0 512>
AnchorPoint: "bottom1" 147 0 basechar 0
AnchorPoint: "bottom2" 238 0 basechar 0
LayerCount: 2
Fore
SplineSet
147 666 m 260xf0
 147 727 197 776 258 776 c 260
 319 776 369 727 369 666 c 260
 369 605 319 555 258 555 c 260
 197 555 147 605 147 666 c 260xf0
134 512 m 257
 328 512 l 257
 238 0 l 257
 43 0 l 257
 134 512 l 257
EndSplineSet
EndChar

StartChar: j
Encoding: 106 106 247
GlifName: j
Width: 282
VWidth: 0
GlyphClass: 2
Flags: HW
LayerCount: 2
Fore
SplineSet
-35 -33 m 257
 -3 -33 l 258
 26 -33 41 -21 45 4 c 258
 134 512 l 257
 329 512 l 257
 238 -2 l 258
 213 -143 150 -205 -1 -205 c 258
 -65 -205 l 257
 -35 -33 l 257
163 717 m 257
 372 717 l 257
 346 566 l 257
 137 566 l 257
 163 717 l 257
EndSplineSet
Substitution2: "ss03StyleSet3inLatinlookup2 subtable" j.ss03
EndChar

StartChar: j.ss03
Encoding: 65580 -1 248
GlifName: j.ss03
Width: 282
VWidth: 0
GlyphClass: 2
Flags: HW
LayerCount: 2
Fore
SplineSet
147 666 m 260xf0
 147 727 197 776 258 776 c 260
 319 776 369 727 369 666 c 260
 369 605 319 555 258 555 c 260
 197 555 147 605 147 666 c 260xf0
-35 -33 m 257
 -3 -33 l 258
 30 -33 45 -22 45 4 c 258
 134 512 l 257
 329 512 l 257
 238 -2 l 258
 238 -129 149 -205 -1 -205 c 258
 -65 -205 l 257
 -35 -33 l 257
EndSplineSet
EndChar

StartChar: k
Encoding: 107 107 250
GlifName: k
Width: 631
VWidth: 0
GlyphClass: 2
Flags: HW
HStem: 0 22G<44 242 402 625> 492 20G<428 707> 696 20G<167 365>
AnchorPoint: "bottom1" 322 0 basechar 0
LayerCount: 2
Fore
SplineSet
171 717 m 261
 365 717 l 261
 239 0 l 261
 44 0 l 261
 171 717 l 261
446 512 m 261
 707 512 l 261
 492 281 l 261
 625 0 l 261
 410 0 l 261
 339 175 l 261
 246 88 l 261
 183 211 l 261
 446 512 l 261
EndSplineSet
EndChar

StartChar: kgreenlandic
Encoding: 312 312 251
GlifName: kgreenlandic
Width: 646
VWidth: 0
GlyphClass: 2
Flags: HW
LayerCount: 2
Fore
SplineSet
136 512 m 257
 330 512 l 257
 239 0 l 257
 44 0 l 257
 136 512 l 257
446 512 m 257
 707 512 l 257
 492 281 l 257
 625 0 l 257
 410 0 l 257
 339 175 l 257
 246 88 l 257
 183 211 l 257
 446 512 l 257
EndSplineSet
EndChar

StartChar: l
Encoding: 108 108 252
GlifName: l
Width: 282
VWidth: 0
GlyphClass: 2
Flags: HW
HStem: 0 22G<43 241> 696 20G<165 364>
VStem: 43 321
DStem2: 43 0 238 0 0.173648 0.984808<33.785 727.782>
AnchorPoint: "top2" 373 512 basechar 0
AnchorPoint: "bottom1" 148 0 basechar 0
AnchorPoint: "top1" 278 770 basechar 0
LayerCount: 2
Fore
SplineSet
169 717 m 257
 364 717 l 257
 238 0 l 257
 43 0 l 257
 169 717 l 257
EndSplineSet
Substitution2: "ss02StyleSet2inLatinlookup1 subtable" l.ss02
EndChar

StartChar: l.ss02
Encoding: 65581 -1 253
GlifName: l.ss02
Width: 336
VWidth: 0
GlyphClass: 2
Flags: W
HStem: 0 21G<186 316.58> 697 20G<168.486 367>
AnchorPoint: "top1" 278 770 basechar 0
AnchorPoint: "bottom1" 188 0 basechar 0
AnchorPoint: "top2" 373 512 basechar 0
LayerCount: 2
Fore
SplineSet
342 162 m 261
 313 0 l 261
 250 0 l 262
 122 0 58 67 78 182 c 262
 172 717 l 261
 367 717 l 261
 277 209 l 262
 271 176 281 162 310 162 c 262
 342 162 l 261
EndSplineSet
EndChar

StartChar: ldot.ss02
Encoding: 65584 -1 259
GlifName: ldot.ss02
Width: 522
VWidth: 0
GlyphClass: 2
Flags: HW
HStem: 246 202<313 522>
VStem: 313 209<246 447>
LayerCount: 2
Fore
SplineSet
392 447 m 261
 600 447 l 261
 565 246 l 261
 356 246 l 261
 392 447 l 261
EndSplineSet
Refer: 253 -1 N 1 0 0 1 0 0 2
Substitution2: "ss03StyleSet3inLatinlookup2 subtable" ldot.ss02.ss03
EndChar

StartChar: ldot.ss02.ss03
Encoding: 65585 -1 260
GlifName: ldot.ss02.ss03
Width: 577
VWidth: 0
GlyphClass: 2
Flags: HW
LayerCount: 2
Fore
SplineSet
377 355 m 256
 377 416 426 466 487 466 c 256
 548 466 598 416 598 355 c 256
 598 294 548 245 487 245 c 256
 426 245 377 294 377 355 c 256
346 162 m 257
 318 0 l 257
 254 0 l 258
 146 0 83 67 83 182 c 258
 177 717 l 257
 371 717 l 257
 282 209 l 258
 282 176 292 162 315 162 c 258
 346 162 l 257
EndSplineSet
EndChar

StartChar: less
Encoding: 60 60 262
GlifName: less
Width: 605
VWidth: 0
GlyphClass: 2
Flags: HW
LayerCount: 2
Fore
SplineSet
684 594 m 261
 649 393 l 261
 252 315 l 261
 623 244 l 261
 587 41 l 261
 63 207 l 261
 102 428 l 261
 684 594 l 261
EndSplineSet
EndChar

StartChar: longs
Encoding: 383 383 263
GlifName: longs
Width: 336
VWidth: 0
GlyphClass: 2
Flags: HW
LayerCount: 2
Fore
SplineSet
413 565 m 261
 381 565 l 262
 352 565 339 554 334 528 c 262
 241 0 l 261
 46 0 l 261
 140 535 l 262
 160 650 248 717 376 717 c 262
 440 717 l 261
 413 565 l 261
EndSplineSet
EndChar

StartChar: lslash
Encoding: 322 322 264
GlifName: lslash
Width: 356
VWidth: 0
GlyphClass: 2
Flags: HW
LayerCount: 2
Fore
SplineSet
74 420 m 257
 440 475 l 257
 413 324 l 257
 47 268 l 257
 74 420 l 257
206 717 m 257
 401 717 l 257
 274 0 l 257
 80 0 l 257
 206 717 l 257
EndSplineSet
Substitution2: "ss02StyleSet2inLatinlookup1 subtable" lslash.ss02
EndChar

StartChar: lslash.ss02
Encoding: 65587 -1 265
GlifName: lslash.ss02
Width: 357
VWidth: 0
GlyphClass: 2
Flags: HW
LayerCount: 2
Fore
SplineSet
362 162 m 257
 334 0 l 257
 270 0 l 258
 142 0 79 67 99 182 c 258
 193 717 l 257
 388 717 l 257
 298 209 l 258
 292 176 302 162 331 162 c 258
 362 162 l 257
74 420 m 257
 440 475 l 257
 413 324 l 257
 47 268 l 257
 74 420 l 257
EndSplineSet
EndChar

StartChar: m
Encoding: 109 109 266
GlifName: m
Width: 917
VWidth: 0
GlyphClass: 2
Flags: HW
HStem: 0 22G<45 243 364 563 683 882> 358 166<344 523 664 842> 492 20G<131 330>
DStem2: 364 0 559 0 0.173648 0.984808<33.9628 320.963> 683 0 879 0 0.173648 0.984808<33.9628 344.049>
LayerCount: 2
Fore
SplineSet
730 276 m 258xc0
 740 333 720 358 682 358 c 256
 646 358 617 332 608 282 c 257
 569 291 l 257
 593 428 686 524 794 524 c 256
 892 524 954 423 932 300 c 258
 879 0 l 257
 683 0 l 257
 730 276 l 258xc0
411 276 m 258
 421 333 400 358 362 358 c 256
 326 358 298 332 289 282 c 257
 250 291 l 257
 274 428 366 524 474 524 c 256
 572 524 634 423 612 300 c 258
 559 0 l 257
 364 0 l 257
 411 276 l 258
134 512 m 257xa0
 330 512 l 257
 240 0 l 257
 45 0 l 257
 134 512 l 257xa0
EndSplineSet
EndChar

StartChar: minute
Encoding: 8242 8242 267
GlifName: minute
Width: 399
VWidth: -51
GlyphClass: 2
Flags: HW
LayerCount: 2
Fore
SplineSet
491 666 m 257
 260 461 l 257
 107 461 l 257
 276 666 l 257
 491 666 l 257
EndSplineSet
EndChar

StartChar: multiply
Encoding: 215 215 268
GlifName: multiply
Width: 602
VWidth: 0
GlyphClass: 2
Flags: HW
LayerCount: 2
Fore
SplineSet
378 435 m 257
 537 580 l 257
 638 458 l 257
 470 324 l 257
 590 189 l 257
 447 68 l 257
 338 212 l 257
 179 68 l 257
 78 189 l 257
 246 324 l 257
 126 458 l 257
 269 580 l 257
 378 435 l 257
EndSplineSet
Substitution2: "tnumTabularNumbersinLatinlookup11 subtable" multiply.tabl
EndChar

StartChar: n
Encoding: 110 110 269
GlifName: n
Width: 620
VWidth: 0
GlyphClass: 2
Flags: HW
AnchorPoint: "bottom1" 314 0 basechar 0
AnchorPoint: "top1" 419 573 basechar 0
LayerCount: 2
Fore
SplineSet
431 276 m 262
 440 331 418 358 373 358 c 260
 332 358 296 331 289 282 c 261
 250 291 l 261
 277 446 392 524 484 524 c 260
 592 524 652 410 633 300 c 262
 580 0 l 261
 384 0 l 261
 431 276 l 262
134 512 m 261
 330 512 l 261
 240 0 l 261
 45 0 l 261
 134 512 l 261
EndSplineSet
Substitution2: "supsSuperscriptinLatinlookup15 subtable" uni207F
Substitution2: "subsSubscriptinLatinlookup14 subtable" uni2099
EndChar

StartChar: nine
Encoding: 57 57 273
GlifName: nine
Width: 631
VWidth: 0
GlyphClass: 2
Flags: HW
LayerCount: 2
Fore
SplineSet
661 417 m 4
 661 160 516 -8 316 -8 c 260
 165 -8 76 64 76 187 c 261
 274 187 l 261
 274 154 293 135 325 135 c 260
 383 135 432 199 449 294 c 260
 450 300 451 303 452 306 c 261
 419 260 353 231 284 231 c 260
 180 231 110 305 110 414 c 4
 110 561 224 676 396 676 c 260
 563 676 661 580 661 417 c 4
456 469 m 4
 456 507 432 531 395 531 c 260
 348 531 311 489 311 435 c 4
 311 398 333 376 370 376 c 260
 419 376 456 417 456 469 c 4
EndSplineSet
Substitution2: "tnumTabularNumbersinLatinlookup11 subtable" nine.tabl
Substitution2: "supsSuperscriptinLatinlookup15 subtable" uni2079
Substitution2: "subsSubscriptinLatinlookup14 subtable" uni2089
Substitution2: "numrNumeratorsinLatinlookup13 subtable" nine.numr
Substitution2: "dnomDenominatorsinLatinlookup12 subtable" nine.dnom
Substitution2: "cv04CharacterVariants04inLatinlookup19 subtable" uni2468
Substitution2: "cv03CharacterVariants03inLatinlookup18 subtable" uni277E
Substitution2: "cv02CharacterVariants02inLatinlookup17 subtable" nine.cv02
Substitution2: "cv01CharacterVariants01inLatinlookup16 subtable" nine.cv01
EndChar

StartChar: numbersign
Encoding: 35 35 275
GlifName: numbersign
Width: 757
VWidth: 0
GlyphClass: 2
Flags: HW
LayerCount: 2
Fore
SplineSet
736 273 m 261
 736 142 l 261
 81 142 l 261
 81 273 l 261
 736 273 l 261
787 519 m 261
 787 388 l 261
 132 388 l 261
 132 519 l 261
 787 519 l 261
574 666 m 261
 759 666 l 261
 581 0 l 261
 396 0 l 261
 574 666 l 261
288 666 m 261
 472 666 l 261
 294 0 l 261
 110 0 l 261
 288 666 l 261
EndSplineSet
EndChar

StartChar: o
Encoding: 111 111 276
GlifName: o
Width: 615
VWidth: 0
GlyphClass: 2
Flags: W
HStem: -18 163<291.657 388.925> 369 163<315.559 412.85>
VStem: 76 197<162.738 319.027> 431 197<196.369 352.562>
AnchorPoint: "top3" 457 506 basechar 0
AnchorPoint: "bottom1" 307 1 basechar 0
AnchorPoint: "top1" 408 572 basechar 0
LayerCount: 2
Fore
SplineSet
76 222 m 0
 76 401 201 532 370 532 c 0
 524 532 628 441 628 294 c 0
 628 115 503 -18 335 -18 c 0
 179 -18 76 77 76 222 c 0
431 288 m 0
 431 339 407 369 365 369 c 0
 313 369 273 308 273 227 c 0
 273 175 298 145 340 145 c 0
 391 145 431 208 431 288 c 0
EndSplineSet
EndChar

StartChar: oe
Encoding: 339 339 282
GlifName: oe
Width: 965
VWidth: 0
GlyphClass: 2
Flags: HW
LayerCount: 2
Fore
SplineSet
471 232 m 0
 471 402 579 523 731 523 c 0
 901 523 1001 413 973 246 c 258
 967 212 l 257
 613 212 l 257
 635 330 l 257
 781 330 l 257
 781 366 756 389 715 389 c 0
 657 389 627 333 627 223 c 0
 627 165 648 138 695 138 c 0
 727 138 749 150 760 175 c 257
 966 175 l 257
 932 53 850 -9 724 -9 c 0
 563 -9 471 79 471 232 c 0
76 222 m 0
 76 401 192 532 349 532 c 0
 490 532 587 441 587 294 c 0
 587 115 470 -18 314 -18 c 0
 171 -18 76 77 76 222 c 0
431 288 m 0
 431 339 407 369 365 369 c 0
 313 369 273 308 273 227 c 0
 273 175 298 145 340 145 c 0
 391 145 431 208 431 288 c 0
EndSplineSet
EndChar

StartChar: ohorn
Encoding: 417 417 284
GlifName: ohorn
Width: 615
VWidth: 0
GlyphClass: 2
Flags: HW
AnchorPoint: "top1" 367 572 basechar 0
AnchorPoint: "bottom1" 307 1 basechar 0
LayerCount: 2
Fore
SplineSet
76 222 m 0
 76 401 201 532 370 532 c 0
 524 532 628 441 628 294 c 0
 628 115 503 -18 335 -18 c 0
 179 -18 76 77 76 222 c 0
431 288 m 0
 431 339 407 369 365 369 c 0
 313 369 273 308 273 227 c 0
 273 175 298 145 340 145 c 0
 391 145 431 208 431 288 c 0
457 506 m 257
 540 506 l 258
 569 506 593 516 601 563 c 258
 613 631 l 257
 756 631 l 257
 743 557 l 258
 723 441 620 406 533 406 c 258
 439 406 l 257
 457 506 l 257
EndSplineSet
EndChar

StartChar: one
Encoding: 49 49 287
GlifName: one
Width: 425
VWidth: 0
GlyphClass: 2
Flags: HW
LayerCount: 2
Fore
SplineSet
303 666 m 257
 497 666 l 257
 380 0 l 257
 185 0 l 257
 254 389 l 257
 94 389 l 257
 124 556 l 257
 202 556 l 258
 255 556 286 572 295 625 c 258
 303 666 l 257
EndSplineSet
Substitution2: "tnumTabularNumbersinLatinlookup11 subtable" one.tabl
Substitution2: "supsSuperscriptinLatinlookup15 subtable" uni00B9
Substitution2: "subsSubscriptinLatinlookup14 subtable" uni2081
Substitution2: "numrNumeratorsinLatinlookup13 subtable" one.numr
Substitution2: "dnomDenominatorsinLatinlookup12 subtable" one.dnom
Substitution2: "cv04CharacterVariants04inLatinlookup19 subtable" uni2460
Substitution2: "cv03CharacterVariants03inLatinlookup18 subtable" uni2776
Substitution2: "cv02CharacterVariants02inLatinlookup17 subtable" one.cv02
Substitution2: "cv01CharacterVariants01inLatinlookup16 subtable" one.cv01
EndChar

StartChar: oslash
Encoding: 248 248 288
GlifName: oslash
Width: 615
VWidth: 0
GlyphClass: 2
Flags: HW
LayerCount: 2
Fore
SplineSet
613 559 m 257
 669 498 l 257
 95 -45 l 257
 39 16 l 257
 613 559 l 257
76 222 m 0
 76 401 201 532 370 532 c 0
 524 532 628 441 628 294 c 0
 628 115 503 -18 335 -18 c 0
 179 -18 76 77 76 222 c 0
441 288 m 0
 441 339 413 369 365 369 c 0
 307 369 263 308 263 227 c 4
 263 175 292 145 340 145 c 0
 397 145 441 208 441 288 c 0
EndSplineSet
EndChar

StartChar: p
Encoding: 112 112 290
GlifName: p
Width: 622
VWidth: 0
GlyphClass: 2
Flags: HW
LayerCount: 2
Fore
SplineSet
136 512 m 257
 332 512 l 257
 209 -167 l 257
 14 -167 l 257
 136 512 l 257
236 188 m 0
 236 376 338 526 466 526 c 0
 572 526 640 433 640 302 c 0
 640 116 534 -17 402 -17 c 0
 299 -17 236 57 236 188 c 0
442 288 m 0
 442 339 418 369 376 369 c 0
 324 369 285 309 285 228 c 0
 285 176 309 146 351 146 c 0
 403 146 442 208 442 288 c 0
EndSplineSet
EndChar

StartChar: parenleft
Encoding: 40 40 291
GlifName: parenleft
Width: 368
VWidth: 0
GlyphClass: 2
Flags: HW
LayerCount: 2
Fore
SplineSet
329 -137 m 261
 134 -137 l 261
 72 -57 45 111 76 284 c 260
 107 457 192 625 282 705 c 261
 478 705 l 261
 376 618 305 468 273 284 c 260
 240 100 257 -50 329 -137 c 261
EndSplineSet
Substitution2: "supsSuperscriptinLatinlookup15 subtable" uni207D
Substitution2: "subsSubscriptinLatinlookup14 subtable" uni208D
EndChar

StartChar: parenright
Encoding: 41 41 292
GlifName: parenright
Width: 368
VWidth: 0
GlyphClass: 2
Flags: HW
LayerCount: 2
Fore
SplineSet
140 705 m 257
 335 705 l 257
 397 625 424 457 393 284 c 256
 362 111 277 -57 187 -137 c 257
 -9 -137 l 257
 93 -50 162 100 195 284 c 256
 227 468 212 618 140 705 c 257
EndSplineSet
Substitution2: "supsSuperscriptinLatinlookup15 subtable" uni207E
Substitution2: "subsSubscriptinLatinlookup14 subtable" uni208E
EndChar

StartChar: percent
Encoding: 37 37 293
GlifName: percent
Width: 1055
VWidth: 0
GlyphClass: 2
Flags: HW
LayerCount: 2
Fore
SplineSet
664 164 m 0
 664 304 758 408 884 408 c 0
 998 408 1072 336 1072 225 c 0
 1072 85 978 -20 852 -20 c 0
 738 -20 664 52 664 164 c 0
927 222 m 0
 927 262 910 285 880 285 c 0
 840 285 810 234 810 166 c 0
 810 126 827 102 857 102 c 0
 896 102 927 155 927 222 c 0
698 666 m 257
 862 666 l 257
 475 0 l 257
 311 0 l 257
 698 666 l 257
100 442 m 0
 100 582 195 686 321 686 c 0
 435 686 509 615 509 504 c 0
 509 364 415 258 289 258 c 0
 175 258 100 330 100 442 c 0
364 501 m 0
 364 541 346 563 316 563 c 0
 276 563 247 512 247 444 c 0
 247 404 264 381 294 381 c 0
 333 381 364 434 364 501 c 0
EndSplineSet
EndChar

StartChar: period
Encoding: 46 46 294
GlifName: period
Width: 282
VWidth: 0
GlyphClass: 2
Flags: HW
LayerCount: 2
Fore
SplineSet
72 202 m 257
 281 202 l 257
 246 0 l 257
 37 0 l 257
 72 202 l 257
EndSplineSet
Substitution2: "ss03StyleSet3inLatinlookup2 subtable" period.ss03
Substitution2: "tnumTabularNumbersinLatinlookup11 subtable" period.tabl
EndChar

StartChar: period.ss03
Encoding: 65589 -1 295
GlifName: period.ss03
Width: 282
VWidth: 0
GlyphClass: 2
Flags: HW
LayerCount: 2
Fore
SplineSet
46 99 m 260
 46 160 96 210 157 210 c 260
 218 210 267 160 267 99 c 260
 267 38 218 -11 157 -11 c 260
 96 -11 46 38 46 99 c 260
EndSplineSet
Substitution2: "tnumTabularNumbersinLatinlookup11 subtable" period.ss03.tabl
EndChar

StartChar: periodcentered
Encoding: 183 183 296
GlifName: periodcentered
Width: 282
VWidth: 0
GlyphClass: 2
Flags: HW
LayerCount: 2
Fore
SplineSet
116 447 m 261
 325 447 l 261
 289 246 l 261
 80 246 l 261
 116 447 l 261
EndSplineSet
Substitution2: "ss03StyleSet3inLatinlookup2 subtable" periodcentered.ss03
EndChar

StartChar: periodcentered.ss03
Encoding: 65590 -1 297
GlifName: periodcentered.ss03
Width: 282
VWidth: 0
GlyphClass: 2
Flags: HW
LayerCount: 2
Fore
SplineSet
92 355 m 260
 92 416 142 466 203 466 c 260
 264 466 313 416 313 355 c 260
 313 294 264 245 203 245 c 260
 142 245 92 294 92 355 c 260
EndSplineSet
EndChar

StartChar: perthousand
Encoding: 8240 8240 298
GlifName: perthousand
Width: 1495
VWidth: 0
GlyphClass: 2
Flags: HW
LayerCount: 2
Fore
SplineSet
1057 195 m 256
 1057 323 1138 408 1260 408 c 256
 1381 408 1461 323 1461 195 c 256
 1461 66 1381 -20 1260 -20 c 256
 1138 -20 1057 66 1057 195 c 256
1315 195 m 256
 1315 252 1295 285 1260 285 c 256
 1224 285 1203 252 1203 195 c 256
 1203 137 1224 102 1260 102 c 256
 1295 102 1315 137 1315 195 c 256
617 195 m 256
 617 323 698 408 820 408 c 256
 941 408 1022 323 1022 195 c 256
 1022 66 941 -20 820 -20 c 256
 698 -20 617 66 617 195 c 256
876 195 m 256
 876 252 855 285 820 285 c 256
 784 285 764 252 764 195 c 256
 764 137 784 102 820 102 c 256
 855 102 876 137 876 195 c 256
583 666 m 257
 746 666 l 257
 476 0 l 257
 312 0 l 257
 583 666 l 257
34 473 m 256
 34 601 115 686 237 686 c 256
 358 686 438 601 438 473 c 256
 438 344 358 258 237 258 c 256
 115 258 34 344 34 473 c 256
292 473 m 256
 292 530 272 563 237 563 c 256
 201 563 180 530 180 473 c 256
 180 415 201 381 237 381 c 256
 272 381 292 415 292 473 c 256
EndSplineSet
EndChar

StartChar: plus
Encoding: 43 43 299
GlifName: plus
Width: 602
VWidth: 0
GlyphClass: 2
Flags: HW
LayerCount: 2
Fore
SplineSet
459 410 m 261
 649 410 l 261
 618 238 l 261
 429 238 l 261
 396 48 l 261
 224 48 l 261
 257 238 l 261
 67 238 l 261
 98 410 l 261
 287 410 l 261
 321 599 l 261
 493 599 l 261
 459 410 l 261
EndSplineSet
Substitution2: "tnumTabularNumbersinLatinlookup11 subtable" plus.tabl
Substitution2: "supsSuperscriptinLatinlookup15 subtable" uni207A
Substitution2: "subsSubscriptinLatinlookup14 subtable" uni208A
EndChar

StartChar: q
Encoding: 113 113 300
GlifName: q
Width: 622
VWidth: 0
GlyphClass: 2
Flags: HW
LayerCount: 2
Fore
SplineSet
671 512 m 257
 476 512 l 257
 356 -167 l 257
 551 -167 l 257
 671 512 l 257
477 321 m 4
 477 458 417 539 316 539 c 0
 181 539 74 393 74 211 c 0
 74 74 137 -11 237 -11 c 0
 370 -11 477 138 477 321 c 4
272 233 m 0
 272 311 314 369 369 369 c 0
 409 369 430 338 430 281 c 0
 430 203 390 145 335 145 c 0
 295 145 272 176 272 233 c 0
EndSplineSet
EndChar

StartChar: question
Encoding: 63 63 301
GlifName: question
Width: 601
VWidth: 0
GlyphClass: 2
Flags: HW
LayerCount: 2
Fore
SplineSet
244 205 m 261
 274 308 333 348 381 381 c 4
 420 408 451 428 451 476 c 4
 451 505 430 522 396 522 c 260
 354 522 322 492 312 444 c 261
 115 444 l 261
 149 580 269 674 411 674 c 260
 559 674 650 605 650 500 c 4
 650 409 609 363 562 327 c 4
 513 289 457 262 438 205 c 261
 244 205 l 261
410 0 m 257
 201 0 l 257
 227 151 l 257
 436 151 l 257
 410 0 l 257
EndSplineSet
Substitution2: "ss03StyleSet3inLatinlookup2 subtable" question.ss03
EndChar

StartChar: question.ss03
Encoding: 65591 -1 302
GlifName: question.ss03
Width: 601
VWidth: 0
GlyphClass: 2
Flags: HW
LayerCount: 2
Fore
SplineSet
205 89 m 256
 205 144 254 189 315 189 c 256
 376 189 426 144 426 89 c 256
 426 34 376 -11 315 -11 c 256
 254 -11 205 34 205 89 c 256
244 225 m 257
 274 316 335 349 381 381 c 0
 420 408 451 428 451 476 c 0
 451 505 430 522 396 522 c 256
 354 522 322 492 312 444 c 257
 115 444 l 257
 149 580 269 674 411 674 c 256
 559 674 650 605 650 500 c 0
 650 409 612 359 562 327 c 0
 513 295 457 273 438 225 c 257
 244 225 l 257
EndSplineSet
EndChar

StartChar: questiondown
Encoding: 191 191 303
GlifName: questiondown
Width: 601
VWidth: 0
GlyphClass: 2
Flags: HW
LayerCount: 2
Fore
SplineSet
451 307 m 257
 421 204 361 164 313 131 c 0
 274 104 244 84 244 36 c 0
 244 7 264 -10 298 -10 c 256
 340 -10 372 20 382 68 c 257
 580 68 l 257
 546 -68 426 -162 284 -162 c 256
 136 -162 44 -93 44 12 c 0
 44 103 85 149 132 185 c 0
 181 223 237 250 256 307 c 257
 451 307 l 257
285 512 m 257
 494 512 l 257
 467 361 l 257
 258 361 l 257
 285 512 l 257
EndSplineSet
Substitution2: "ss03StyleSet3inLatinlookup2 subtable" questiondown.ss03
EndChar

StartChar: questiondown.ss03
Encoding: 65592 -1 304
GlifName: questiondown.ss03
Width: 601
VWidth: 0
GlyphClass: 2
Flags: HW
LayerCount: 2
Fore
SplineSet
486 422 m 256
 486 367 437 322 376 322 c 256
 315 322 265 367 265 422 c 256
 265 477 315 522 376 522 c 256
 437 522 486 477 486 422 c 256
447 286 m 257
 417 195 356 162 310 130 c 0
 271 103 241 83 241 35 c 0
 241 6 261 -11 295 -11 c 256
 337 -11 369 19 379 67 c 257
 577 67 l 257
 543 -69 423 -163 281 -163 c 256
 133 -163 41 -94 41 11 c 0
 41 102 79 152 129 184 c 0
 178 216 234 238 253 286 c 257
 447 286 l 257
EndSplineSet
EndChar

StartChar: quotedbl
Encoding: 34 34 305
GlifName: quotedbl
Width: 503
VWidth: 0
GlyphClass: 2
Flags: HW
LayerCount: 2
Fore
SplineSet
410 717 m 257
 584 717 l 257
 509 410 l 257
 356 410 l 257
 410 717 l 257
172 717 m 257
 347 717 l 257
 272 410 l 257
 118 410 l 257
 172 717 l 257
EndSplineSet
EndChar

StartChar: quotedblbase
Encoding: 8222 8222 306
GlifName: quotedblbase
Width: 564
VWidth: 0
GlyphClass: 2
Flags: HW
LayerCount: 2
Fore
SplineSet
72 202 m 257
 281 202 l 257
 246 0 l 257
 132 -189 l 257
 -2 -189 l 257
 160 0 l 257
 37 0 l 257
 72 202 l 257
355 202 m 257
 564 202 l 257
 528 0 l 257
 415 -189 l 257
 281 -189 l 257
 442 0 l 257
 319 0 l 257
 355 202 l 257
EndSplineSet
Substitution2: "ss03StyleSet3inLatinlookup2 subtable" quotedblbase.ss03
EndChar

StartChar: quotedblbase.ss03
Encoding: 65593 -1 307
GlifName: quotedblbase.ss03
Width: 564
VWidth: 0
GlyphClass: 2
Flags: HW
LayerCount: 2
Fore
SplineSet
50 111 m 256
 61 172 119 221 180 221 c 256
 241 221 282 172 271 111 c 258
 249 -14 l 258
 232 -111 166 -168 70 -168 c 258
 16 -168 l 257
 32 -78 l 257
 54 -78 l 258
 117 -78 149 -56 158 -8 c 258
 160 1 l 257
 154 0 147 0 141 0 c 256
 80 0 39 50 50 111 c 256
332 111 m 256
 343 172 401 221 462 221 c 256
 523 221 564 172 553 111 c 258
 531 -14 l 258
 514 -111 447 -168 351 -168 c 258
 298 -168 l 257
 314 -78 l 257
 335 -78 l 258
 398 -78 431 -56 440 -8 c 258
 442 1 l 257
 436 0 429 0 423 0 c 256
 362 0 321 50 332 111 c 256
EndSplineSet
EndChar

StartChar: quotedblleft
Encoding: 8220 8220 308
GlifName: quotedblleft
Width: 564
VWidth: 0
GlyphClass: 2
Flags: HW
LayerCount: 2
Fore
SplineSet
581 326 m 257
 372 326 l 257
 407 527 l 257
 521 717 l 257
 655 717 l 257
 493 527 l 257
 616 527 l 257
 581 326 l 257
298 326 m 257
 89 326 l 257
 125 527 l 257
 238 717 l 257
 372 717 l 257
 211 527 l 257
 334 527 l 257
 298 326 l 257
EndSplineSet
Substitution2: "ss03StyleSet3inLatinlookup2 subtable" quotedblleft.ss03
EndChar

StartChar: quotedblleft.ss03
Encoding: 65594 -1 309
GlifName: quotedblleft.ss03
Width: 564
VWidth: 0
GlyphClass: 2
Flags: HW
LayerCount: 2
Fore
SplineSet
611 438 m 256
 600 377 542 328 481 328 c 256
 420 328 379 377 390 438 c 258
 412 563 l 258
 429 660 495 717 591 717 c 258
 645 717 l 257
 629 627 l 257
 607 627 l 258
 544 627 512 605 503 557 c 258
 501 548 l 257
 507 549 514 549 520 549 c 256
 581 549 622 499 611 438 c 256
329 438 m 256
 318 377 260 328 199 328 c 256
 138 328 97 377 108 438 c 258
 130 563 l 258
 147 660 214 717 310 717 c 258
 363 717 l 257
 347 627 l 257
 326 627 l 258
 263 627 230 605 221 557 c 258
 219 548 l 257
 225 549 232 549 238 549 c 256
 299 549 340 499 329 438 c 256
EndSplineSet
EndChar

StartChar: quotedblright
Encoding: 8221 8221 310
GlifName: quotedblright
Width: 564
VWidth: 0
GlyphClass: 2
Flags: HW
LayerCount: 2
Fore
SplineSet
163 717 m 257
 372 717 l 257
 337 515 l 257
 223 326 l 257
 89 326 l 257
 251 515 l 257
 128 515 l 257
 163 717 l 257
446 717 m 257
 655 717 l 257
 619 515 l 257
 506 326 l 257
 372 326 l 257
 533 515 l 257
 410 515 l 257
 446 717 l 257
EndSplineSet
Substitution2: "ss03StyleSet3inLatinlookup2 subtable" quotedblright.ss03
EndChar

StartChar: quotedblright.ss03
Encoding: 65595 -1 311
GlifName: quotedblright.ss03
Width: 564
VWidth: 0
GlyphClass: 2
Flags: HW
LayerCount: 2
Fore
SplineSet
138 606 m 256
 149 667 207 717 268 717 c 256
 329 717 370 667 359 606 c 258
 337 481 l 258
 320 384 253 328 157 328 c 258
 104 328 l 257
 120 418 l 257
 141 418 l 258
 204 418 237 439 246 487 c 258
 247 497 l 257
 241 496 235 496 229 496 c 256
 168 496 127 545 138 606 c 256
419 606 m 256
 430 667 488 717 549 717 c 256
 610 717 651 667 640 606 c 258
 618 481 l 258
 601 384 535 328 439 328 c 258
 385 328 l 257
 401 418 l 257
 423 418 l 258
 486 418 518 439 527 487 c 258
 529 497 l 257
 523 496 516 496 510 496 c 256
 449 496 408 545 419 606 c 256
EndSplineSet
EndChar

StartChar: quoteleft
Encoding: 8216 8216 312
GlifName: quoteleft
Width: 282
VWidth: 0
GlyphClass: 2
Flags: HW
LayerCount: 2
Fore
SplineSet
298 326 m 257
 89 326 l 257
 125 527 l 257
 238 717 l 257
 372 717 l 257
 211 527 l 257
 334 527 l 257
 298 326 l 257
EndSplineSet
Substitution2: "ss03StyleSet3inLatinlookup2 subtable" quoteleft.ss03
EndChar

StartChar: quoteleft.ss03
Encoding: 65596 -1 313
GlifName: quoteleft.ss03
Width: 282
VWidth: 0
GlyphClass: 2
Flags: HW
LayerCount: 2
Fore
SplineSet
329 438 m 256
 318 377 260 328 199 328 c 256
 138 328 97 377 108 438 c 258
 130 563 l 258
 147 660 214 717 310 717 c 258
 363 717 l 257
 347 627 l 257
 326 627 l 258
 263 627 230 605 221 557 c 258
 219 548 l 257
 225 549 232 549 238 549 c 256
 299 549 340 499 329 438 c 256
EndSplineSet
EndChar

StartChar: quotereversed
Encoding: 8219 8219 314
GlifName: quotereversed
Width: 282
VWidth: 0
GlyphClass: 2
Flags: HW
LayerCount: 2
Fore
SplineSet
367 717 m 257
 331 515 l 257
 209 515 l 257
 303 326 l 257
 169 326 l 257
 123 515 l 257
 158 717 l 257
 367 717 l 257
EndSplineSet
Substitution2: "ss03StyleSet3inLatinlookup2 subtable" quotereversed.ss03
EndChar

StartChar: quotereversed.ss03
Encoding: 65597 -1 315
GlifName: quotereversed.ss03
Width: 282
VWidth: 0
GlyphClass: 2
Flags: HW
LayerCount: 2
Fore
SplineSet
359 606 m 256
 348 545 290 496 229 496 c 256
 223 496 216 496 210 497 c 257
 209 487 l 258
 200 439 226 418 289 418 c 258
 310 418 l 257
 294 328 l 257
 241 328 l 258
 145 328 99 384 116 481 c 258
 138 606 l 258
 149 667 207 717 268 717 c 256
 329 717 370 667 359 606 c 256
EndSplineSet
EndChar

StartChar: quoteright
Encoding: 8217 8217 316
GlifName: quoteright
Width: 282
VWidth: 0
GlyphClass: 2
Flags: HW
LayerCount: 2
Fore
SplineSet
163 717 m 257
 372 717 l 257
 337 515 l 257
 223 326 l 257
 89 326 l 257
 251 515 l 257
 128 515 l 257
 163 717 l 257
EndSplineSet
Substitution2: "ss03StyleSet3inLatinlookup2 subtable" quoteright.ss03
EndChar

StartChar: quoteright.ss03
Encoding: 65598 -1 317
GlifName: quoteright.ss03
Width: 282
VWidth: 0
GlyphClass: 2
Flags: HW
LayerCount: 2
Fore
SplineSet
138 606 m 256
 149 667 207 717 268 717 c 256
 329 717 370 667 359 606 c 258
 337 481 l 258
 320 384 253 328 157 328 c 258
 104 328 l 257
 120 418 l 257
 141 418 l 258
 204 418 237 439 246 487 c 258
 247 497 l 257
 241 496 235 496 229 496 c 256
 168 496 127 545 138 606 c 256
EndSplineSet
EndChar

StartChar: quotesinglbase
Encoding: 8218 8218 318
GlifName: quotesinglbase
Width: 282
VWidth: 0
GlyphClass: 2
Flags: HW
LayerCount: 2
Fore
SplineSet
72 202 m 257
 281 202 l 257
 246 0 l 257
 132 -189 l 257
 -2 -189 l 257
 160 0 l 257
 37 0 l 257
 72 202 l 257
EndSplineSet
Substitution2: "ss03StyleSet3inLatinlookup2 subtable" quotesinglbase.ss03
EndChar

StartChar: quotesinglbase.ss03
Encoding: 65599 -1 319
GlifName: quotesinglbase.ss03
Width: 282
VWidth: 0
GlyphClass: 2
Flags: HW
LayerCount: 2
Fore
SplineSet
50 112 m 256
 61 173 119 222 180 222 c 256
 241 222 283 173 272 112 c 258
 250 -13 l 258
 233 -110 166 -167 70 -167 c 258
 17 -167 l 257
 33 -77 l 257
 54 -77 l 258
 117 -77 149 -55 158 -7 c 258
 160 2 l 257
 154 1 147 1 141 1 c 256
 80 1 39 51 50 112 c 256
EndSplineSet
EndChar

StartChar: quotesingle
Encoding: 39 39 320
GlifName: quotesingle
Width: 266
VWidth: 0
GlyphClass: 2
Flags: HW
LayerCount: 2
Fore
SplineSet
172 717 m 257
 347 717 l 257
 272 410 l 257
 118 410 l 257
 172 717 l 257
EndSplineSet
EndChar

StartChar: r
Encoding: 114 114 321
GlifName: r
Width: 440
VWidth: 0
GlyphClass: 2
Flags: HW
AnchorPoint: "bottom1" 146 0 basechar 0
AnchorPoint: "top1" 360 573 basechar 0
LayerCount: 2
Fore
SplineSet
465 324 m 257
 425 324 l 258
 353 324 290 290 282 242 c 257
 243 248 l 257
 273 418 379 522 459 522 c 258
 500 522 l 257
 465 324 l 257
135 512 m 257
 330 512 l 257
 240 0 l 257
 45 0 l 257
 135 512 l 257
EndSplineSet
EndChar

StartChar: s
Encoding: 115 115 324
GlifName: s
Width: 579
VWidth: 0
GlyphClass: 2
Flags: HW
AnchorPoint: "bottom1" 302 0 basechar 0
AnchorPoint: "top1" 381 572 basechar 0
LayerCount: 2
Fore
SplineSet
354 172 m 258
 250 191 l 258
 153 209 98 266 98 348 c 0
 98 465 183 531 331 531 c 0
 500 531 592 469 592 354 c 257
 407 354 l 257
 407 382 382 399 342 399 c 0
 313 399 297 387 297 365 c 0
 297 352 306 344 321 341 c 258
 435 321 l 258
 527 304 572 254 572 171 c 0
 572 47 493 -17 338 -17 c 0
 166 -17 61 50 61 162 c 257
 258 162 l 257
 258 130 286 111 330 111 c 0
 363 111 382 123 382 145 c 0
 382 158 372 168 354 172 c 258
EndSplineSet
EndChar

StartChar: second
Encoding: 8243 8243 329
GlifName: second
Width: 660
VWidth: -51
GlyphClass: 2
Flags: HW
LayerCount: 2
Fore
SplineSet
753 666 m 257
 523 461 l 257
 369 461 l 257
 538 666 l 257
 753 666 l 257
491 666 m 257
 260 461 l 257
 107 461 l 257
 276 666 l 257
 491 666 l 257
EndSplineSet
EndChar

StartChar: semicolon
Encoding: 59 59 330
GlifName: semicolon
Width: 282
VWidth: 0
GlyphClass: 2
Flags: HW
LayerCount: 2
Fore
SplineSet
127 511 m 257
 336 511 l 257
 300 309 l 257
 91 309 l 257
 127 511 l 257
72 202 m 257
 281 202 l 257
 246 0 l 257
 132 -189 l 257
 -2 -189 l 257
 160 0 l 257
 37 0 l 257
 72 202 l 257
EndSplineSet
Substitution2: "ss03StyleSet3inLatinlookup2 subtable" semicolon.ss03
EndChar

StartChar: semicolon.ss03
Encoding: 65600 -1 331
GlifName: semicolon.ss03
Width: 282
VWidth: 0
GlyphClass: 2
Flags: HW
LayerCount: 2
Fore
SplineSet
105 414 m 256
 105 475 155 524 216 524 c 256
 277 524 327 475 327 414 c 256
 327 353 277 303 216 303 c 256
 155 303 105 353 105 414 c 256
36 99 m 256
 36 160 85 210 146 210 c 256
 207 210 257 160 257 99 c 258
 257 -26 l 258
 257 -115 200 -167 104 -167 c 258
 51 -167 l 257
 51 -77 l 257
 73 -77 l 258
 136 -77 165 -59 165 -19 c 258
 165 -10 l 257
 159 -11 152 -11 146 -11 c 256
 85 -11 36 38 36 99 c 256
EndSplineSet
EndChar

StartChar: seven
Encoding: 55 55 332
GlifName: seven
Width: 595
VWidth: 0
GlyphClass: 2
Flags: HW
LayerCount: 2
Fore
SplineSet
367 0 m 261
 405 218 480 364 644 473 c 261
 677 666 l 261
 153 666 l 261
 121 483 l 261
 429 483 l 261
 295 381 179 255 134 0 c 261
 367 0 l 261
EndSplineSet
Substitution2: "tnumTabularNumbersinLatinlookup11 subtable" seven.tabl
Substitution2: "supsSuperscriptinLatinlookup15 subtable" uni2077
Substitution2: "subsSubscriptinLatinlookup14 subtable" uni2087
Substitution2: "numrNumeratorsinLatinlookup13 subtable" seven.numr
Substitution2: "dnomDenominatorsinLatinlookup12 subtable" seven.dnom
Substitution2: "cv04CharacterVariants04inLatinlookup19 subtable" uni2466
Substitution2: "cv03CharacterVariants03inLatinlookup18 subtable" uni277C
Substitution2: "cv02CharacterVariants02inLatinlookup17 subtable" seven.cv02
Substitution2: "cv01CharacterVariants01inLatinlookup16 subtable" seven.cv01
EndChar

StartChar: six
Encoding: 54 54 333
GlifName: six
Width: 631
VWidth: 0
GlyphClass: 2
Flags: HW
LayerCount: 2
Fore
SplineSet
88 251 m 4
 88 508 233 676 433 676 c 260
 584 676 672 603 672 480 c 261
 475 480 l 261
 475 513 456 532 424 532 c 260
 366 532 316 469 299 374 c 260
 298 368 298 364 297 361 c 261
 330 407 396 436 465 436 c 260
 569 436 639 363 639 254 c 4
 639 107 525 -8 353 -8 c 260
 186 -8 88 88 88 251 c 4
293 199 m 4
 293 161 317 136 354 136 c 260
 401 136 438 179 438 233 c 4
 438 270 416 292 379 292 c 260
 330 292 293 251 293 199 c 4
EndSplineSet
Substitution2: "tnumTabularNumbersinLatinlookup11 subtable" six.tabl
Substitution2: "supsSuperscriptinLatinlookup15 subtable" uni2076
Substitution2: "subsSubscriptinLatinlookup14 subtable" uni2086
Substitution2: "numrNumeratorsinLatinlookup13 subtable" six.numr
Substitution2: "dnomDenominatorsinLatinlookup12 subtable" six.dnom
Substitution2: "cv04CharacterVariants04inLatinlookup19 subtable" uni2465
Substitution2: "cv03CharacterVariants03inLatinlookup18 subtable" uni277B
Substitution2: "cv02CharacterVariants02inLatinlookup17 subtable" six.cv02
Substitution2: "cv01CharacterVariants01inLatinlookup16 subtable" six.cv01
EndChar

StartChar: slash
Encoding: 47 47 334
GlifName: slash
Width: 512
VWidth: 0
GlyphClass: 2
Flags: HW
LayerCount: 2
Fore
SplineSet
370 666 m 257
 596 666 l 257
 259 0 l 261
 34 0 l 257
 370 666 l 257
EndSplineSet
Substitution2: "tnumTabularNumbersinLatinlookup11 subtable" slash.tabl
EndChar

StartChar: t
Encoding: 116 116 336
GlifName: t
Width: 387
VWidth: 0
GlyphClass: 2
Flags: HW
HStem: 0 22G<236 364> 360 152<24 364>
VStem: 96 195<166 645>
AnchorPoint: "top2" 421 541 basechar 0
AnchorPoint: "bottom1" 303 0 basechar 0
LayerCount: 2
Fore
SplineSet
114 512 m 257
 454 512 l 257
 427 360 l 257
 87 360 l 257
 114 512 l 257
391 162 m 257
 362 0 l 257
 299 0 l 258
 171 0 108 67 128 182 c 258
 210 645 l 257
 404 645 l 257
 327 209 l 258
 321 176 330 162 359 162 c 258
 391 162 l 257
EndSplineSet
Substitution2: "ss08StyleSet8inLatinlookup7 subtable" t.ss08
EndChar

StartChar: t.ss08
Encoding: 65601 -1 337
GlifName: t.ss08
Width: 387
VWidth: 0
GlyphClass: 2
Flags: HW
HStem: 0 22G<96 291> 360 152<24 364>
VStem: 96 195<0 645>
AnchorPoint: "bottom1" 199 0 basechar 0
AnchorPoint: "top2" 421 541 basechar 0
LayerCount: 2
Fore
SplineSet
114 512 m 261
 454 512 l 261
 427 360 l 261
 87 360 l 261
 114 512 l 261
96 0 m 261
 210 645 l 261
 405 645 l 261
 291 0 l 261
 96 0 l 261
EndSplineSet
EndChar

StartChar: tbar
Encoding: 359 359 338
GlifName: tbar
Width: 387
VWidth: 0
GlyphClass: 2
Flags: HW
LayerCount: 2
Fore
SplineSet
80 321 m 261
 420 321 l 261
 402 220 l 261
 62 220 l 261
 80 321 l 261
114 512 m 257
 454 512 l 257
 429 371 l 257
 89 371 l 257
 114 512 l 257
392 162 m 257
 364 0 l 257
 300 0 l 258
 172 0 108 67 128 182 c 258
 210 645 l 257
 405 645 l 257
 326 199 l 258
 321 173 331 162 360 162 c 258
 392 162 l 257
EndSplineSet
Substitution2: "ss08StyleSet8inLatinlookup7 subtable" tbar.ss08
EndChar

StartChar: thorn
Encoding: 254 254 340
GlifName: thorn
Width: 622
VWidth: 0
GlyphClass: 2
Flags: HW
LayerCount: 2
Fore
SplineSet
171 717 m 257
 367 717 l 257
 212 -167 l 257
 17 -167 l 257
 171 717 l 257
237 187 m 0
 237 375 339 526 466 526 c 0
 569 526 640 435 640 301 c 0
 640 120 538 -16 402 -16 c 0
 298 -16 237 59 237 187 c 0
442 288 m 0
 442 339 418 369 376 369 c 0
 324 369 285 308 285 227 c 0
 285 176 309 146 351 146 c 0
 402 146 442 208 442 288 c 0
EndSplineSet
EndChar

StartChar: three
Encoding: 51 51 341
GlifName: three
Width: 611
VWidth: 0
GlyphClass: 2
Flags: HW
LayerCount: 2
Fore
SplineSet
456 406 m 257
 431 266 l 257
 299 266 l 257
 324 406 l 257
 456 406 l 257
375 297 m 257
 394 406 l 257
 438 406 450 447 450 472 c 0
 450 503 431 521 398 521 c 256
 360 521 332 497 324 456 c 257
 126 456 l 261
 164 608 277 674 421 674 c 256
 559 674 649 601 649 496 c 0
 649 393 558 297 375 297 c 257
389 375 m 257
 527 375 610 310 610 209 c 0
 610 94 501 -8 333 -8 c 256
 172 -8 74 76 74 215 c 257
 271 215 l 257
 271 170 294 146 337 146 c 256
 399 146 417 196 417 225 c 0
 417 252 401 266 370 266 c 257
 389 375 l 257
EndSplineSet
Substitution2: "tnumTabularNumbersinLatinlookup11 subtable" three.tabl
Substitution2: "supsSuperscriptinLatinlookup15 subtable" uni00B3
Substitution2: "subsSubscriptinLatinlookup14 subtable" uni2083
Substitution2: "numrNumeratorsinLatinlookup13 subtable" three.numr
Substitution2: "dnomDenominatorsinLatinlookup12 subtable" three.dnom
Substitution2: "cv04CharacterVariants04inLatinlookup19 subtable" uni2462
Substitution2: "cv03CharacterVariants03inLatinlookup18 subtable" uni2778
Substitution2: "cv02CharacterVariants02inLatinlookup17 subtable" three.cv02
Substitution2: "cv01CharacterVariants01inLatinlookup16 subtable" three.cv01
EndChar

StartChar: tildecomb
Encoding: 771 771 342
GlifName: tildecomb
Width: 307
VWidth: 0
GlyphClass: 4
Flags: HW
AnchorPoint: "top1" 250 512 mark 0
LayerCount: 2
Fore
SplineSet
170 707 m 256
 226 707 253 687 280 671 c 256
 298 661 313 651 337 651 c 256
 374 651 399 669 404 700 c 257
 510 700 l 257
 488 577 421 508 325 508 c 256
 280 508 255 524 234 538 c 256
 215 551 199 563 174 563 c 256
 144 563 121 543 116 512 c 257
 8 512 l 257
 31 640 87 707 170 707 c 256
EndSplineSet
EndChar

StartChar: two
Encoding: 50 50 343
GlifName: two
Width: 601
VWidth: 0
GlyphClass: 2
Flags: HW
LayerCount: 2
Fore
SplineSet
310 171 m 257
 594 171 l 257
 564 0 l 257
 38 0 l 257
 44 35 l 258
 88 286 231 344 334 379 c 0
 400 402 450 421 450 463 c 0
 450 496 428 513 388 513 c 0
 349 513 321 495 313 456 c 257
 114 456 l 257
 147 586 259 674 389 674 c 0
 542 674 647 589 647 470 c 0
 647 341 559 288 473 254 c 0
 399 224 325 209 310 171 c 257
EndSplineSet
Substitution2: "tnumTabularNumbersinLatinlookup11 subtable" two.tabl
Substitution2: "supsSuperscriptinLatinlookup15 subtable" uni00B2
Substitution2: "subsSubscriptinLatinlookup14 subtable" uni2082
Substitution2: "numrNumeratorsinLatinlookup13 subtable" two.numr
Substitution2: "dnomDenominatorsinLatinlookup12 subtable" two.dnom
Substitution2: "cv04CharacterVariants04inLatinlookup19 subtable" uni2461
Substitution2: "cv03CharacterVariants03inLatinlookup18 subtable" uni2777
Substitution2: "cv02CharacterVariants02inLatinlookup17 subtable" two.cv02
Substitution2: "cv01CharacterVariants01inLatinlookup16 subtable" two.cv01
EndChar

StartChar: u
Encoding: 117 117 344
GlifName: u
Width: 610
VWidth: 0
GlyphClass: 2
Flags: HW
AnchorPoint: "top3" 464 512 basechar 0
AnchorPoint: "bottom1" 315 0 basechar 0
AnchorPoint: "bottom2" 569 0 basechar 0
AnchorPoint: "top1" 397 573 basechar 0
LayerCount: 2
Fore
SplineSet
281 236 m 258
 272 181 289 154 334 154 c 256
 375 154 406 182 413 230 c 257
 452 221 l 257
 425 65 314 -12 222 -12 c 256
 114 -12 60 102 79 212 c 258
 132 512 l 257
 328 512 l 257
 281 236 l 258
567 0 m 257
 372 0 l 257
 462 512 l 257
 656 512 l 257
 567 0 l 257
EndSplineSet
Substitution2: "ss10StyleSet10inLatinlookup9 subtable" u.ss10
EndChar

StartChar: u.ss10
Encoding: 65602 -1 345
GlifName: u.ss10
Width: 610
VWidth: 0
GlyphClass: 2
Flags: HW
HStem: -8 184<257 352> 492 20G<44 239 372 566>
VStem: 44 195<194 512> 372 195<194 512>
AnchorPoint: "bottom2" 372 0 basechar 0
AnchorPoint: "top3" 461 512 basechar 0
AnchorPoint: "top1" 401 573 basechar 0
AnchorPoint: "bottom1" 311 0 basechar 0
LayerCount: 2
Fore
SplineSet
131 512 m 257
 328 512 l 257
 284 264 l 258
 274 210 297 176 343 176 c 0
 381 176 406 203 415 252 c 258
 461 512 l 257
 656 512 l 257
 607 236 l 258
 581 88 474 -8 333 -8 c 0
 163 -8 62 112 91 281 c 258
 131 512 l 257
EndSplineSet
EndChar

StartChar: underscore
Encoding: 95 95 355
GlifName: underscore
Width: 655
VWidth: 0
GlyphClass: 2
Flags: HW
LayerCount: 2
Fore
SplineSet
26 0 m 257
 630 0 l 257
 606 -137 l 257
 1 -137 l 257
 26 0 l 257
EndSplineSet
EndChar

StartChar: uni0237
Encoding: 567 567 378
GlifName: uni0237
Width: 282
VWidth: 0
GlyphClass: 2
Flags: HW
HStem: 492 20<44 239 239 239>
VStem: 44 195<4 512>
AnchorPoint: "top1" 247 573 basechar 0
LayerCount: 2
Fore
SplineSet
-34 -33 m 257
 -3 -33 l 258
 26 -33 40 -22 45 4 c 258
 134 512 l 257
 329 512 l 257
 238 -2 l 258
 213 -142 149 -205 29 -205 c 258
 -65 -205 l 257
 -34 -33 l 257
EndSplineSet
PickledDataWithLists: "(dp0
Vcom.fontlab.hintData\\u000d\\u000d\\u000d\\u000d\\u000d\\u000d\\u000d\\u000d\\u000d\\u000d\\u000d\\u000d\\u000d\\u000d\\u000d\\u000d\\u000d\\u000d\\u000d\\u000d\\u000d\\u000d\\u000d\\u000d
p1
(dp2
Vhhints\\u000d\\u000d\\u000d\\u000d\\u000d\\u000d\\u000d\\u000d\\u000d\\u000d\\u000d\\u000d\\u000d\\u000d\\u000d\\u000d\\u000d\\u000d\\u000d\\u000d\\u000d\\u000d\\u000d\\u000d
p3
(lp4
(dp5
Vposition\\u000d\\u000d\\u000d\\u000d\\u000d\\u000d\\u000d\\u000d\\u000d\\u000d\\u000d\\u000d\\u000d\\u000d\\u000d\\u000d\\u000d\\u000d\\u000d\\u000d\\u000d\\u000d\\u000d\\u000d
p6
I480
sVwidth\\u000d\\u000d\\u000d\\u000d\\u000d\\u000d\\u000d\\u000d\\u000d\\u000d\\u000d\\u000d\\u000d\\u000d\\u000d\\u000d\\u000d\\u000d\\u000d\\u000d\\u000d\\u000d\\u000d\\u000d
p7
I20
sasVvhints\\u000d\\u000d\\u000d\\u000d\\u000d\\u000d\\u000d\\u000d\\u000d\\u000d\\u000d\\u000d\\u000d\\u000d\\u000d\\u000d\\u000d\\u000d\\u000d\\u000d\\u000d\\u000d\\u000d\\u000d
p8
(lp9
(dp10
g6
I43
sg7
I190
sass."
EndChar

StartChar: uni02BC
Encoding: 700 700 379
GlifName: uni02B_C_
Width: 238
VWidth: 0
GlyphClass: 2
Flags: HW
LayerCount: 2
Fore
SplineSet
156 717 m 257
 365 717 l 257
 324 482 l 258
 309 399 244 351 148 351 c 258
 95 351 l 257
 111 441 l 257
 132 441 l 258
 195 441 227 455 233 488 c 258
 237 515 l 257
 121 515 l 257
 156 717 l 257
EndSplineSet
EndChar

StartChar: uni0302
Encoding: 770 770 380
GlifName: uni0302
Width: 307
VWidth: 0
GlyphClass: 4
Flags: HW
AnchorPoint: "top1" 250 512 mark 0
LayerCount: 2
Fore
SplineSet
189 717 m 257
 373 717 l 257
 480 512 l 257
 317 512 l 257
 269 621 l 261
 194 512 l 257
 9 512 l 257
 189 717 l 257
EndSplineSet
EndChar

StartChar: uni0304
Encoding: 772 772 381
GlifName: uni0304
Width: 307
VWidth: 0
GlyphClass: 4
Flags: HW
AnchorPoint: "top1" 250 512 mark 0
LayerCount: 2
Fore
SplineSet
86 662 m 257
 455 662 l 257
 430 522 l 257
 61 522 l 257
 86 662 l 257
EndSplineSet
EndChar

StartChar: uni0306
Encoding: 774 774 382
GlifName: uni0306
Width: 307
VWidth: 0
GlyphClass: 4
Flags: W
HStem: 505 133<221.79 322.341>
AnchorPoint: "top1" 250 512 mark 0
LayerCount: 2
Fore
SplineSet
507 699 m 257
 483 577 392 505 265 505 c 256
 130 505 44 582 50 699 c 257
 211 699 l 257
 211 660 232 638 269 638 c 256
 304 638 333 660 346 699 c 257
 507 699 l 257
EndSplineSet
EndChar

StartChar: uni0307
Encoding: 775 775 383
GlifName: uni0307
Width: 307
VWidth: 0
GlyphClass: 4
Flags: HW
AnchorPoint: "top1" 250 512 mark 0
LayerCount: 2
Fore
SplineSet
178 714 m 257
 387 714 l 257
 351 512 l 257
 143 512 l 257
 178 714 l 257
EndSplineSet
Substitution2: "ss03StyleSet3inLatinlookup2 subtable" uni0307.ss03
EndChar

StartChar: uni0307.ss03
Encoding: 65614 -1 384
GlifName: uni0307.ss03
Width: 307
VWidth: 0
GlyphClass: 4
Flags: HW
AnchorPoint: "top1" 160 512 mark 0
LayerCount: 2
Fore
SplineSet
48 616 m 256
 48 677 98 727 159 727 c 256
 220 727 269 677 269 616 c 256
 269 555 220 506 159 506 c 256
 98 506 48 555 48 616 c 256
EndSplineSet
EndChar

StartChar: uni0308
Encoding: 776 776 385
GlifName: uni0308
Width: 307
VWidth: 0
GlyphClass: 4
Flags: HW
AnchorPoint: "top1" 250 512 mark 0
LayerCount: 2
Fore
SplineSet
319 693 m 257
 507 693 l 257
 475 512 l 257
 287 512 l 257
 319 693 l 257
55 693 m 257
 243 693 l 257
 211 512 l 257
 23 512 l 257
 55 693 l 257
EndSplineSet
Substitution2: "ss03StyleSet3inLatinlookup2 subtable" uni0308.ss03
EndChar

StartChar: uni0308.ss03
Encoding: 65615 -1 386
GlifName: uni0308.ss03
Width: 307
VWidth: 0
GlyphClass: 4
Flags: HW
AnchorPoint: "top1" 160 512 mark 0
LayerCount: 2
Fore
SplineSet
-105 616 m 256
 -105 677 -56 727 5 727 c 256
 66 727 116 677 116 616 c 256
 116 555 66 506 5 506 c 256
 -56 506 -105 555 -105 616 c 256
191 616 m 256
 191 677 241 727 302 727 c 256
 363 727 413 677 413 616 c 256
 413 555 363 506 302 506 c 256
 241 506 191 555 191 616 c 256
EndSplineSet
EndChar

StartChar: uni030A
Encoding: 778 778 387
GlifName: uni030A_
Width: 307
VWidth: 0
GlyphClass: 4
Flags: HW
AnchorPoint: "top1" 250 512 mark 0
LayerCount: 2
Fore
SplineSet
221 657 m 0
 221 632 237 620 265 620 c 256
 301 620 325 644 325 680 c 0
 325 705 310 718 282 718 c 256
 246 718 221 693 221 657 c 0
447 692 m 4
 447 586 364 505 255 505 c 256
 159 505 98 559 98 645 c 0
 98 751 182 833 291 833 c 256
 387 833 447 778 447 692 c 4
EndSplineSet
EndChar

StartChar: uni030B
Encoding: 779 779 388
GlifName: uni030B_
Width: 307
VWidth: 0
GlyphClass: 4
Flags: HW
AnchorPoint: "top1" 250 512 mark 0
LayerCount: 2
Fore
SplineSet
639 717 m 257
 439 512 l 257
 286 512 l 257
 424 717 l 257
 639 717 l 257
383 717 m 257
 183 512 l 257
 30 512 l 257
 168 717 l 257
 383 717 l 257
EndSplineSet
EndChar

StartChar: uni030C
Encoding: 780 780 389
GlifName: uni030C_
Width: 307
VWidth: 0
GlyphClass: 4
Flags: HW
AnchorPoint: "top1" 250 512 mark 0
LayerCount: 2
Fore
SplineSet
337 512 m 257
 153 512 l 257
 45 717 l 257
 209 717 l 257
 258 608 l 261
 332 717 l 257
 517 717 l 257
 337 512 l 257
EndSplineSet
EndChar

StartChar: uni0312
Encoding: 786 786 390
GlifName: uni0312
Width: 307
VWidth: 0
GlyphClass: 4
Flags: HW
AnchorPoint: "top1" 250 512 mark 0
LayerCount: 2
Fore
SplineSet
349 512 m 257
 140 512 l 257
 182 746 l 258
 197 829 261 878 357 878 c 258
 411 878 l 257
 395 787 l 257
 373 787 l 258
 310 787 279 773 273 740 c 258
 268 714 l 257
 385 714 l 257
 349 512 l 257
EndSplineSet
Substitution2: "ss03StyleSet3inLatinlookup2 subtable" uni0312.ss03
EndChar

StartChar: uni0312.ss03
Encoding: 65616 -1 391
GlifName: uni0312.ss03
Width: 307
VWidth: 0
GlyphClass: 4
Flags: HW
AnchorPoint: "top1" 160 512 mark 0
LayerCount: 2
Fore
SplineSet
281 623 m 256
 281 562 231 512 170 512 c 256
 109 512 59 562 59 623 c 258
 59 748 l 258
 59 837 116 889 212 889 c 258
 265 889 l 257
 265 799 l 257
 244 799 l 258
 181 799 152 781 152 741 c 258
 152 732 l 257
 158 733 164 733 170 733 c 256
 231 733 281 684 281 623 c 256
EndSplineSet
EndChar

StartChar: uni0313
Encoding: 787 787 392
GlifName: uni0313
Width: 307
VWidth: 0
GlyphClass: 4
Flags: HW
AnchorPoint: "top1" 250 512 mark 0
LayerCount: 2
Fore
SplineSet
205 878 m 257
 414 878 l 257
 372 643 l 258
 357 560 293 512 197 512 c 258
 144 512 l 257
 159 602 l 257
 181 602 l 258
 244 602 275 616 281 649 c 258
 286 676 l 257
 169 676 l 257
 205 878 l 257
EndSplineSet
Substitution2: "ss03StyleSet3inLatinlookup2 subtable" uni0313.ss03
EndChar

StartChar: uni0313.ss03
Encoding: 65617 -1 393
GlifName: uni0313.ss03
Width: 307
VWidth: 0
GlyphClass: 4
Flags: HW
AnchorPoint: "top1" 160 512 mark 0
LayerCount: 2
Fore
SplineSet
59 778 m 256
 59 839 109 889 170 889 c 256
 231 889 281 839 281 778 c 258
 281 653 l 258
 281 564 224 512 128 512 c 258
 75 512 l 257
 75 602 l 257
 96 602 l 258
 159 602 188 619 188 659 c 258
 188 669 l 257
 182 668 176 668 170 668 c 256
 109 668 59 717 59 778 c 256
EndSplineSet
EndChar

StartChar: uni0315
Encoding: 789 789 394
GlifName: uni0315
Width: 307
VWidth: 0
GlyphClass: 4
Flags: W
HStem: 512 290<307 378>
VStem: 217 256
AnchorPoint: "top2" 217 512 mark 0
LayerCount: 2
Fore
SplineSet
307 802 m 257
 473 802 l 257
 378 512 l 257
 217 512 l 257
 307 802 l 257
EndSplineSet
EndChar

StartChar: uni031B
Encoding: 795 795 395
GlifName: uni031B_
Width: 307
VWidth: 0
GlyphClass: 4
Flags: HW
AnchorPoint: "top3" 177 561 mark 0
LayerCount: 2
Fore
SplineSet
177 561 m 257
 280 561 l 258
 309 561 334 571 342 618 c 258
 353 686 l 257
 497 686 l 257
 484 612 l 258
 464 496 361 461 274 461 c 258
 159 461 l 257
 177 561 l 257
EndSplineSet
EndChar

StartChar: uni0326
Encoding: 806 806 396
GlifName: uni0326
Width: 307
VWidth: 0
GlyphClass: 4
Flags: HW
AnchorPoint: "bottom1" 164 0 mark 0
LayerCount: 2
Fore
SplineSet
50 -29 m 257
 259 -29 l 257
 218 -263 l 258
 203 -346 138 -394 42 -394 c 258
 -11 -394 l 257
 5 -304 l 257
 26 -304 l 258
 89 -304 121 -290 127 -257 c 258
 131 -230 l 257
 15 -230 l 257
 50 -29 l 257
EndSplineSet
Substitution2: "ss03StyleSet3inLatinlookup2 subtable" uni0326.ss03
EndChar

StartChar: uni0326.ss03
Encoding: 65618 -1 397
GlifName: uni0326.ss03
Width: 307
VWidth: 0
GlyphClass: 4
Flags: HW
AnchorPoint: "bottom1" 164 0 mark 0
LayerCount: 2
Fore
SplineSet
53 -150 m 256
 53 -89 103 -39 164 -39 c 256
 225 -39 274 -89 274 -150 c 258
 274 -274 l 258
 274 -363 218 -416 122 -416 c 258
 69 -416 l 257
 69 -326 l 257
 90 -326 l 258
 153 -326 182 -308 182 -268 c 258
 182 -259 l 257
 176 -260 170 -260 164 -260 c 256
 103 -260 53 -211 53 -150 c 256
EndSplineSet
EndChar

StartChar: uni0327
Encoding: 807 807 398
GlifName: uni0327
Width: 307
VWidth: 0
GlyphClass: 4
Flags: HW
AnchorPoint: "bottom1" 164 0 mark 0
LayerCount: 2
Fore
SplineSet
122 10 m 257
 221 10 l 257
 169 -56 l 257
 184 -56 l 258
 243 -56 279 -97 279 -162 c 0
 279 -243 212 -294 106 -294 c 258
 -6 -294 l 257
 18 -161 l 257
 101 -161 l 258
 124 -161 138 -151 138 -134 c 0
 138 -124 129 -118 114 -118 c 258
 80 -118 l 257
 61 -77 l 257
 122 10 l 257
EndSplineSet
EndChar

StartChar: uni0328
Encoding: 808 808 399
GlifName: uni0328
Width: 307
VWidth: 0
GlyphClass: 4
Flags: HW
HStem: -272 143<123 244> -20 20G<55 201>
VStem: -18 136<-181 -64>
AnchorPoint: "bottom2" 201 0 mark 0
LayerCount: 2
Fore
SplineSet
201 0 m 257
 128 -35 101 -61 101 -97 c 0
 101 -118 117 -129 148 -129 c 258
 221 -129 l 257
 196 -272 l 257
 115 -272 l 258
 16 -272 -45 -227 -45 -153 c 4
 -45 -91 -1 -37 81 0 c 257
 201 0 l 257
EndSplineSet
EndChar

StartChar: uni1E9E
Encoding: 7838 7838 400
GlifName: uni1E_9E_
Width: 701
VWidth: 0
GlyphClass: 2
Flags: HW
LayerCount: 2
Fore
SplineSet
662 451 m 257
 583 501 498 536 396 536 c 256
 287 536 241 493 241 395 c 258
 241 0 l 257
 46 0 l 257
 46 401 l 258
 46 589 164 687 393 687 c 256
 496 687 583 660 662 620 c 257
 662 451 l 257
547 376 m 257
 632 359 686 291 686 196 c 256
 686 79 597 0 462 0 c 258
 329 0 l 257
 329 154 l 257
 413 154 l 258
 468 154 499 172 499 205 c 256
 499 239 467 258 410 258 c 258
 339 258 l 257
 339 401 l 257
 528 545 l 257
 662 451 l 257
 547 376 l 257
EndSplineSet
EndChar

StartChar: uni1EA1.ss01.ss03
Encoding: 65621 -1 405
GlifName: uni1E_A_1.ss01.ss03
Width: 622
VWidth: 0
GlyphClass: 2
Flags: HW
AnchorPoint: "top1" 418 573 basechar 0
LayerCount: 2
Fore
SplineSet
218 -158 m 256
 218 -97 268 -47 329 -47 c 256
 390 -47 439 -97 439 -158 c 256
 439 -219 390 -268 329 -268 c 256
 268 -268 218 -219 218 -158 c 256
EndSplineSet
Refer: 132 -1 N 1 0 0 1 0 0 2
EndChar

StartChar: uni201F
Encoding: 8223 8223 528
GlifName: uni201F_
Width: 564
VWidth: 0
GlyphClass: 2
Flags: HW
LayerCount: 2
Fore
SplineSet
650 717 m 257
 614 515 l 257
 491 515 l 257
 586 326 l 257
 452 326 l 257
 405 515 l 257
 441 717 l 257
 650 717 l 257
367 717 m 257
 331 515 l 257
 209 515 l 257
 303 326 l 257
 169 326 l 257
 123 515 l 257
 158 717 l 257
 367 717 l 257
EndSplineSet
Substitution2: "ss03StyleSet3inLatinlookup2 subtable" uni201F.ss03
EndChar

StartChar: uni201F.ss03
Encoding: 65658 -1 529
GlifName: uni201F_.ss03
Width: 564
VWidth: 0
GlyphClass: 2
Flags: HW
LayerCount: 2
Fore
SplineSet
640 606 m 256
 629 545 571 496 510 496 c 256
 504 496 498 496 492 497 c 257
 490 487 l 258
 481 439 507 418 570 418 c 258
 592 418 l 257
 576 328 l 257
 523 328 l 258
 427 328 380 384 397 481 c 258
 419 606 l 258
 430 667 488 717 549 717 c 256
 610 717 651 667 640 606 c 256
359 606 m 256
 348 545 290 496 229 496 c 256
 223 496 216 496 210 497 c 257
 209 487 l 258
 200 439 226 418 289 418 c 258
 310 418 l 257
 294 328 l 257
 241 328 l 258
 145 328 99 384 116 481 c 258
 138 606 l 258
 149 667 207 717 268 717 c 256
 329 717 370 667 359 606 c 256
EndSplineSet
EndChar

StartChar: uni2034
Encoding: 8244 8244 530
GlifName: uni2034
Width: 922
VWidth: -51
GlyphClass: 2
Flags: HW
LayerCount: 2
Fore
SplineSet
491 666 m 257
 260 461 l 257
 107 461 l 257
 276 666 l 257
 491 666 l 257
1015 666 m 257
 785 461 l 257
 631 461 l 257
 800 666 l 257
 1015 666 l 257
753 666 m 257
 523 461 l 257
 369 461 l 257
 538 666 l 257
 753 666 l 257
EndSplineSet
EndChar

StartChar: uni2035
Encoding: 8245 8245 531
GlifName: uni2035
Width: 399
VWidth: -51
GlyphClass: 2
Flags: HW
LayerCount: 2
Fore
SplineSet
143 666 m 257
 358 666 l 257
 455 461 l 257
 301 461 l 257
 143 666 l 257
EndSplineSet
EndChar

StartChar: uni2036
Encoding: 8246 8246 532
GlifName: uni2036
Width: 660
VWidth: -51
GlyphClass: 2
Flags: HW
LayerCount: 2
Fore
SplineSet
143 666 m 257
 358 666 l 257
 455 461 l 257
 301 461 l 257
 143 666 l 257
405 666 m 257
 620 666 l 257
 717 461 l 257
 564 461 l 257
 405 666 l 257
EndSplineSet
EndChar

StartChar: uni2037
Encoding: 8247 8247 533
GlifName: uni2037
Width: 922
VWidth: -51
GlyphClass: 2
Flags: HW
LayerCount: 2
Fore
SplineSet
667 666 m 257
 882 666 l 257
 979 461 l 257
 826 461 l 257
 667 666 l 257
143 666 m 257
 358 666 l 257
 455 461 l 257
 301 461 l 257
 143 666 l 257
405 666 m 257
 620 666 l 257
 717 461 l 257
 564 461 l 257
 405 666 l 257
EndSplineSet
EndChar

StartChar: v
Encoding: 118 118 537
GlifName: v
Width: 605
VWidth: 0
GlyphClass: 2
Flags: HW
LayerCount: 2
Fore
SplineSet
117 512 m 257
 308 512 l 257
 326 180 l 261
 458 512 l 257
 671 512 l 257
 415 0 l 257
 192 0 l 257
 117 512 l 257
EndSplineSet
EndChar

StartChar: w
Encoding: 119 119 538
GlifName: w
Width: 930
VWidth: 0
GlyphClass: 2
Flags: HW
AnchorPoint: "top1" 561 573 basechar 0
LayerCount: 2
Fore
SplineSet
115 512 m 257
 309 512 l 257
 309 185 l 257
 435 512 l 257
 657 512 l 257
 673 185 l 257
 785 512 l 257
 994 512 l 257
 752 0 l 257
 528 0 l 257
 515 321 l 257
 403 0 l 257
 170 0 l 257
 115 512 l 257
EndSplineSet
EndChar

StartChar: x
Encoding: 120 120 540
GlifName: x
Width: 594
VWidth: 0
GlyphClass: 2
Flags: W
HStem: 0 21G<27 252.025 373.43 570> 492 20G<117 313.57 435.848 661>
LayerCount: 2
Fore
SplineSet
117 512 m 257
 308 512 l 257
 352 354 l 257
 448 512 l 257
 661 512 l 257
 489 256 l 257
 570 0 l 257
 379 0 l 261
 335 158 l 261
 240 0 l 261
 27 0 l 257
 198 256 l 257
 117 512 l 257
EndSplineSet
EndChar

StartChar: y
Encoding: 121 121 541
GlifName: y
Width: 625
VWidth: 0
GlyphClass: 2
Flags: HW
AnchorPoint: "bottom1" 551 0 basechar 0
AnchorPoint: "top1" 418 573 basechar 0
LayerCount: 2
Fore
SplineSet
60 -23 m 257
 122 -23 l 258
 156 -23 173 -12 186 10 c 258
 198 31 l 257
 117 512 l 257
 315 512 l 257
 349 211 l 257
 485 512 l 257
 692 512 l 257
 432 -6 l 258
 366 -138 307 -188 128 -188 c 258
 30 -188 l 257
 60 -23 l 257
EndSplineSet
Substitution2: "ss07StyleSet7inLatinlookup6 subtable" y.ss07
EndChar

StartChar: y.ss07
Encoding: 65659 -1 542
GlifName: y.ss07
Width: 625
VWidth: 0
GlyphClass: 2
Flags: HW
HStem: 492 20G<26 234 391 600>
AnchorPoint: "top1" 417 573 basechar 0
AnchorPoint: "bottom1" 550 0 basechar 0
LayerCount: 2
Fore
SplineSet
107 -180 m 257
 215 31 l 257
 116 512 l 257
 307 512 l 257
 345 231 l 257
 477 512 l 257
 690 512 l 257
 338 -180 l 257
 107 -180 l 257
EndSplineSet
EndChar

StartChar: z
Encoding: 122 122 548
GlifName: z
Width: 534
VWidth: 0
GlyphClass: 2
Flags: HW
AnchorPoint: "top1" 375 573 basechar 0
LayerCount: 2
Fore
SplineSet
132 512 m 257
 579 512 l 257
 548 340 l 257
 289 141 l 257
 513 141 l 257
 488 0 l 257
 42 0 l 257
 72 172 l 257
 330 371 l 257
 107 371 l 257
 132 512 l 257
EndSplineSet
EndChar

StartChar: zero
Encoding: 48 48 553
GlifName: zero
Width: 660
VWidth: 0
GlyphClass: 2
Flags: HW
LayerCount: 2
Fore
SplineSet
87 261 m 4
 87 502 226 676 416 676 c 4
 586 676 686 572 686 397 c 4
 686 155 555 -8 362 -8 c 4
 189 -8 87 92 87 261 c 4
489 393 m 4
 489 465 462 502 409 502 c 4
 340 502 284 397 284 269 c 4
 284 201 314 166 369 166 c 4
 440 166 489 260 489 393 c 4
EndSplineSet
Substitution2: "zeroSlashedZeroinLatinlookup10 subtable" zero.slsh
Substitution2: "tnumTabularNumbersinLatinlookup11 subtable" zero.tabl
Substitution2: "supsSuperscriptinLatinlookup15 subtable" uni2070
Substitution2: "subsSubscriptinLatinlookup14 subtable" uni2080
Substitution2: "numrNumeratorsinLatinlookup13 subtable" zero.numr
Substitution2: "dnomDenominatorsinLatinlookup12 subtable" zero.dnom
Substitution2: "cv04CharacterVariants04inLatinlookup19 subtable" uni24EA
Substitution2: "cv03CharacterVariants03inLatinlookup18 subtable" uni24FF
Substitution2: "cv02CharacterVariants02inLatinlookup17 subtable" zero.cv02
Substitution2: "cv01CharacterVariants01inLatinlookup16 subtable" zero.cv01
EndChar

StartChar: tbar.ss08
Encoding: 65679 -1 571
GlifName: tbar.ss08
Width: 387
VWidth: 0
GlyphClass: 2
Flags: HW
HStem: 0 22G<96 291> 220 100<24 364> 360 152<24 364>
VStem: 24 340<220 321 360 512> 96 195<0 645>
LayerCount: 2
Fore
SplineSet
80 321 m 261xf0
 420 321 l 261
 402 220 l 261
 62 220 l 261
 80 321 l 261xf0
114 512 m 257
 454 512 l 257
 427 360 l 257
 87 360 l 257
 114 512 l 257
96 0 m 257xe8
 210 645 l 257
 405 645 l 257
 291 0 l 257
 96 0 l 257xe8
EndSplineSet
EndChar

StartChar: Gdotaccent.ss04.ss03
Encoding: 65698 -1 590
GlifName: G_dotaccent.ss04.ss03
Width: 703
VWidth: 0
GlyphClass: 2
Flags: HW
HStem: -8 174<287 417> 257 134<317 449> 503 173<283 416> 711 221<270 402>
VStem: 36 198<227 443> 225 221<755 888>
LayerCount: 2
Fore
SplineSet
379 822 m 260xf4
 379 883 428 932 489 932 c 260
 550 932 600 883 600 822 c 260
 600 761 550 711 489 711 c 260
 428 711 379 761 379 822 c 260xf4
EndSplineSet
Refer: 39 -1 N 1 0 0 1 0 0 3
EndChar

StartChar: uni0122.ss04.ss03
Encoding: 65699 -1 591
GlifName: uni0122.ss04.ss03
Width: 703
VWidth: 0
GlyphClass: 2
Flags: HW
LayerCount: 2
Fore
SplineSet
250 -150 m 260
 250 -89 299 -39 360 -39 c 260
 421 -39 471 -89 471 -150 c 262
 471 -274 l 262
 471 -363 414 -416 318 -416 c 262
 265 -416 l 261
 265 -326 l 261
 287 -326 l 262
 350 -326 379 -308 379 -268 c 262
 379 -259 l 261
 373 -260 366 -260 360 -260 c 260
 299 -260 250 -211 250 -150 c 260
EndSplineSet
Refer: 39 -1 N 1 0 0 1 0 0 3
EndChar

StartChar: uni0156.ss05.ss03
Encoding: 65700 -1 592
GlifName: uni0156.ss05.ss03
Width: 641
VWidth: 0
GlyphClass: 2
Flags: HW
LayerCount: 2
Fore
SplineSet
216 -150 m 256
 216 -89 266 -39 327 -39 c 256
 388 -39 437 -89 437 -150 c 258
 437 -274 l 258
 437 -363 381 -416 285 -416 c 258
 231 -416 l 257
 231 -326 l 257
 253 -326 l 258
 316 -326 345 -308 345 -268 c 258
 345 -259 l 257
 339 -260 333 -260 327 -260 c 256
 266 -260 216 -211 216 -150 c 256
EndSplineSet
Refer: 91 -1 N 1 0 0 1 0 0 3
EndChar

StartChar: ydieresis.ss07.ss03
Encoding: 65701 -1 593
GlifName: ydieresis.ss07.ss03
Width: 625
VWidth: 0
GlyphClass: 2
Flags: HW
HStem: 492 20G<26 234 391 600> 565 221<99 231 395 528>
VStem: 54 221<610 742> 351 221<610 742>
LayerCount: 2
Fore
SplineSet
167 676 m 260
 167 737 217 786 278 786 c 260
 339 786 388 737 388 676 c 260
 388 615 339 565 278 565 c 260
 217 565 167 615 167 676 c 260
464 676 m 260
 464 737 513 786 574 786 c 260
 635 786 685 737 685 676 c 260
 685 615 635 565 574 565 c 260
 513 565 464 615 464 676 c 260
EndSplineSet
Refer: 542 -1 N 1 0 0 1 0 0 3
EndChar

StartChar: uni1EF5.ss07.ss03
Encoding: 65702 -1 594
GlifName: uni1E_F_5.ss07.ss03
Width: 625
VWidth: 0
GlyphClass: 2
Flags: HW
HStem: -268 221<472 605> 492 20G<26 234 391 600>
VStem: 428 221<-224 -91>
LayerCount: 2
Fore
SplineSet
428 -158 m 260
 428 -97 478 -47 539 -47 c 260
 600 -47 649 -97 649 -158 c 260
 649 -219 600 -268 539 -268 c 260
 478 -268 428 -219 428 -158 c 260
EndSplineSet
Refer: 542 -1 N 1 0 0 1 0 0 3
EndChar

StartChar: udieresis.ss10.ss03
Encoding: 65703 -1 595
GlifName: udieresis.ss10.ss03
Width: 610
VWidth: 0
GlyphClass: 2
Flags: HW
HStem: -8 184<257 352> 492 20G<44 239 372 566> 565 221<87 220 384 517>
VStem: 43 221<610 742> 44 195<194 512> 340 221<610 742> 372 195<194 512>
LayerCount: 2
Fore
SplineSet
165 676 m 260xf0
 165 737 214 786 275 786 c 260
 336 786 386 737 386 676 c 260
 386 615 336 565 275 565 c 260
 214 565 165 615 165 676 c 260xf0
462 676 m 260xe4
 462 737 511 786 572 786 c 260
 633 786 683 737 683 676 c 260
 683 615 633 565 572 565 c 260
 511 565 462 615 462 676 c 260xe4
EndSplineSet
Refer: 345 -1 N 1 0 0 1 0 0 3
EndChar

StartChar: uni1EE5.ss10.ss03
Encoding: 65704 -1 596
GlifName: uni1E_E_5.ss10.ss03
Width: 610
VWidth: 0
GlyphClass: 2
Flags: HW
HStem: -268 221<249 382> -8 184<257 352> 492 20G<44 239 372 566>
VStem: 44 195<194 512> 205 221<-224 -91> 372 195<194 512>
LayerCount: 2
Fore
SplineSet
174 -158 m 260xe8
 174 -97 224 -47 285 -47 c 260
 346 -47 395 -97 395 -158 c 260
 395 -219 346 -268 285 -268 c 260
 224 -268 174 -219 174 -158 c 260xe8
EndSplineSet
Refer: 345 -1 N 1 0 0 1 0 0 3
EndChar

StartChar: uni1EF1.ss10.ss03
Encoding: 65705 -1 597
GlifName: uni1E_F_1.ss10.ss03
Width: 610
GlyphClass: 2
Flags: HW
LayerCount: 2
Fore
SplineSet
174 -158 m 260xe8
 174 -97 224 -47 285 -47 c 260
 346 -47 395 -97 395 -158 c 260
 395 -219 346 -268 285 -268 c 260
 224 -268 174 -219 174 -158 c 260xe8
EndSplineSet
Refer: 582 -1 N 1 0 0 1 0 0 3
EndChar

StartChar: Gdotaccent.ss03.ss04
Encoding: 65706 -1 598
GlifName: G_dotaccent.ss03.ss04
Width: 703
VWidth: 0
GlyphClass: 2
Flags: HW
HStem: -8 174<287 417> 257 134<317 449> 503 173<283 416> 711 221<270 402>
VStem: 36 198<227 443> 225 221<755 888>
LayerCount: 2
Fore
SplineSet
379 822 m 260xf4
 379 883 428 932 489 932 c 260
 550 932 600 883 600 822 c 260
 600 761 550 711 489 711 c 260
 428 711 379 761 379 822 c 260xf4
EndSplineSet
Refer: 39 -1 N 1 0 0 1 0 0 3
Decomposition: "G+AwcA"
EndChar

StartChar: uni0122.ss03.ss04
Encoding: 65707 -1 599
GlifName: uni0122.ss03.ss04
Width: 703
VWidth: 0
GlyphClass: 2
Flags: HW
LayerCount: 2
Fore
SplineSet
250 -150 m 260
 250 -89 299 -39 360 -39 c 260
 421 -39 471 -89 471 -150 c 262
 471 -274 l 262
 471 -363 414 -416 318 -416 c 262
 265 -416 l 261
 265 -326 l 261
 287 -326 l 262
 350 -326 379 -308 379 -268 c 262
 379 -259 l 261
 373 -260 366 -260 360 -260 c 260
 299 -260 250 -211 250 -150 c 260
EndSplineSet
Refer: 39 -1 N 1 0 0 1 0 0 3
EndChar

StartChar: uni0156.ss03.ss05
Encoding: 65708 -1 600
GlifName: uni0156.ss03.ss05
Width: 641
VWidth: 0
GlyphClass: 2
Flags: HW
LayerCount: 2
Fore
SplineSet
216 -150 m 256
 216 -89 266 -39 327 -39 c 256
 388 -39 437 -89 437 -150 c 258
 437 -274 l 258
 437 -363 381 -416 285 -416 c 258
 231 -416 l 257
 231 -326 l 257
 253 -326 l 258
 316 -326 345 -308 345 -268 c 258
 345 -259 l 257
 339 -260 333 -260 327 -260 c 256
 266 -260 216 -211 216 -150 c 256
EndSplineSet
Refer: 91 -1 N 1 0 0 1 0 0 3
EndChar

StartChar: uni1EF5.ss03.ss07
Encoding: 65709 -1 601
GlifName: uni1E_F_5.ss03.ss07
Width: 625
VWidth: 0
GlyphClass: 2
Flags: HW
HStem: -268 221<472 605> 492 20G<26 234 391 600>
VStem: 428 221<-224 -91>
LayerCount: 2
Fore
SplineSet
428 -158 m 260
 428 -97 478 -47 539 -47 c 260
 600 -47 649 -97 649 -158 c 260
 649 -219 600 -268 539 -268 c 260
 478 -268 428 -219 428 -158 c 260
EndSplineSet
Refer: 542 -1 N 1 0 0 1 0 0 3
EndChar

StartChar: ydieresis.ss03.ss07
Encoding: 65710 -1 602
GlifName: ydieresis.ss03.ss07
Width: 625
VWidth: 0
GlyphClass: 2
Flags: HW
HStem: 492 20G<26 234 391 600> 565 221<99 231 395 528>
VStem: 54 221<610 742> 351 221<610 742>
LayerCount: 2
Fore
SplineSet
167 676 m 260
 167 737 217 786 278 786 c 260
 339 786 388 737 388 676 c 260
 388 615 339 565 278 565 c 260
 217 565 167 615 167 676 c 260
464 676 m 260
 464 737 513 786 574 786 c 260
 635 786 685 737 685 676 c 260
 685 615 635 565 574 565 c 260
 513 565 464 615 464 676 c 260
EndSplineSet
Refer: 542 -1 N 1 0 0 1 0 0 3
EndChar

StartChar: udieresis.ss03.ss10
Encoding: 65711 -1 603
GlifName: udieresis.ss03.ss10
Width: 610
VWidth: 0
GlyphClass: 2
Flags: HW
HStem: -8 184<257 352> 492 20G<44 239 372 566> 565 221<87 220 384 517>
VStem: 43 221<610 742> 44 195<194 512> 340 221<610 742> 372 195<194 512>
LayerCount: 2
Fore
SplineSet
165 676 m 260xf0
 165 737 214 786 275 786 c 260
 336 786 386 737 386 676 c 260
 386 615 336 565 275 565 c 260
 214 565 165 615 165 676 c 260xf0
462 676 m 260xe4
 462 737 511 786 572 786 c 260
 633 786 683 737 683 676 c 260
 683 615 633 565 572 565 c 260
 511 565 462 615 462 676 c 260xe4
EndSplineSet
Refer: 345 -1 N 1 0 0 1 0 0 3
EndChar

StartChar: uni1EE5.ss03.ss10
Encoding: 65712 -1 604
GlifName: uni1E_E_5.ss03.ss10
Width: 610
VWidth: 0
GlyphClass: 2
Flags: HW
HStem: -268 221<249 382> -8 184<257 352> 492 20G<44 239 372 566>
VStem: 44 195<194 512> 205 221<-224 -91> 372 195<194 512>
LayerCount: 2
Fore
SplineSet
174 -158 m 260xe8
 174 -97 224 -47 285 -47 c 260
 346 -47 395 -97 395 -158 c 260
 395 -219 346 -268 285 -268 c 260
 224 -268 174 -219 174 -158 c 260xe8
EndSplineSet
Refer: 345 -1 N 1 0 0 1 0 0 3
EndChar

StartChar: uni1EF1.ss03.ss10
Encoding: 65713 -1 605
GlifName: uni1E_F_1.ss03.ss10
Width: 610
GlyphClass: 2
Flags: HW
LayerCount: 2
Fore
SplineSet
174 -158 m 260xe8
 174 -97 224 -47 285 -47 c 260
 346 -47 395 -97 395 -158 c 260
 395 -219 346 -268 285 -268 c 260
 224 -268 174 -219 174 -158 c 260xe8
EndSplineSet
Refer: 582 -1 N 1 0 0 1 0 0 3
EndChar

StartChar: zero.slsh
Encoding: 65714 -1 606
GlifName: zero.slsh
Width: 660
VWidth: 0
GlyphClass: 2
Flags: HW
HStem: -8 174<253 389> 502 174<278 383> 513 20G<436 477>
VStem: 36 198<265 450> 427 198<208 387>
LayerCount: 2
Fore
SplineSet
527 534 m 257xb8
 594 472 l 257
 221 108 l 257
 153 169 l 257
 527 534 l 257xb8
87 261 m 0
 87 502 226 676 416 676 c 0
 586 676 686 572 686 397 c 0
 686 155 555 -8 362 -8 c 0
 189 -8 87 92 87 261 c 0
489 393 m 0
 489 465 462 502 409 502 c 0
 340 502 284 397 284 269 c 0
 284 201 314 166 369 166 c 0
 440 166 489 260 489 393 c 0
EndSplineSet
Substitution2: "tnumTabularNumbersinLatinlookup11 subtable" zero.slsh.tabl
EndChar

StartChar: zero.tabl
Encoding: 65715 -1 607
GlifName: zero.tabl
Width: 640
VWidth: 0
GlyphClass: 2
Flags: HW
LayerCount: 2
Fore
SplineSet
89 261 m 4
 89 502 222 676 407 676 c 0
 571 676 667 572 667 397 c 0
 667 155 540 -8 354 -8 c 0
 187 -8 89 92 89 261 c 4
471 393 m 0
 471 465 447 502 400 502 c 0
 337 502 285 397 285 269 c 4
 285 201 311 166 360 166 c 0
 425 166 471 260 471 393 c 0
EndSplineSet
Substitution2: "zeroSlashedZeroinLatinlookup10 subtable" zero.tabl.slsh
EndChar

StartChar: one.tabl
Encoding: 65716 -1 608
GlifName: one.tabl
Width: 640
VWidth: 0
GlyphClass: 2
Flags: HW
LayerCount: 2
Fore
SplineSet
385 666 m 1
 579 666 l 1
 465 172 l 1
 596 172 l 1
 557 0 l 1
 83 0 l 1
 123 172 l 1
 271 172 l 1
 321 389 l 1
 173 389 l 1
 212 556 l 1
 277 556 l 2
 330 556 363 572 375 625 c 2
 385 666 l 1
EndSplineSet
EndChar

StartChar: two.tabl
Encoding: 65717 -1 609
GlifName: two.tabl
Width: 640
VWidth: 0
GlyphClass: 2
Flags: HW
LayerCount: 2
Fore
SplineSet
329 171 m 257
 613 171 l 257
 583 0 l 257
 57 0 l 257
 63 35 l 258
 107 286 250 344 353 379 c 0
 419 402 469 421 469 463 c 0
 469 496 447 513 407 513 c 0
 369 513 341 484 333 435 c 257
 133 435 l 257
 167 582 272 674 408 674 c 0
 559 674 666 590 666 470 c 0
 666 341 578 288 492 254 c 0
 418 224 344 209 329 171 c 257
EndSplineSet
EndChar

StartChar: three.tabl
Encoding: 65718 -1 610
GlifName: three.tabl
Width: 640
VWidth: 0
GlyphClass: 2
Flags: HW
LayerCount: 2
Fore
SplineSet
470 406 m 257
 445 266 l 257
 313 266 l 257
 338 406 l 257
 470 406 l 257
389 297 m 257
 408 406 l 257
 452 406 463 447 463 472 c 0
 463 503 445 521 412 521 c 256
 374 521 346 497 338 456 c 257
 140 456 l 261
 178 608 291 674 435 674 c 256
 573 674 663 601 663 496 c 0
 663 393 572 297 389 297 c 257
403 375 m 257
 541 375 624 310 624 209 c 0
 624 94 515 -8 347 -8 c 256
 186 -8 88 76 88 215 c 257
 285 215 l 257
 285 170 308 146 351 146 c 256
 413 146 431 196 431 225 c 0
 431 252 415 266 384 266 c 257
 403 375 l 257
EndSplineSet
EndChar

StartChar: four.tabl
Encoding: 65719 -1 611
GlifName: four.tabl
Width: 640
VWidth: 0
GlyphClass: 2
Flags: HW
LayerCount: 2
Fore
SplineSet
552 135 m 257
 528 0 l 257
 344 0 l 257
 368 135 l 257
 51 135 l 257
 87 337 l 257
 410 666 l 257
 646 666 l 257
 581 296 l 257
 665 296 l 257
 636 135 l 257
 552 135 l 257
396 296 m 257
 425 457 l 257
 266 296 l 261
 396 296 l 257
EndSplineSet
EndChar

StartChar: five.tabl
Encoding: 65720 -1 612
GlifName: five.tabl
Width: 640
VWidth: 0
GlyphClass: 2
Flags: HW
LayerCount: 2
Fore
SplineSet
433 250 m 0
 433 193 399 156 346 156 c 256
 305 156 284 177 284 217 c 257
 87 217 l 257
 87 76 183 -8 345 -8 c 256
 512 -8 634 106 634 263 c 0
 634 379 570 454 471 454 c 256
 410 454 356 428 315 381 c 257
 353 505 l 257
 653 505 l 257
 682 667 l 257
 204 667 l 257
 97 274 l 257
 290 274 l 257
 309 299 337 313 369 313 c 256
 410 313 433 291 433 250 c 0
EndSplineSet
EndChar

StartChar: six.tabl
Encoding: 65721 -1 613
GlifName: six.tabl
Width: 640
VWidth: 0
GlyphClass: 2
Flags: HW
LayerCount: 2
Fore
SplineSet
92 251 m 4
 92 508 237 676 437 676 c 260
 588 676 677 603 677 480 c 261
 479 480 l 261
 479 513 460 532 428 532 c 260
 370 532 320 469 303 374 c 260
 302 368 302 364 301 361 c 261
 334 407 400 436 469 436 c 260
 573 436 643 363 643 254 c 4
 643 107 529 -8 357 -8 c 260
 190 -8 92 88 92 251 c 4
297 199 m 4
 297 161 321 136 358 136 c 260
 405 136 442 179 442 233 c 4
 442 270 420 292 383 292 c 260
 334 292 297 251 297 199 c 4
EndSplineSet
EndChar

StartChar: seven.tabl
Encoding: 65722 -1 614
GlifName: seven.tabl
Width: 640
VWidth: 0
GlyphClass: 2
Flags: HW
LayerCount: 2
Fore
SplineSet
389 0 m 261
 427 218 502 364 666 473 c 261
 700 666 l 261
 175 666 l 261
 143 483 l 261
 451 483 l 261
 317 381 201 255 156 0 c 261
 389 0 l 261
EndSplineSet
EndChar

StartChar: eight.tabl
Encoding: 65723 -1 615
GlifName: eight.tabl
Width: 640
VWidth: 0
GlyphClass: 2
Flags: HW
HStem: -8 148<262 377> 263 143<280 360> 309 51<309 317 323 330> 525 148<273 366>
VStem: 50 198<155 250> 71 187<418 513> 307 10<263 407> 323 10<263 309 360 407> 382 187<417 513> 392 198<155 249>
LayerCount: 2
Fore
SplineSet
536 327 m 1
 594 301 625 256 625 194 c 0
 625 77 505 -8 339 -8 c 0
 181 -8 80 62 80 172 c 0
 80 251 134 317 224 347 c 1
 177 373 154 416 154 473 c 0
 154 589 265 674 418 674 c 0
 564 674 657 605 657 497 c 0
 657 423 612 358 536 327 c 1
398 407 m 2
 438 407 466 435 466 475 c 0
 466 507 446 525 409 525 c 0
 367 525 339 498 339 457 c 0
 339 425 358 407 393 407 c 2
 398 407 l 2
366 263 m 2
 360 263 l 2
 312 263 283 237 283 195 c 0
 283 160 305 140 348 140 c 0
 397 140 429 169 429 211 c 0
 429 245 407 263 366 263 c 2
EndSplineSet
EndChar

StartChar: nine.tabl
Encoding: 65724 -1 616
GlifName: nine.tabl
Width: 640
VWidth: 0
GlyphClass: 2
Flags: HW
LayerCount: 2
Fore
SplineSet
666 417 m 4
 666 160 521 -8 321 -8 c 260
 170 -8 81 64 81 187 c 261
 279 187 l 261
 279 154 298 135 330 135 c 260
 388 135 437 199 454 294 c 260
 455 300 455 303 456 306 c 261
 423 260 358 231 289 231 c 260
 185 231 115 305 115 414 c 4
 115 561 229 676 401 676 c 260
 568 676 666 580 666 417 c 4
461 469 m 4
 461 507 437 531 400 531 c 260
 353 531 316 489 316 435 c 4
 316 398 338 376 375 376 c 260
 424 376 461 417 461 469 c 4
EndSplineSet
EndChar

StartChar: zero.slsh.tabl
Encoding: 65725 -1 617
GlifName: zero.slsh.tabl
Width: 640
VWidth: 0
GlyphClass: 2
Flags: HW
LayerCount: 2
Fore
SplineSet
517 534 m 257xb8
 584 472 l 257
 221 108 l 257
 153 169 l 257
 517 534 l 257xb8
87 261 m 0
 87 502 221.775075988 676 406 676 c 0
 569.703703704 676 666 572 666 397 c 0
 666 155 539.043209877 -8 352 -8 c 0
 185.290909091 -8 87 92 87 261 c 0
469 393 m 0
 469 465 445.375 502 399 502 c 0
 335.52 502 284 397 284 269 c 0
 284 201 310.470588235 166 359 166 c 0
 424.083333333 166 469 260 469 393 c 0
EndSplineSet
EndChar

StartChar: plus.tabl
Encoding: 65726 -1 618
GlifName: plus.tabl
Width: 640
VWidth: 0
GlyphClass: 2
Flags: HW
LayerCount: 2
Fore
SplineSet
477 410 m 257
 668 410 l 257
 637 238 l 257
 447 238 l 257
 413 48 l 257
 241 48 l 257
 275 238 l 257
 86 238 l 257
 117 410 l 257
 305 410 l 257
 339 599 l 257
 511 599 l 257
 477 410 l 257
EndSplineSet
EndChar

StartChar: hyphen.tabl
Encoding: 65727 -1 619
GlifName: hyphen.tabl
Width: 640
VWidth: 0
GlyphClass: 2
Flags: HW
LayerCount: 2
Fore
SplineSet
148 369 m 257
 622 369 l 257
 591 197 l 257
 118 197 l 257
 148 369 l 257
EndSplineSet
EndChar

StartChar: period.tabl
Encoding: 65728 -1 620
GlifName: period.tabl
Width: 640
VWidth: 0
GlyphClass: 2
Flags: HW
LayerCount: 2
Fore
SplineSet
251 202 m 257
 460 202 l 257
 424 0 l 257
 216 0 l 257
 251 202 l 257
EndSplineSet
EndChar

StartChar: slash.tabl
Encoding: 65729 -1 621
GlifName: slash.tabl
Width: 640
VWidth: 0
GlyphClass: 2
Flags: HW
LayerCount: 2
Fore
SplineSet
445 666 m 257
 660 666 l 257
 313 0 l 257
 98 0 l 257
 445 666 l 257
EndSplineSet
EndChar

StartChar: colon.tabl
Encoding: 65730 -1 622
GlifName: colon.tabl
Width: 640
VWidth: 0
GlyphClass: 2
Flags: HW
LayerCount: 2
Fore
SplineSet
306 511 m 257
 515 511 l 257
 479 309 l 257
 270 309 l 257
 306 511 l 257
251 202 m 257
 460 202 l 257
 424 0 l 257
 216 0 l 257
 251 202 l 257
EndSplineSet
EndChar

StartChar: multiply.tabl
Encoding: 65731 -1 623
GlifName: multiply.tabl
Width: 640
VWidth: 0
GlyphClass: 2
Flags: HW
LayerCount: 2
Fore
SplineSet
397 435 m 257
 557 580 l 257
 657 458 l 257
 490 324 l 257
 609 189 l 257
 467 68 l 257
 357 212 l 257
 199 68 l 257
 97 189 l 257
 266 324 l 257
 145 458 l 257
 289 580 l 257
 397 435 l 257
EndSplineSet
EndChar

StartChar: divide.tabl
Encoding: 65732 -1 624
GlifName: divide.tabl
Width: 640
VWidth: 0
GlyphClass: 2
Flags: HW
LayerCount: 2
Fore
SplineSet
337 568 m 257
 505 568 l 257
 475 397 l 257
 307 397 l 257
 337 568 l 257
266 167 m 257
 434 167 l 257
 404 -4 l 257
 236 -4 l 257
 266 167 l 257
147 358 m 257
 620 358 l 257
 593 207 l 257
 120 207 l 257
 147 358 l 257
EndSplineSet
EndChar

StartChar: colon.ss03.tabl
Encoding: 65733 -1 625
GlifName: colon.ss03.tabl
Width: 640
VWidth: 0
GlyphClass: 2
Flags: HW
LayerCount: 2
Fore
SplineSet
284 414 m 260
 284 475 333 524 394 524 c 260
 455 524 505 475 505 414 c 260
 505 353 455 303 394 303 c 260
 333 303 284 353 284 414 c 260
225 99 m 260
 225 160 275 210 336 210 c 260
 397 210 446 160 446 99 c 260
 446 38 397 -11 336 -11 c 260
 275 -11 225 38 225 99 c 260
EndSplineSet
EndChar

StartChar: divide.ss03.tabl
Encoding: 65734 -1 626
GlifName: divide.ss03.tabl
Width: 640
VWidth: 0
GlyphClass: 2
Flags: HW
LayerCount: 2
Fore
SplineSet
291 490 m 260
 291 551 340 601 401 601 c 260
 462 601 512 551 512 490 c 260
 512 429 462 380 401 380 c 260
 340 380 291 429 291 490 c 260
231 74 m 260
 231 135 281 184 342 184 c 260
 403 184 453 135 453 74 c 260
 453 13 403 -37 342 -37 c 260
 281 -37 231 13 231 74 c 260
146 358 m 261
 620 358 l 261
 593 207 l 261
 120 207 l 261
 146 358 l 261
EndSplineSet
EndChar

StartChar: period.ss03.tabl
Encoding: 65735 -1 627
GlifName: period.ss03.tabl
Width: 640
VWidth: 0
GlyphClass: 2
Flags: HW
HStem: -11 221<254 386>
VStem: 209 221<33 166>
LayerCount: 2
Fore
SplineSet
230 99 m 260
 230 160 279 210 340 210 c 260
 401 210 451 160 451 99 c 260
 451 38 401 -11 340 -11 c 260
 279 -11 230 38 230 99 c 260
EndSplineSet
EndChar

StartChar: cent
Encoding: 162 162 628
GlifName: cent
Width: 607
VWidth: 0
GlyphClass: 2
Flags: HW
LayerCount: 2
Fore
SplineSet
395 665 m 257
 456 665 l 257
 339 0 l 257
 278 0 l 257
 395 665 l 257
89 299 m 0
 89 489 213 610 382 610 c 0
 552 610 638 522 638 377 c 257
 454 377 l 257
 454 429 427 457 376 457 c 0
 319 457 276 391 276 304 c 0
 276 244 303 213 357 213 c 4
 407 213 434 237 445 290 c 257
 625 290 l 257
 601 143 499 58 350 58 c 0
 191 58 89 153 89 299 c 0
EndSplineSet
EndChar

StartChar: sterling
Encoding: 163 163 629
GlifName: sterling
Width: 649
GlyphClass: 2
Flags: HW
LayerCount: 2
Fore
SplineSet
111 397 m 1
 548 397 l 1
 534 266 l 5
 88 266 l 1
 111 397 l 1
496 473 m 1
 496 502 479 520 452 520 c 0
 423 520 403 496 396 455 c 2
 361 257 l 2
 354 217 332 186 301 172 c 1
 644 172 l 1
 613 0 l 1
 36 0 l 1
 67 178 l 1
 124 193 161 224 168 265 c 2
 204 471 l 2
 225 592 328 674 459 674 c 0
 602 674 691 597 691 473 c 1
 496 473 l 1
EndSplineSet
EndChar

StartChar: currency
Encoding: 164 164 630
GlifName: currency
Width: 602
GlyphClass: 2
Flags: HW
LayerCount: 2
Fore
SplineSet
290 288 m 0
 283 246 302 220 341 220 c 0
 379 220 407 246 414 288 c 0
 421 329 402 355 364 355 c 0
 326 355 297 329 290 288 c 0
444 464 m 1
 531 542 l 1
 631 420 l 1
 545 351 l 1
 549 333 548 312 544 288 c 0
 540 265 532 243 521 221 c 1
 584 152 l 1
 440 30 l 1
 379 111 l 1
 361 106 342 103 320 103 c 0
 297 103 279 106 262 111 c 1
 172 30 l 1
 72 152 l 1
 160 221 l 1
 157 243 156 265 160 288 c 0
 164 308 171 328 182 350 c 1
 119 420 l 1
 262 542 l 1
 321 464 l 1
 342 469 364 472 384 472 c 0
 404 472 424 469 444 464 c 1
EndSplineSet
EndChar

StartChar: degree
Encoding: 176 176 631
GlifName: degree
Width: 435
GlyphClass: 2
Flags: HW
LayerCount: 2
Fore
SplineSet
253 493 m 4
 253 463 271 445 301 445 c 4
 334 445 358 473 358 512 c 4
 358 542 340 560 310 560 c 4
 277 560 253 532 253 493 c 4
499 521 m 4
 499 405 411 318 295 318 c 4
 187 318 113 386 113 483 c 4
 113 599 201 687 317 687 c 4
 425 687 499 619 499 521 c 4
EndSplineSet
EndChar

StartChar: yen
Encoding: 165 165 632
GlifName: yen
Width: 672
VWidth: 0
GlyphClass: 2
Flags: HW
LayerCount: 2
Fore
SplineSet
131 171 m 257
 604 171 l 257
 582 50 l 257
 109 50 l 257
 131 171 l 257
160 336 m 257
 633 336 l 257
 611 215 l 257
 138 215 l 257
 160 336 l 257
280 243 m 257
 133 666 l 257
 334 666 l 257
 401 421 l 261
 552 666 l 257
 775 666 l 257
 475 242 l 257
 432 0 l 257
 238 0 l 257
 280 243 l 257
EndSplineSet
EndChar

StartChar: brokenbar
Encoding: 166 166 633
GlifName: brokenbar
Width: 282
GlyphClass: 2
Flags: HW
LayerCount: 2
Fore
SplineSet
191 820 m 1
 381 820 l 5
 300 361 l 5
 110 361 l 1
 191 820 l 1
281 254 m 5
 200 -205 l 5
 10 -205 l 1
 91 254 l 1
 281 254 l 5
EndSplineSet
EndChar

StartChar: uni2070
Encoding: 8304 8304 634
GlifName: uni2070
Width: 472
VWidth: 372
GlyphClass: 2
Flags: HW
LayerCount: 2
Fore
SplineSet
34 567 m 260
 34 695 115 780 237 780 c 260
 358 780 438 695 438 567 c 260
 438 438 358 352 237 352 c 260
 115 352 34 438 34 567 c 260
292 567 m 260
 292 624 272 657 237 657 c 260
 201 657 180 624 180 567 c 260
 180 509 201 475 237 475 c 260
 272 475 292 509 292 567 c 260
EndSplineSet
EndChar

StartChar: uni2074
Encoding: 8308 8308 635
GlifName: uni2074
Width: 447
VWidth: 372
GlyphClass: 2
Flags: HW
LayerCount: 2
Fore
SplineSet
379 446 m 257
 379 373 l 257
 236 373 l 257
 236 446 l 257
 26 446 l 257
 26 566 l 257
 205 768 l 261
 379 768 l 257
 379 556 l 257
 432 556 l 257
 432 446 l 257
 379 446 l 257
236 556 m 257
 236 639 l 257
 171 556 l 257
 236 556 l 257
EndSplineSet
EndChar

StartChar: uni2075
Encoding: 8309 8309 636
GlifName: uni2075
Width: 457
VWidth: 372
GlyphClass: 2
Flags: HW
LayerCount: 2
Fore
SplineSet
265 500 m 256
 265 476 252 463 229 463 c 256
 207 463 194 475 193 493 c 257
 36 493 l 257
 43 411 124 354 237 354 c 256
 350 354 422 414 422 506 c 256
 422 579 369 630 293 630 c 256
 253 630 219 619 198 600 c 257
 206 652 l 257
 398 652 l 257
 398 768 l 257
 77 768 l 257
 38 517 l 257
 190 517 l 257
 197 531 209 539 224 539 c 256
 250 539 265 524 265 500 c 256
EndSplineSet
EndChar

StartChar: uni2076
Encoding: 8310 8310 637
GlifName: uni2076
Width: 467
VWidth: 372
GlyphClass: 2
Flags: HW
LayerCount: 2
Fore
SplineSet
36 570 m 256
 36 701 111 780 236 780 c 256
 337 780 407 733 424 653 c 257
 267 653 l 257
 262 667 255 675 238 675 c 256
 211 675 193 642 193 593 c 256
 193 588 193 583 193 578 c 257
 212 613 256 635 306 635 c 256
 379 635 432 581 432 507 c 256
 432 423 359 365 254 365 c 256
 120 365 36 444 36 570 c 256
205 502 m 256
 205 483 221 468 243 468 c 256
 263 468 275 481 275 500 c 256
 275 519 262 531 241 531 c 256
 219 531 205 520 205 502 c 256
EndSplineSet
EndChar

StartChar: uni2077
Encoding: 8311 8311 638
GlifName: uni2077
Width: 464
VWidth: 372
GlyphClass: 2
Flags: HW
LayerCount: 2
Fore
SplineSet
295 373 m 257
 295 485 329 560 429 616 c 257
 429 768 l 257
 36 768 l 257
 36 627 l 257
 244 627 l 261
 167 573 103 507 103 373 c 257
 295 373 l 257
EndSplineSet
EndChar

StartChar: uni2078
Encoding: 8312 8312 639
GlifName: uni2078
Width: 457
VWidth: 372
GlyphClass: 2
Flags: HW
LayerCount: 2
Fore
SplineSet
228 780 m 257
 228 673 l 257
 205 673 193 662 193 644 c 256
 193 626 205 615 227 615 c 257
 227 559 l 257
 110 559 46 596 46 663 c 256
 46 733 119 780 228 780 c 257
228 472 m 257
 228 365 l 257
 113 365 36 412 36 484 c 256
 36 552 104 590 227 590 c 257
 227 534 l 257
 204 534 193 523 193 504 c 256
 193 484 205 472 228 472 c 257
242 615 m 257
 242 534 l 257
 216 534 l 257
 216 615 l 257
 242 615 l 257
228 780 m 257
 338 780 412 733 412 662 c 256
 412 595 347 559 230 559 c 257
 230 615 l 257
 252 615 265 626 265 644 c 256
 265 662 252 673 228 673 c 257
 228 780 l 257
228 472 m 257
 251 472 265 483 265 503 c 256
 265 522 252 534 230 534 c 257
 230 590 l 257
 353 590 422 553 422 485 c 256
 422 413 344 365 228 365 c 257
 228 472 l 257
EndSplineSet
EndChar

StartChar: uni2079
Encoding: 8313 8313 640
GlifName: uni2079
Width: 467
VWidth: 372
GlyphClass: 2
Flags: HW
LayerCount: 2
Fore
SplineSet
432 574 m 256
 432 443 355 365 227 365 c 256
 123 365 52 412 34 492 c 257
 190 492 l 257
 193 476 204 470 221 470 c 256
 253 470 275 503 275 552 c 256
 275 557 275 562 275 567 c 257
 256 532 212 510 162 510 c 256
 89 510 36 564 36 638 c 256
 36 722 109 780 214 780 c 256
 348 780 432 700 432 574 c 256
263 643 m 256
 263 662 247 677 225 677 c 256
 205 677 193 664 193 645 c 256
 193 626 206 613 227 613 c 256
 249 613 263 625 263 643 c 256
EndSplineSet
EndChar

StartChar: uni207A
Encoding: 8314 8314 641
GlifName: uni207A_
Width: 397
VWidth: 372
GlyphClass: 2
Flags: HW
LayerCount: 2
Fore
SplineSet
264 636 m 257
 372 636 l 257
 372 505 l 257
 264 505 l 257
 264 397 l 257
 133 397 l 257
 133 505 l 257
 26 505 l 257
 26 636 l 257
 133 636 l 257
 133 743 l 257
 264 743 l 257
 264 636 l 257
EndSplineSet
EndChar

StartChar: uni207B
Encoding: 8315 8315 642
GlifName: uni207B_
Width: 397
VWidth: 372
GlyphClass: 2
Flags: HW
LayerCount: 2
Fore
SplineSet
26 636 m 1
 372 636 l 1
 372 505 l 1
 26 505 l 1
 26 636 l 1
EndSplineSet
EndChar

StartChar: uni207C
Encoding: 8316 8316 643
GlifName: uni207C_
Width: 397
VWidth: 372
GlyphClass: 2
Flags: HW
LayerCount: 2
Fore
SplineSet
26 541 m 5
 372 541 l 5
 372 410 l 5
 26 410 l 5
 26 541 l 5
26 735 m 5
 372 735 l 5
 372 604 l 5
 26 604 l 5
 26 735 l 5
EndSplineSet
EndChar

StartChar: uni207D
Encoding: 8317 8317 644
GlifName: uni207D_
Width: 296
VWidth: 372
GlyphClass: 2
Flags: HW
LayerCount: 2
Fore
SplineSet
282 256 m 261
 127 256 l 261
 69 314 26 437 26 564 c 256
 26 691 69 814 127 872 c 257
 282 872 l 257
 216 808 182 699 182 564 c 256
 182 429 216 320 282 256 c 261
EndSplineSet
EndChar

StartChar: uni207E
Encoding: 8318 8318 645
GlifName: uni207E_
Width: 296
VWidth: 372
GlyphClass: 2
Flags: HW
LayerCount: 2
Fore
SplineSet
15 872 m 257
 170 872 l 257
 228 814 271 691 271 564 c 256
 271 437 228 314 170 256 c 257
 15 256 l 257
 81 320 115 429 115 564 c 256
 115 699 81 808 15 872 c 257
EndSplineSet
EndChar

StartChar: uni207F
Encoding: 8319 8319 646
GlifName: uni207F_
Width: 518
VWidth: 372
GlyphClass: 2
Flags: HW
LayerCount: 2
Fore
SplineSet
323 584 m 258
 323 634 298 655 259 655 c 256
 225 655 200 628 200 590 c 257
 160 596 l 257
 160 716 246 788 325 788 c 260
 413 788 476 730 476 625 c 258
 476 372 l 257
 323 372 l 257
 323 584 l 258
46 768 m 257
 200 768 l 257
 200 372 l 257
 46 372 l 257
 46 768 l 257
EndSplineSet
EndChar

StartChar: uni2080
Encoding: 8320 8320 647
GlifName: uni2080
Width: 472
VWidth: -102
GlyphClass: 2
Flags: HW
LayerCount: 2
Fore
SplineSet
34 92 m 260
 34 220 115 305 237 305 c 260
 358 305 438 220 438 92 c 260
 438 -37 358 -123 237 -123 c 260
 115 -123 34 -37 34 92 c 260
292 92 m 260
 292 149 272 182 237 182 c 260
 201 182 180 149 180 92 c 260
 180 34 201 0 237 0 c 260
 272 0 292 34 292 92 c 260
EndSplineSet
EndChar

StartChar: uni2081
Encoding: 8321 8321 648
GlifName: uni2081
Width: 332
VWidth: -102
GlyphClass: 2
Flags: HW
LayerCount: 2
Fore
SplineSet
133 293 m 257
 287 293 l 257
 287 -102 l 257
 133 -102 l 257
 133 93 l 257
 26 93 l 257
 26 217 l 257
 73 217 l 258
 113 217 133 229 133 272 c 258
 133 293 l 257
EndSplineSet
EndChar

StartChar: uni2082
Encoding: 8322 8322 649
GlifName: uni2082
Width: 457
VWidth: -102
GlyphClass: 2
Flags: HW
LayerCount: 2
Fore
SplineSet
206 18 m 257
 418 18 l 257
 418 -102 l 257
 36 -102 l 257
 36 -68 l 258
 36 76 119 112 186 130 c 0
 229 142 265 146 265 169 c 256
 265 186 252 196 232 196 c 256
 208 196 194 182 193 162 c 257
 36 162 l 257
 44 247 122 305 232 305 c 256
 347 305 422 251 422 169 c 256
 422 98 359 72 301 55 c 0
 261 43 222 34 206 18 c 257
EndSplineSet
EndChar

StartChar: uni2083
Encoding: 8323 8323 650
GlifName: uni2083
Width: 467
VWidth: -102
GlyphClass: 2
Flags: HW
LayerCount: 2
Fore
SplineSet
282 135 m 257
 282 56 l 257
 197 56 l 257
 197 135 l 257
 282 135 l 257
243 77 m 257
 243 135 l 257
 257 135 265 144 265 160 c 256
 265 181 251 194 229 194 c 256
 207 194 194 181 193 159 c 257
 36 159 l 257
 44 247 122 305 232 305 c 256
 342 305 422 255 422 186 c 256
 422 112 364 77 243 77 c 257
243 115 m 261
 368 115 432 76 432 0 c 256
 432 -66 358 -111 249 -111 c 256
 130 -111 44 -49 36 42 c 257
 193 42 l 257
 196 17 213 3 240 3 c 256
 263 3 275 14 275 31 c 256
 275 47 264 56 243 56 c 257
 243 115 l 261
EndSplineSet
EndChar

StartChar: uni2084
Encoding: 8324 8324 651
GlifName: uni2084
Width: 447
VWidth: -102
GlyphClass: 2
Flags: HW
LayerCount: 2
Fore
SplineSet
379 -29 m 257
 379 -102 l 257
 236 -102 l 257
 236 -29 l 257
 26 -29 l 257
 26 91 l 257
 205 293 l 261
 379 293 l 257
 379 81 l 257
 432 81 l 257
 432 -29 l 257
 379 -29 l 257
236 81 m 257
 236 164 l 257
 171 81 l 257
 236 81 l 257
EndSplineSet
EndChar

StartChar: uni2085
Encoding: 8325 8325 652
GlifName: uni2085
Width: 457
VWidth: -102
GlyphClass: 2
Flags: HW
LayerCount: 2
Fore
SplineSet
265 25 m 256
 265 1 252 -12 229 -12 c 256
 207 -12 194 -1 193 17 c 257
 36 17 l 257
 43 -65 124 -121 237 -121 c 256
 350 -121 422 -61 422 31 c 256
 422 104 369 155 293 155 c 256
 253 155 219 144 198 125 c 257
 206 177 l 257
 398 177 l 257
 398 293 l 257
 77 293 l 257
 38 42 l 257
 190 42 l 257
 197 56 209 63 224 63 c 256
 250 63 265 49 265 25 c 256
EndSplineSet
EndChar

StartChar: uni2086
Encoding: 8326 8326 653
GlifName: uni2086
Width: 467
VWidth: -102
GlyphClass: 2
Flags: HW
LayerCount: 2
Fore
SplineSet
36 95 m 256
 36 226 111 305 236 305 c 256
 337 305 407 258 424 178 c 257
 267 178 l 257
 262 192 255 200 238 200 c 256
 211 200 193 167 193 118 c 256
 193 113 193 107 193 102 c 257
 212 137 256 160 306 160 c 256
 379 160 432 106 432 32 c 256
 432 -52 359 -111 254 -111 c 256
 120 -111 36 -31 36 95 c 256
205 27 m 256
 205 8 221 -7 243 -7 c 256
 263 -7 275 6 275 25 c 256
 275 44 262 56 241 56 c 256
 219 56 205 45 205 27 c 256
EndSplineSet
EndChar

StartChar: uni2087
Encoding: 8327 8327 654
GlifName: uni2087
Width: 464
VWidth: -102
GlyphClass: 2
Flags: HW
LayerCount: 2
Fore
SplineSet
295 -102 m 257
 295 10 329 85 429 141 c 257
 429 293 l 257
 36 293 l 257
 36 152 l 257
 244 152 l 261
 167 98 103 32 103 -102 c 257
 295 -102 l 257
EndSplineSet
EndChar

StartChar: uni2088
Encoding: 8328 8328 655
GlifName: uni2088
Width: 457
VWidth: -102
GlyphClass: 2
Flags: HW
LayerCount: 2
Fore
SplineSet
228 305 m 257
 228 198 l 257
 205 198 193 187 193 169 c 256
 193 151 205 140 227 140 c 257
 227 84 l 257
 110 84 46 121 46 188 c 256
 46 258 119 305 228 305 c 257
228 -3 m 257
 228 -111 l 257
 113 -111 36 -63 36 9 c 256
 36 77 104 115 227 115 c 257
 227 58 l 257
 204 58 193 47 193 28 c 256
 193 8 205 -3 228 -3 c 257
242 140 m 257
 242 58 l 257
 216 58 l 257
 216 140 l 257
 242 140 l 257
228 305 m 257
 338 305 412 258 412 187 c 256
 412 120 347 84 230 84 c 257
 230 140 l 257
 252 140 265 151 265 169 c 256
 265 187 252 198 228 198 c 257
 228 305 l 257
228 -3 m 257
 251 -3 265 8 265 28 c 256
 265 47 252 58 230 58 c 257
 230 115 l 257
 353 115 422 78 422 10 c 256
 422 -62 344 -111 228 -111 c 257
 228 -3 l 257
EndSplineSet
EndChar

StartChar: uni2089
Encoding: 8329 8329 656
GlifName: uni2089
Width: 467
VWidth: -102
GlyphClass: 2
Flags: HW
LayerCount: 2
Fore
SplineSet
432 99 m 256
 432 -32 355 -111 227 -111 c 256
 123 -111 52 -64 34 16 c 257
 190 16 l 257
 193 0 204 -5 221 -5 c 256
 253 -5 275 28 275 77 c 256
 275 82 275 87 275 92 c 257
 256 57 212 35 162 35 c 256
 89 35 36 89 36 163 c 256
 36 247 109 305 214 305 c 256
 348 305 432 225 432 99 c 256
263 168 m 256
 263 187 247 202 225 202 c 256
 205 202 193 189 193 170 c 256
 193 151 206 138 227 138 c 256
 249 138 263 150 263 168 c 256
EndSplineSet
EndChar

StartChar: uni208A
Encoding: 8330 8330 657
GlifName: uni208A_
Width: 397
VWidth: -102
GlyphClass: 2
Flags: HW
LayerCount: 2
Fore
SplineSet
264 161 m 257
 372 161 l 257
 372 30 l 257
 264 30 l 257
 264 -78 l 257
 133 -78 l 257
 133 30 l 257
 26 30 l 257
 26 161 l 257
 133 161 l 257
 133 268 l 257
 264 268 l 257
 264 161 l 257
EndSplineSet
EndChar

StartChar: uni208B
Encoding: 8331 8331 658
GlifName: uni208B_
Width: 397
VWidth: -102
GlyphClass: 2
Flags: HW
LayerCount: 2
Fore
SplineSet
26 161 m 1
 372 161 l 1
 372 30 l 1
 26 30 l 1
 26 161 l 1
EndSplineSet
EndChar

StartChar: uni208C
Encoding: 8332 8332 659
GlifName: uni208C_
Width: 397
VWidth: -102
GlyphClass: 2
Flags: HW
LayerCount: 2
Fore
SplineSet
26 66 m 5
 372 66 l 5
 372 -66 l 5
 26 -66 l 5
 26 66 l 5
26 260 m 5
 372 260 l 5
 372 129 l 5
 26 129 l 5
 26 260 l 5
EndSplineSet
EndChar

StartChar: uni208D
Encoding: 8333 8333 660
GlifName: uni208D_
Width: 296
VWidth: -102
GlyphClass: 2
Flags: HW
LayerCount: 2
Fore
SplineSet
282 -219 m 261
 127 -219 l 261
 69 -161 26 -38 26 89 c 256
 26 216 69 339 127 397 c 257
 282 397 l 257
 216 333 182 224 182 89 c 256
 182 -46 216 -155 282 -219 c 261
EndSplineSet
EndChar

StartChar: uni208E
Encoding: 8334 8334 661
GlifName: uni208E_
Width: 296
VWidth: -102
GlyphClass: 2
Flags: HW
LayerCount: 2
Fore
SplineSet
15 397 m 257
 170 397 l 257
 228 339 271 216 271 89 c 256
 271 -38 228 -161 170 -219 c 257
 15 -219 l 257
 81 -155 115 -46 115 89 c 256
 115 224 81 333 15 397 c 257
EndSplineSet
EndChar

StartChar: uni2099
Encoding: 8345 8345 662
GlifName: uni2099
Width: 518
VWidth: -102
GlyphClass: 2
Flags: HW
LayerCount: 2
Fore
SplineSet
323 109 m 258
 323 159 298 180 259 180 c 256
 225 180 200 153 200 115 c 257
 160 121 l 257
 160 241 246 313 325 313 c 260
 413 313 476 255 476 150 c 258
 476 -103 l 257
 323 -103 l 257
 323 109 l 258
46 293 m 257
 200 293 l 257
 200 -103 l 257
 46 -103 l 257
 46 293 l 257
EndSplineSet
EndChar

StartChar: uni2460
Encoding: 9312 9312 663
GlifName: uni2460
Width: 906
VWidth: 135
GlyphClass: 2
Flags: HW
LayerCount: 2
Fore
SplineSet
509 63 m 0
 672 63 783 173 783 334 c 0
 783 493 675 600 514 600 c 0
 353 600 246 492 246 329 c 0
 246 169 350 63 509 63 c 0
922 333 m 0
 922 99 755 -61 510 -61 c 0
 269 -61 108 92 108 322 c 0
 108 559 276 725 517 725 c 0
 756 725 922 565 922 333 c 0
461 530 m 261
 614 530 l 261
 614 135 l 261
 461 135 l 261
 461 331 l 261
 353 331 l 261
 353 455 l 261
 400 455 l 262
 440 455 461 467 461 510 c 262
 461 530 l 261
EndSplineSet
EndChar

StartChar: uni2461
Encoding: 9313 9313 664
GlifName: uni2461
Width: 906
VWidth: 135
GlyphClass: 2
Flags: HW
LayerCount: 2
Fore
SplineSet
509 63 m 4
 672 63 783 173 783 334 c 4
 783 493 675 600 514 600 c 4
 353 600 246 492 246 329 c 4
 246 169 350 63 509 63 c 4
922 333 m 4
 922 99 755 -61 510 -61 c 4
 269 -61 108 92 108 322 c 4
 108 559 276 725 517 725 c 4
 756 725 922 565 922 333 c 4
492 256 m 257
 703 256 l 257
 703 135 l 257
 322 135 l 257
 322 170 l 258
 322 281 366 338 472 368 c 0
 555 392 551 390 551 407 c 256
 551 424 538 433 518 433 c 256
 494 433 479 419 478 399 c 257
 322 399 l 257
 330 484 409 543 518 543 c 256
 633 543 708 489 708 407 c 256
 708 352 673 319 587 293 c 0
 492 263 504 268 492 256 c 257
EndSplineSet
EndChar

StartChar: uni2462
Encoding: 9314 9314 665
GlifName: uni2462
Width: 906
VWidth: 135
GlyphClass: 2
Flags: HW
LayerCount: 2
Fore
SplineSet
922 333 m 0
 922 99 755 -61 510 -61 c 0
 269 -61 108 92 108 322 c 0
 108 559 276 725 517 725 c 0
 756 725 922 565 922 333 c 0
509 63 m 0
 672 63 783 173 783 334 c 0
 783 493 675 600 514 600 c 0
 353 600 246 492 246 329 c 0
 246 169 350 63 509 63 c 0
644 334 m 1
 690 316 713 284 713 238 c 0
 713 172 638 127 529 127 c 0
 410 127 324 189 316 280 c 1
 473 280 l 1
 476 255 493 241 520 241 c 0
 543 241 556 251 556 268 c 0
 556 284 543 294 523 294 c 2
 477 294 l 1
 477 373 l 1
 523 373 l 2
 537 373 546 382 546 397 c 0
 546 417 533 431 510 431 c 0
 487 431 474 418 473 396 c 1
 316 396 l 1
 323 484 402 543 513 543 c 0
 623 543 702 493 702 424 c 0
 702 382 684 352 644 334 c 1
EndSplineSet
EndChar

StartChar: uni2463
Encoding: 9315 9315 666
GlifName: uni2463
Width: 906
VWidth: 135
GlyphClass: 2
Flags: HW
LayerCount: 2
Fore
SplineSet
509 63 m 0
 672 63 783 173 783 334 c 0
 783 493 675 600 514 600 c 0
 353 600 246 492 246 329 c 0
 246 169 350 63 509 63 c 0
922 333 m 0
 922 99 755 -61 510 -61 c 0
 269 -61 108 92 108 322 c 0
 108 559 276 725 517 725 c 0
 756 725 922 565 922 333 c 0
658 209 m 261
 658 135 l 261
 515 135 l 261
 515 209 l 261
 305 209 l 261
 305 329 l 261
 484 530 l 261
 658 530 l 261
 658 318 l 261
 712 318 l 261
 712 209 l 261
 658 209 l 261
515 318 m 261
 515 401 l 261
 451 318 l 261
 515 318 l 261
EndSplineSet
EndChar

StartChar: uni2464
Encoding: 9316 9316 667
GlifName: uni2464
Width: 906
VWidth: 135
GlyphClass: 2
Flags: HW
LayerCount: 2
Fore
SplineSet
509 63 m 0
 672 63 783 173 783 334 c 0
 783 493 675 600 514 600 c 0
 353 600 246 492 246 329 c 0
 246 169 350 63 509 63 c 0
922 333 m 0
 922 99 755 -61 510 -61 c 0
 269 -61 108 92 108 322 c 0
 108 559 276 725 517 725 c 0
 756 725 922 565 922 333 c 0
541 262 m 260
 541 238 528 225 505 225 c 260
 483 225 469 237 468 255 c 261
 311 255 l 261
 318 173 399 117 512 117 c 260
 625 117 697 176 697 268 c 260
 697 342 644 392 568 392 c 260
 528 392 495 381 473 362 c 261
 481 415 l 261
 674 415 l 261
 674 530 l 261
 352 530 l 261
 313 280 l 261
 466 280 l 261
 473 294 485 301 500 301 c 260
 526 301 541 287 541 262 c 260
EndSplineSet
EndChar

StartChar: uni2465
Encoding: 9317 9317 668
GlifName: uni2465
Width: 906
VWidth: 135
GlyphClass: 2
Flags: HW
LayerCount: 2
Fore
SplineSet
509 63 m 0
 672 63 783 173 783 334 c 0
 783 493 675 600 514 600 c 0
 353 600 246 492 246 329 c 0
 246 169 350 63 509 63 c 0
922 333 m 0
 922 99 755 -61 510 -61 c 0
 269 -61 108 92 108 322 c 0
 108 559 276 725 517 725 c 0
 756 725 922 565 922 333 c 0
306 333 m 260
 306 464 381 543 506 543 c 260
 607 543 677 496 694 416 c 261
 538 416 l 261
 533 431 523 437 508 437 c 260
 481 437 463 404 463 355 c 260
 463 350 463 345 463 340 c 261
 481 375 526 397 577 397 c 260
 650 397 702 343 702 269 c 260
 702 185 629 127 524 127 c 260
 390 127 306 207 306 333 c 260
475 264 m 260
 475 245 490 230 513 230 c 260
 532 230 546 243 546 262 c 260
 546 281 533 294 511 294 c 260
 489 294 475 281 475 264 c 260
EndSplineSet
EndChar

StartChar: uni2466
Encoding: 9318 9318 669
GlifName: uni2466
Width: 906
VWidth: 135
GlyphClass: 2
Flags: HW
LayerCount: 2
Fore
SplineSet
509 63 m 0
 672 63 783 173 783 334 c 0
 783 493 675 600 514 600 c 0
 353 600 246 492 246 329 c 0
 246 169 350 63 509 63 c 0
922 333 m 0
 922 99 755 -61 510 -61 c 0
 269 -61 108 92 108 322 c 0
 108 559 276 725 517 725 c 0
 756 725 922 565 922 333 c 0
579 128 m 261
 579 248 618 319 712 372 c 261
 712 523 l 261
 318 523 l 261
 318 382 l 261
 527 382 l 261
 426 311 386 240 386 128 c 261
 579 128 l 261
EndSplineSet
EndChar

StartChar: uni2467
Encoding: 9319 9319 670
GlifName: uni2467
Width: 906
VWidth: 135
GlyphClass: 2
Flags: HW
LayerCount: 2
Fore
SplineSet
922 333 m 0
 922 99 755 -61 510 -61 c 0
 269 -61 108 92 108 322 c 0
 108 559 276 725 517 725 c 0
 756 725 922 565 922 333 c 0
509 63 m 0
 672 63 783 173 783 334 c 0
 783 493 675 600 514 600 c 0
 353 600 246 492 246 329 c 0
 246 169 350 63 509 63 c 0
401 338 m 1
 356 355 332 384 332 425 c 0
 332 496 405 543 514 543 c 0
 624 543 697 496 697 425 c 0
 697 384 674 355 628 338 c 1
 680 321 708 290 708 247 c 0
 708 175 630 127 514 127 c 0
 398 127 322 175 322 247 c 0
 322 291 349 321 401 338 c 1
513 378 m 2
 516 378 l 2
 538 378 551 389 551 407 c 0
 551 425 538 435 514 435 c 0
 491 435 478 425 478 407 c 0
 478 389 490 378 513 378 c 2
513 296 m 2
 490 296 478 285 478 266 c 0
 478 246 491 234 514 234 c 0
 538 234 551 246 551 265 c 0
 551 284 539 296 516 296 c 2
 513 296 l 2
EndSplineSet
EndChar

StartChar: uni2468
Encoding: 9320 9320 671
GlifName: uni2468
Width: 906
VWidth: 135
GlyphClass: 2
Flags: HW
LayerCount: 2
Fore
SplineSet
509 63 m 0
 672 63 783 173 783 334 c 0
 783 493 675 600 514 600 c 0
 353 600 246 492 246 329 c 0
 246 169 350 63 509 63 c 0
922 333 m 0
 922 99 755 -61 510 -61 c 0
 269 -61 108 92 108 322 c 0
 108 559 276 725 517 725 c 0
 756 725 922 565 922 333 c 0
719 337 m 260
 719 206 642 127 514 127 c 260
 410 127 338 174 321 254 c 261
 477 254 l 261
 480 239 490 232 508 232 c 260
 541 232 562 265 562 314 c 260
 562 319 562 325 562 330 c 261
 544 295 500 272 449 272 c 260
 376 272 323 326 323 400 c 260
 323 484 396 543 501 543 c 260
 635 543 719 463 719 337 c 260
550 406 m 260
 550 425 535 439 512 439 c 260
 493 439 479 427 479 408 c 260
 479 389 492 376 514 376 c 260
 536 376 550 389 550 406 c 260
EndSplineSet
EndChar

StartChar: uni24EA
Encoding: 9450 9450 672
GlifName: uni24E_A_
Width: 906
VWidth: 135
GlyphClass: 2
Flags: HW
LayerCount: 2
Fore
SplineSet
509 63 m 4
 672 63 783 173 783 334 c 4
 783 493 675 600 514 600 c 4
 353 600 246 492 246 329 c 4
 246 169 350 63 509 63 c 4
922 333 m 4
 922 99 755 -61 510 -61 c 4
 269 -61 108 92 108 322 c 4
 108 559 276 725 517 725 c 4
 756 725 922 565 922 333 c 4
312 335 m 256
 312 460 393 543 515 543 c 256
 636 543 717 460 717 335 c 256
 717 209 636 125 515 125 c 256
 393 125 312 209 312 335 c 256
570 335 m 256
 570 389 550 420 515 420 c 256
 479 420 459 389 459 335 c 256
 459 280 479 248 515 248 c 256
 550 248 570 280 570 335 c 256
EndSplineSet
EndChar

StartChar: uni24FF
Encoding: 9471 9471 673
GlifName: uni24F_F_
Width: 906
VWidth: 135
GlyphClass: 2
Flags: HW
LayerCount: 2
Fore
SplineSet
922 333 m 0
 922 99 755 -61 510 -61 c 0
 269 -61 108 92 108 322 c 0
 108 559 276 725 517 725 c 0
 756 725 922 565 922 333 c 0
312 335 m 256
 312 209 393 125 515 125 c 256
 636 125 717 209 717 335 c 256
 717 460 636 543 515 543 c 256
 393 543 312 460 312 335 c 256
570 335 m 256
 570 280 550 248 515 248 c 256
 479 248 459 280 459 335 c 256
 459 389 479 420 515 420 c 256
 550 420 570 389 570 335 c 256
EndSplineSet
EndChar

StartChar: uni2776
Encoding: 10102 10102 674
GlifName: uni2776
Width: 906
VWidth: 135
GlyphClass: 2
Flags: HW
LayerCount: 2
Fore
SplineSet
922 333 m 0
 922 99 755 -61 510 -61 c 0
 269 -61 108 92 108 322 c 0
 108 559 276 725 517 725 c 0
 756 725 922 565 922 333 c 0
461 530 m 257
 461 510 l 258
 461 467 440 455 400 455 c 258
 353 455 l 257
 353 331 l 257
 461 331 l 257
 461 135 l 257
 614 135 l 257
 614 530 l 257
 461 530 l 257
EndSplineSet
EndChar

StartChar: uni2777
Encoding: 10103 10103 675
GlifName: uni2777
Width: 906
VWidth: 135
GlyphClass: 2
Flags: HW
LayerCount: 2
Fore
SplineSet
922 333 m 0
 922 99 755 -61 510 -61 c 0
 269 -61 108 92 108 322 c 0
 108 559 276 725 517 725 c 0
 756 725 922 565 922 333 c 0
492 256 m 257
 504 268 492 263 587 293 c 0
 673 319 708 352 708 407 c 256
 708 489 633 543 518 543 c 256
 409 543 330 484 322 399 c 257
 478 399 l 257
 479 419 494 433 518 433 c 256
 538 433 551 424 551 407 c 256
 551 390 555 392 472 368 c 0
 366 338 322 281 322 170 c 258
 322 135 l 257
 703 135 l 257
 703 256 l 257
 492 256 l 257
EndSplineSet
EndChar

StartChar: uni2778
Encoding: 10104 10104 676
GlifName: uni2778
Width: 906
VWidth: 135
GlyphClass: 2
Flags: HW
LayerCount: 2
Fore
SplineSet
922 333 m 0
 922 99 755 -61 510 -61 c 0
 269 -61 108 92 108 322 c 0
 108 559 276 725 517 725 c 0
 756 725 922 565 922 333 c 0
644 334 m 1
 684 352 702 382 702 424 c 0
 702 493 623 543 513 543 c 0
 402 543 323 484 316 396 c 1
 473 396 l 1
 474 418 487 431 510 431 c 0
 533 431 546 417 546 397 c 0
 546 382 537 373 523 373 c 2
 477 373 l 1
 477 294 l 1
 523 294 l 2
 543 294 556 284 556 268 c 0
 556 251 543 241 520 241 c 0
 493 241 476 255 473 280 c 1
 316 280 l 1
 324 189 410 127 529 127 c 0
 638 127 713 172 713 238 c 0
 713 284 690 316 644 334 c 1
EndSplineSet
EndChar

StartChar: uni2779
Encoding: 10105 10105 677
GlifName: uni2779
Width: 906
VWidth: 135
GlyphClass: 2
Flags: HW
LayerCount: 2
Fore
SplineSet
922 333 m 0
 922 99 755 -61 510 -61 c 0
 269 -61 108 92 108 322 c 0
 108 559 276 725 517 725 c 0
 756 725 922 565 922 333 c 0
658 209 m 257
 712 209 l 257
 712 318 l 257
 658 318 l 257
 658 530 l 257
 484 530 l 257
 305 329 l 257
 305 209 l 257
 515 209 l 257
 515 135 l 257
 658 135 l 257
 658 209 l 257
515 318 m 257
 451 318 l 257
 515 401 l 257
 515 318 l 257
EndSplineSet
EndChar

StartChar: uni277A
Encoding: 10106 10106 678
GlifName: uni277A_
Width: 906
VWidth: 135
GlyphClass: 2
Flags: HW
LayerCount: 2
Fore
SplineSet
922 333 m 0
 922 99 755 -61 510 -61 c 0
 269 -61 108 92 108 322 c 0
 108 559 276 725 517 725 c 0
 756 725 922 565 922 333 c 0
541 262 m 256
 541 238 528 225 505 225 c 256
 483 225 469 237 468 255 c 257
 311 255 l 257
 318 173 399 117 512 117 c 256
 625 117 697 176 697 268 c 256
 697 342 644 392 568 392 c 256
 528 392 495 381 473 362 c 257
 481 415 l 257
 674 415 l 257
 674 530 l 257
 352 530 l 257
 313 280 l 257
 466 280 l 257
 473 294 485 301 500 301 c 256
 526 301 541 287 541 262 c 256
EndSplineSet
EndChar

StartChar: uni277B
Encoding: 10107 10107 679
GlifName: uni277B_
Width: 906
VWidth: 135
GlyphClass: 2
Flags: HW
LayerCount: 2
Fore
SplineSet
922 333 m 0
 922 99 755 -61 510 -61 c 0
 269 -61 108 92 108 322 c 0
 108 559 276 725 517 725 c 0
 756 725 922 565 922 333 c 0
306 333 m 256
 306 207 390 127 524 127 c 256
 629 127 702 185 702 269 c 256
 702 343 650 397 577 397 c 256
 526 397 481 375 463 340 c 257
 463 345 463 350 463 355 c 256
 463 404 481 437 508 437 c 256
 523 437 533 431 538 416 c 257
 694 416 l 257
 677 496 607 543 506 543 c 256
 381 543 306 464 306 333 c 256
475 264 m 256
 475 281 489 294 511 294 c 256
 533 294 546 281 546 262 c 256
 546 243 532 230 513 230 c 256
 490 230 475 245 475 264 c 256
EndSplineSet
EndChar

StartChar: uni277C
Encoding: 10108 10108 680
GlifName: uni277C_
Width: 906
VWidth: 135
GlyphClass: 2
Flags: HW
LayerCount: 2
Fore
SplineSet
922 333 m 0
 922 99 755 -61 510 -61 c 0
 269 -61 108 92 108 322 c 0
 108 559 276 725 517 725 c 0
 756 725 922 565 922 333 c 0
579 128 m 257
 579 248 618 319 712 372 c 257
 712 523 l 257
 318 523 l 257
 318 382 l 257
 527 382 l 257
 426 311 386 240 386 128 c 257
 579 128 l 257
EndSplineSet
EndChar

StartChar: uni277D
Encoding: 10109 10109 681
GlifName: uni277D_
Width: 906
VWidth: 135
GlyphClass: 2
Flags: HW
LayerCount: 2
Fore
SplineSet
922 333 m 0
 922 99 755 -61 510 -61 c 0
 269 -61 108 92 108 322 c 0
 108 559 276 725 517 725 c 0
 756 725 922 565 922 333 c 0
628 338 m 1
 674 355 697 384 697 425 c 0
 697 496 624 543 514 543 c 0
 405 543 332 496 332 425 c 0
 332 384 356 355 401 338 c 1
 349 321 322 291 322 247 c 0
 322 175 398 127 514 127 c 0
 630 127 708 175 708 247 c 0
 708 290 680 321 628 338 c 1
516 378 m 2
 513 378 l 2
 490 378 478 389 478 407 c 0
 478 425 491 435 514 435 c 0
 538 435 551 425 551 407 c 0
 551 389 538 378 516 378 c 2
516 296 m 2
 539 296 551 284 551 265 c 0
 551 246 538 234 514 234 c 0
 491 234 478 246 478 266 c 0
 478 285 490 296 513 296 c 2
 516 296 l 2
EndSplineSet
EndChar

StartChar: uni277E
Encoding: 10110 10110 682
GlifName: uni277E_
Width: 906
VWidth: 135
GlyphClass: 2
Flags: HW
LayerCount: 2
Fore
SplineSet
922 333 m 0
 922 99 755 -61 510 -61 c 0
 269 -61 108 92 108 322 c 0
 108 559 276 725 517 725 c 0
 756 725 922 565 922 333 c 0
719 337 m 256
 719 463 635 543 501 543 c 256
 396 543 323 484 323 400 c 256
 323 326 376 272 449 272 c 256
 500 272 544 295 562 330 c 257
 562 325 562 319 562 314 c 256
 562 265 541 232 508 232 c 256
 490 232 480 239 477 254 c 257
 321 254 l 257
 338 174 410 127 514 127 c 256
 642 127 719 206 719 337 c 256
550 406 m 256
 550 389 536 376 514 376 c 256
 492 376 479 389 479 408 c 256
 479 427 493 439 512 439 c 256
 535 439 550 425 550 406 c 256
EndSplineSet
EndChar

StartChar: filledbox
Encoding: 9632 9632 683
GlifName: filledbox
Width: 906
GlyphClass: 2
Flags: HW
LayerCount: 2
Fore
SplineSet
922 -72 m 5
 108 -72 l 5
 108 737 l 5
 922 737 l 5
 922 -72 l 5
EndSplineSet
EndChar

StartChar: H22073
Encoding: 9633 9633 684
GlifName: H_22073
Width: 906
GlyphClass: 2
Flags: HW
LayerCount: 2
Fore
SplineSet
768 72 m 5
 768 594 l 1
 261 594 l 1
 261 72 l 5
 768 72 l 5
922 -72 m 5
 108 -72 l 5
 108 737 l 1
 922 737 l 1
 922 -72 l 5
EndSplineSet
EndChar

StartChar: triagup
Encoding: 9650 9650 685
GlifName: triagup
Width: 885
GlyphClass: 2
Flags: HW
LayerCount: 2
Fore
SplineSet
901 -61 m 1
 108 -61 l 1
 504 727 l 1
 901 -61 l 1
EndSplineSet
EndChar

StartChar: uni25B3
Encoding: 9651 9651 686
GlifName: uni25B_3
Width: 885
GlyphClass: 2
Flags: HW
LayerCount: 2
Fore
SplineSet
655 82 m 1
 504 410 l 1
 353 82 l 1
 655 82 l 1
901 -61 m 1
 108 -61 l 1
 504 727 l 1
 901 -61 l 1
EndSplineSet
EndChar

StartChar: uni25B6
Encoding: 9654 9654 687
GlifName: uni25B_6
Width: 885
GlyphClass: 2
Flags: HW
LayerCount: 2
Fore
SplineSet
110 -64 m 1
 110 730 l 1
 899 333 l 1
 110 -64 l 1
EndSplineSet
EndChar

StartChar: uni25B7
Encoding: 9655 9655 688
GlifName: uni25B_7
Width: 885
GlyphClass: 2
Flags: HW
LayerCount: 2
Fore
SplineSet
253 182 m 1
 581 333 l 1
 253 484 l 1
 253 182 l 1
110 -64 m 1
 110 730 l 1
 899 333 l 1
 110 -64 l 1
EndSplineSet
EndChar

StartChar: triagdn
Encoding: 9660 9660 689
GlifName: triagdn
Width: 885
GlyphClass: 2
Flags: HW
LayerCount: 2
Fore
SplineSet
108 727 m 1
 901 727 l 1
 504 -61 l 1
 108 727 l 1
EndSplineSet
EndChar

StartChar: uni25BD
Encoding: 9661 9661 690
GlifName: uni25B_D_
Width: 885
GlyphClass: 2
Flags: HW
LayerCount: 2
Fore
SplineSet
353 584 m 1
 504 256 l 1
 655 584 l 1
 353 584 l 1
108 727 m 1
 901 727 l 1
 504 -61 l 1
 108 727 l 1
EndSplineSet
EndChar

StartChar: uni25C0
Encoding: 9664 9664 691
GlifName: uni25C_0
Width: 885
GlyphClass: 2
Flags: HW
LayerCount: 2
Fore
SplineSet
899 730 m 1
 899 -64 l 1
 110 333 l 1
 899 730 l 1
EndSplineSet
EndChar

StartChar: uni25C1
Encoding: 9665 9665 692
GlifName: uni25C_1
Width: 885
GlyphClass: 2
Flags: HW
LayerCount: 2
Fore
SplineSet
755 484 m 1
 428 333 l 1
 755 182 l 1
 755 484 l 1
899 730 m 1
 899 -64 l 1
 110 333 l 1
 899 730 l 1
EndSplineSet
EndChar

StartChar: uni25C6
Encoding: 9670 9670 693
GlifName: uni25C_6
Width: 885
GlyphClass: 2
Flags: HW
LayerCount: 2
Fore
SplineSet
901 333 m 1
 499 -61 l 1
 108 322 l 1
 506 725 l 1
 901 333 l 1
EndSplineSet
EndChar

StartChar: uni25C7
Encoding: 9671 9671 694
GlifName: uni25C_7
Width: 885
GlyphClass: 2
Flags: HW
LayerCount: 2
Fore
SplineSet
901 333 m 1
 499 -61 l 1
 108 322 l 1
 506 725 l 1
 901 333 l 1
499 135 m 1
 688 334 l 1
 504 528 l 1
 310 329 l 1
 499 135 l 1
EndSplineSet
EndChar

StartChar: lozenge
Encoding: 9674 9674 695
GlifName: lozenge
Width: 660
GlyphClass: 2
Flags: HW
LayerCount: 2
Fore
SplineSet
385 88 m 5
 512 336 l 1
 393 575 l 1
 270 329 l 1
 385 88 l 5
676 337 m 1
 459 -51 l 1
 315 -51 l 1
 108 327 l 1
 322 715 l 1
 465 715 l 1
 676 337 l 1
EndSplineSet
EndChar

StartChar: circle
Encoding: 9675 9675 696
GlifName: circle
Width: 906
VWidth: 135
GlyphClass: 2
Flags: HW
LayerCount: 2
Fore
SplineSet
509 63 m 0
 672 63 783 173 783 334 c 0
 783 493 675 600 514 600 c 0
 353 600 246 492 246 329 c 0
 246 169 350 63 509 63 c 0
922 333 m 0
 922 99 755 -61 510 -61 c 0
 269 -61 108 92 108 322 c 0
 108 559 276 725 517 725 c 0
 756 725 922 565 922 333 c 0
EndSplineSet
EndChar

StartChar: H18533
Encoding: 9679 9679 697
GlifName: H_18533
Width: 906
VWidth: 135
GlyphClass: 2
Flags: HW
LayerCount: 2
Fore
SplineSet
922 333 m 0
 922 99 755 -61 510 -61 c 0
 269 -61 108 92 108 322 c 0
 108 559 276 725 517 725 c 0
 756 725 922 565 922 333 c 0
EndSplineSet
EndChar

StartChar: uni25D0
Encoding: 9680 9680 698
GlifName: uni25D_0
Width: 906
VWidth: 135
GlyphClass: 2
Flags: HW
LayerCount: 2
Fore
SplineSet
509 63 m 1
 672 63 783 173 783 334 c 0
 783 493 675 600 514 600 c 1
 509 63 l 1
922 333 m 0
 922 99 755 -61 510 -61 c 0
 269 -61 108 92 108 322 c 0
 108 559 276 725 517 725 c 0
 756 725 922 565 922 333 c 0
EndSplineSet
EndChar

StartChar: uni25D1
Encoding: 9681 9681 699
GlifName: uni25D_1
Width: 906
VWidth: 135
GlyphClass: 2
Flags: HW
LayerCount: 2
Fore
SplineSet
520 600 m 1
 357 600 246 490 246 329 c 0
 246 170 354 63 515 63 c 1
 520 600 l 1
108 331 m 0
 108 565 275 725 520 725 c 0
 761 725 922 571 922 341 c 0
 922 104 754 -61 513 -61 c 0
 274 -61 108 99 108 331 c 0
EndSplineSet
EndChar

StartChar: uni25D2
Encoding: 9682 9682 700
GlifName: uni25D_2
Width: 906
VWidth: 135
GlyphClass: 2
Flags: HW
LayerCount: 2
Fore
SplineSet
783 334 m 1
 783 493 675 600 514 600 c 0
 353 600 246 492 246 329 c 1
 783 334 l 1
922 333 m 0
 922 99 755 -61 510 -61 c 0
 269 -61 108 92 108 322 c 0
 108 559 276 725 517 725 c 0
 756 725 922 565 922 333 c 0
EndSplineSet
EndChar

StartChar: uni25D3
Encoding: 9683 9683 701
GlifName: uni25D_3
Width: 906
VWidth: 135
GlyphClass: 2
Flags: HW
LayerCount: 2
Fore
SplineSet
246 329 m 1
 246 170 354 63 515 63 c 0
 676 63 783 171 783 334 c 1
 246 329 l 1
108 331 m 0
 108 565 275 725 520 725 c 0
 761 725 922 571 922 341 c 0
 922 104 754 -61 513 -61 c 0
 274 -61 108 99 108 331 c 0
EndSplineSet
EndChar

StartChar: uni25E2
Encoding: 9698 9698 702
GlifName: uni25E_2
Width: 844
GlyphClass: 2
Flags: HW
LayerCount: 2
Fore
SplineSet
860 -41 m 1
 108 -41 l 5
 860 707 l 5
 860 -41 l 1
EndSplineSet
EndChar

StartChar: uni25E3
Encoding: 9699 9699 703
GlifName: uni25E_3
Width: 844
GlyphClass: 2
Flags: HW
LayerCount: 2
Fore
SplineSet
110 -44 m 1
 110 709 l 5
 858 -44 l 5
 110 -44 l 1
EndSplineSet
EndChar

StartChar: uni25E4
Encoding: 9700 9700 704
GlifName: uni25E_4
Width: 844
GlyphClass: 2
Flags: HW
LayerCount: 2
Fore
SplineSet
108 707 m 1
 860 707 l 5
 108 -41 l 5
 108 707 l 1
EndSplineSet
EndChar

StartChar: uni25E5
Encoding: 9701 9701 705
GlifName: uni25E_5
Width: 844
GlyphClass: 2
Flags: HW
LayerCount: 2
Fore
SplineSet
858 709 m 1
 858 -44 l 5
 110 709 l 5
 858 709 l 1
EndSplineSet
EndChar

StartChar: uni00B2
Encoding: 178 178 706
GlifName: uni00B_2
Width: 457
VWidth: 372
GlyphClass: 2
Flags: HW
LayerCount: 2
Fore
SplineSet
206 494 m 257
 418 494 l 257
 418 373 l 257
 36 373 l 257
 36 408 l 258
 36 552 119 587 186 605 c 0
 229 617 265 621 265 644 c 256
 265 661 252 671 232 671 c 256
 208 671 194 657 193 637 c 257
 36 637 l 257
 44 722 122 780 232 780 c 256
 347 780 422 726 422 644 c 256
 422 573 359 547 301 530 c 0
 261 518 222 510 206 494 c 257
EndSplineSet
EndChar

StartChar: uni00B3
Encoding: 179 179 707
GlifName: uni00B_3
Width: 467
VWidth: 372
GlyphClass: 2
Flags: HW
LayerCount: 2
Fore
SplineSet
282 610 m 257
 282 531 l 257
 197 531 l 257
 197 610 l 257
 282 610 l 257
243 552 m 257
 243 610 l 257
 257 610 265 619 265 635 c 256
 265 656 251 669 229 669 c 256
 207 669 194 656 193 634 c 257
 36 634 l 257
 44 722 122 780 232 780 c 256
 342 780 422 731 422 662 c 256
 422 588 364 552 243 552 c 257
243 590 m 261
 368 590 432 551 432 475 c 256
 432 409 358 365 249 365 c 256
 130 365 44 426 36 517 c 257
 193 517 l 257
 196 492 213 478 240 478 c 256
 263 478 275 489 275 506 c 256
 275 522 264 531 243 531 c 257
 243 590 l 261
EndSplineSet
EndChar

StartChar: uni00B9
Encoding: 185 185 708
GlifName: uni00B_9
Width: 332
VWidth: 372
GlyphClass: 2
Flags: HW
LayerCount: 2
Fore
SplineSet
133 768 m 257
 287 768 l 257
 287 373 l 257
 133 373 l 257
 133 568 l 257
 26 568 l 257
 26 692 l 257
 73 692 l 258
 113 692 133 705 133 748 c 258
 133 768 l 257
EndSplineSet
EndChar

StartChar: zero.dnom
Encoding: 65736 -1 709
GlifName: zero.dnom
Width: 472
VWidth: 0
GlyphClass: 2
Flags: HW
LayerCount: 2
Fore
SplineSet
34 195 m 260
 34 323 115 408 237 408 c 260
 358 408 438 323 438 195 c 260
 438 66 358 -20 237 -20 c 260
 115 -20 34 66 34 195 c 260
292 195 m 260
 292 252 272 285 237 285 c 260
 201 285 180 252 180 195 c 260
 180 137 201 102 237 102 c 260
 272 102 292 137 292 195 c 260
EndSplineSet
EndChar

StartChar: one.dnom
Encoding: 65737 -1 710
GlifName: one.dnom
Width: 332
VWidth: 0
GlyphClass: 2
Flags: HW
LayerCount: 2
Fore
SplineSet
133 395 m 257
 287 395 l 257
 287 0 l 257
 133 0 l 257
 133 196 l 257
 26 196 l 257
 26 319 l 257
 73 319 l 258
 113 319 133 332 133 375 c 258
 133 395 l 257
EndSplineSet
EndChar

StartChar: two.dnom
Encoding: 65738 -1 711
GlifName: two.dnom
Width: 457
VWidth: 0
GlyphClass: 2
Flags: HW
LayerCount: 2
Fore
SplineSet
206 121 m 257
 418 121 l 257
 418 0 l 257
 36 0 l 257
 36 35 l 258
 36 179 119 214 186 232 c 0
 229 244 265 248 265 271 c 256
 265 288 252 298 232 298 c 256
 208 298 194 284 193 264 c 257
 36 264 l 257
 44 349 122 408 232 408 c 256
 347 408 422 353 422 271 c 256
 422 200 359 175 301 158 c 0
 261 146 222 137 206 121 c 257
EndSplineSet
EndChar

StartChar: three.dnom
Encoding: 65739 -1 712
GlifName: three.dnom
Width: 467
VWidth: 0
GlyphClass: 2
Flags: HW
LayerCount: 2
Fore
SplineSet
282 238 m 257
 282 159 l 257
 197 159 l 257
 197 238 l 257
 282 238 l 257
243 179 m 257
 243 238 l 257
 257 238 265 246 265 262 c 256
 265 283 251 296 229 296 c 256
 207 296 194 283 193 261 c 257
 36 261 l 257
 44 349 122 408 232 408 c 256
 342 408 422 358 422 289 c 256
 422 215 364 179 243 179 c 257
243 217 m 261
 368 217 432 178 432 102 c 256
 432 36 358 -8 249 -8 c 256
 130 -8 44 53 36 144 c 257
 193 144 l 257
 196 119 213 105 240 105 c 256
 263 105 275 116 275 133 c 256
 275 149 264 159 243 159 c 257
 243 217 l 261
EndSplineSet
EndChar

StartChar: four.dnom
Encoding: 65740 -1 713
GlifName: four.dnom
Width: 447
VWidth: 0
GlyphClass: 2
Flags: HW
LayerCount: 2
Fore
SplineSet
379 74 m 257
 379 0 l 257
 236 0 l 257
 236 74 l 257
 26 74 l 257
 26 194 l 257
 205 395 l 261
 379 395 l 257
 379 183 l 257
 432 183 l 257
 432 74 l 257
 379 74 l 257
236 183 m 257
 236 266 l 257
 171 183 l 257
 236 183 l 257
EndSplineSet
EndChar

StartChar: five.dnom
Encoding: 65741 -1 714
GlifName: five.dnom
Width: 457
VWidth: 0
GlyphClass: 2
Flags: HW
LayerCount: 2
Fore
SplineSet
265 127 m 256
 265 103 252 90 229 90 c 256
 207 90 194 102 193 120 c 257
 36 120 l 257
 43 38 124 -18 237 -18 c 256
 350 -18 422 41 422 133 c 256
 422 206 369 257 293 257 c 256
 253 257 219 246 198 227 c 257
 206 280 l 257
 398 280 l 257
 398 395 l 257
 77 395 l 257
 38 144 l 257
 190 144 l 257
 197 158 209 166 224 166 c 256
 250 166 265 152 265 127 c 256
EndSplineSet
EndChar

StartChar: six.dnom
Encoding: 65742 -1 715
GlifName: six.dnom
Width: 467
VWidth: 0
GlyphClass: 2
Flags: HW
LayerCount: 2
Fore
SplineSet
36 198 m 256
 36 329 111 408 236 408 c 256
 337 408 407 361 424 281 c 257
 267 281 l 257
 262 295 255 302 238 302 c 256
 211 302 193 269 193 220 c 256
 193 215 193 210 193 205 c 257
 212 240 256 262 306 262 c 256
 379 262 432 208 432 134 c 256
 432 50 359 -8 254 -8 c 256
 120 -8 36 72 36 198 c 256
205 129 m 256
 205 110 221 95 243 95 c 256
 263 95 275 108 275 127 c 256
 275 146 262 159 241 159 c 256
 219 159 205 147 205 129 c 256
EndSplineSet
EndChar

StartChar: seven.dnom
Encoding: 65743 -1 716
GlifName: seven.dnom
Width: 464
VWidth: 0
GlyphClass: 2
Flags: HW
LayerCount: 2
Fore
SplineSet
295 0 m 257
 295 112 329 188 429 244 c 257
 429 395 l 257
 36 395 l 257
 36 254 l 257
 244 254 l 261
 167 200 103 134 103 0 c 257
 295 0 l 257
EndSplineSet
EndChar

StartChar: eight.dnom
Encoding: 65744 -1 717
GlifName: eight.dnom
Width: 457
VWidth: 0
GlyphClass: 2
Flags: HW
LayerCount: 2
Fore
SplineSet
228 408 m 257
 228 300 l 257
 205 300 193 289 193 271 c 256
 193 253 205 243 227 243 c 257
 227 186 l 257
 110 186 46 223 46 290 c 256
 46 360 119 408 228 408 c 257
228 99 m 257
 228 -8 l 257
 113 -8 36 39 36 111 c 256
 36 179 104 217 227 217 c 257
 227 161 l 257
 204 161 193 150 193 131 c 256
 193 111 205 99 228 99 c 257
242 243 m 257
 242 161 l 257
 216 161 l 257
 216 243 l 257
 242 243 l 257
228 408 m 257
 338 408 412 360 412 289 c 256
 412 222 347 186 230 186 c 257
 230 243 l 257
 252 243 265 253 265 271 c 256
 265 289 252 300 228 300 c 257
 228 408 l 257
228 99 m 257
 251 99 265 110 265 130 c 256
 265 149 252 161 230 161 c 257
 230 217 l 257
 353 217 422 180 422 112 c 256
 422 40 344 -8 228 -8 c 257
 228 99 l 257
EndSplineSet
EndChar

StartChar: nine.dnom
Encoding: 65745 -1 718
GlifName: nine.dnom
Width: 467
VWidth: 0
GlyphClass: 2
Flags: HW
LayerCount: 2
Fore
SplineSet
432 202 m 256
 432 71 355 -8 227 -8 c 256
 123 -8 52 39 34 119 c 257
 190 119 l 257
 193 103 204 97 221 97 c 256
 253 97 275 130 275 179 c 256
 275 184 275 190 275 195 c 257
 256 160 212 137 162 137 c 256
 89 137 36 191 36 265 c 256
 36 349 109 408 214 408 c 256
 348 408 432 328 432 202 c 256
263 270 m 256
 263 289 247 304 225 304 c 256
 205 304 193 291 193 272 c 256
 193 253 206 241 227 241 c 256
 249 241 263 252 263 270 c 256
EndSplineSet
EndChar

StartChar: zero.numr
Encoding: 65746 -1 719
GlifName: zero.numr
Width: 472
VWidth: 270
GlyphClass: 2
Flags: HW
LayerCount: 2
Fore
SplineSet
34 465 m 260
 34 593 115 678 237 678 c 260
 358 678 438 593 438 465 c 260
 438 336 358 250 237 250 c 260
 115 250 34 336 34 465 c 260
292 465 m 260
 292 522 272 555 237 555 c 260
 201 555 180 522 180 465 c 260
 180 407 201 373 237 373 c 260
 272 373 292 407 292 465 c 260
EndSplineSet
EndChar

StartChar: one.numr
Encoding: 65747 -1 720
GlifName: one.numr
Width: 332
VWidth: 270
GlyphClass: 2
Flags: HW
LayerCount: 2
Fore
SplineSet
133 666 m 257
 287 666 l 257
 287 270 l 257
 133 270 l 257
 133 466 l 257
 26 466 l 257
 26 590 l 257
 73 590 l 258
 113 590 133 602 133 645 c 258
 133 666 l 257
EndSplineSet
EndChar

StartChar: two.numr
Encoding: 65748 -1 721
GlifName: two.numr
Width: 457
VWidth: 270
GlyphClass: 2
Flags: HW
LayerCount: 2
Fore
SplineSet
206 391 m 257
 418 391 l 257
 418 270 l 257
 36 270 l 257
 36 305 l 258
 36 449 119 485 186 503 c 0
 229 515 265 519 265 542 c 256
 265 559 252 568 232 568 c 256
 208 568 194 555 193 535 c 257
 36 535 l 257
 44 620 122 678 232 678 c 256
 347 678 422 624 422 542 c 256
 422 471 359 445 301 428 c 0
 261 416 222 407 206 391 c 257
EndSplineSet
EndChar

StartChar: three.numr
Encoding: 65749 -1 722
GlifName: three.numr
Width: 467
VWidth: 270
GlyphClass: 2
Flags: HW
LayerCount: 2
Fore
SplineSet
282 508 m 257
 282 429 l 257
 197 429 l 257
 197 508 l 257
 282 508 l 257
243 450 m 257
 243 508 l 257
 257 508 265 516 265 532 c 256
 265 553 251 566 229 566 c 256
 207 566 194 553 193 531 c 257
 36 531 l 257
 44 619 122 678 232 678 c 256
 342 678 422 628 422 559 c 256
 422 485 364 450 243 450 c 257
243 487 m 261
 368 487 432 449 432 373 c 256
 432 307 358 262 249 262 c 256
 130 262 44 324 36 415 c 257
 193 415 l 257
 196 390 213 376 240 376 c 256
 263 376 275 386 275 403 c 256
 275 419 264 429 243 429 c 257
 243 487 l 261
EndSplineSet
EndChar

StartChar: four.numr
Encoding: 65750 -1 723
GlifName: four.numr
Width: 447
VWidth: 270
GlyphClass: 2
Flags: HW
LayerCount: 2
Fore
SplineSet
379 344 m 257
 379 270 l 257
 236 270 l 257
 236 344 l 257
 26 344 l 257
 26 464 l 257
 205 666 l 261
 379 666 l 257
 379 454 l 257
 432 454 l 257
 432 344 l 257
 379 344 l 257
236 454 m 257
 236 537 l 257
 171 454 l 257
 236 454 l 257
EndSplineSet
EndChar

StartChar: five.numr
Encoding: 65751 -1 724
GlifName: five.numr
Width: 457
VWidth: 270
GlyphClass: 2
Flags: HW
LayerCount: 2
Fore
SplineSet
265 397 m 256
 265 373 252 360 229 360 c 256
 207 360 194 372 193 390 c 257
 36 390 l 257
 43 308 124 252 237 252 c 256
 350 252 422 311 422 403 c 256
 422 476 369 527 293 527 c 256
 253 527 219 517 198 498 c 257
 206 550 l 257
 398 550 l 257
 398 666 l 257
 77 666 l 257
 38 415 l 257
 190 415 l 257
 197 429 209 436 224 436 c 256
 250 436 265 421 265 397 c 256
EndSplineSet
EndChar

StartChar: six.numr
Encoding: 65752 -1 725
GlifName: six.numr
Width: 467
VWidth: 270
GlyphClass: 2
Flags: HW
LayerCount: 2
Fore
SplineSet
36 468 m 256
 36 599 111 678 236 678 c 256
 337 678 407 631 424 551 c 257
 267 551 l 257
 262 565 255 572 238 572 c 256
 211 572 193 539 193 490 c 256
 193 485 193 480 193 475 c 257
 212 510 256 532 306 532 c 256
 379 532 432 478 432 404 c 256
 432 320 359 262 254 262 c 256
 120 262 36 342 36 468 c 256
205 399 m 256
 205 380 221 366 243 366 c 256
 263 366 275 378 275 397 c 256
 275 416 262 429 241 429 c 256
 219 429 205 417 205 399 c 256
EndSplineSet
EndChar

StartChar: seven.numr
Encoding: 65753 -1 726
GlifName: seven.numr
Width: 464
VWidth: 270
GlyphClass: 2
Flags: HW
LayerCount: 2
Fore
SplineSet
295 270 m 257
 295 382 329 458 429 514 c 257
 429 666 l 257
 36 666 l 257
 36 524 l 257
 244 524 l 261
 167 470 103 404 103 270 c 257
 295 270 l 257
EndSplineSet
EndChar

StartChar: eight.numr
Encoding: 65754 -1 727
GlifName: eight.numr
Width: 457
VWidth: 270
GlyphClass: 2
Flags: HW
LayerCount: 2
Fore
SplineSet
228 678 m 257
 228 570 l 257
 205 570 193 560 193 542 c 256
 193 524 205 513 227 513 c 257
 227 457 l 257
 110 457 46 493 46 560 c 256
 46 630 119 678 228 678 c 257
228 370 m 257
 228 262 l 257
 113 262 36 309 36 381 c 256
 36 449 104 487 227 487 c 257
 227 431 l 257
 204 431 193 420 193 401 c 256
 193 381 205 370 228 370 c 257
242 513 m 257
 242 431 l 257
 216 431 l 257
 216 513 l 257
 242 513 l 257
228 678 m 257
 338 678 412 631 412 560 c 256
 412 493 347 457 230 457 c 257
 230 513 l 257
 252 513 265 524 265 542 c 256
 265 560 252 570 228 570 c 257
 228 678 l 257
228 370 m 257
 251 370 265 381 265 401 c 256
 265 420 252 431 230 431 c 257
 230 487 l 257
 353 487 422 450 422 382 c 256
 422 310 344 262 228 262 c 257
 228 370 l 257
EndSplineSet
EndChar

StartChar: nine.numr
Encoding: 65755 -1 728
GlifName: nine.numr
Width: 467
VWidth: 270
GlyphClass: 2
Flags: HW
LayerCount: 2
Fore
SplineSet
432 472 m 256
 432 341 355 262 227 262 c 256
 123 262 52 309 34 389 c 257
 190 389 l 257
 193 373 204 368 221 368 c 256
 253 368 275 401 275 450 c 256
 275 455 275 460 275 465 c 257
 256 430 212 408 162 408 c 256
 89 408 36 462 36 536 c 256
 36 620 109 678 214 678 c 256
 348 678 432 598 432 472 c 256
263 541 m 256
 263 560 247 574 225 574 c 256
 205 574 193 562 193 543 c 256
 193 524 206 511 227 511 c 256
 249 511 263 523 263 541 c 256
EndSplineSet
EndChar

StartChar: onequarter
Encoding: 188 188 730
GlifName: onequarter
Width: 1055
VWidth: 0
GlyphClass: 2
Flags: HW
LayerCount: 2
Fore
SplineSet
959 74 m 261
 959 0 l 261
 816 0 l 261
 816 74 l 261
 606 74 l 261
 606 194 l 261
 785 395 l 261
 959 395 l 261
 959 183 l 261
 1013 183 l 261
 1013 74 l 261
 959 74 l 261
816 183 m 261
 816 266 l 261
 752 183 l 261
 816 183 l 261
187 666 m 257
 341 666 l 257
 341 270 l 257
 187 270 l 257
 187 466 l 257
 80 466 l 257
 80 590 l 257
 127 590 l 258
 167 590 187 602 187 645 c 258
 187 666 l 257
583 666 m 257
 746 666 l 257
 476 0 l 257
 312 0 l 257
 583 666 l 257
EndSplineSet
EndChar

StartChar: onehalf
Encoding: 189 189 731
GlifName: onehalf
Width: 1055
VWidth: 0
GlyphClass: 2
Flags: HW
LayerCount: 2
Fore
SplineSet
803 121 m 261
 1015 121 l 261
 1015 0 l 261
 633 0 l 261
 633 35 l 262
 633 179 716 214 783 232 c 4
 826 244 862 248 862 271 c 260
 862 288 849 298 829 298 c 260
 805 298 791 284 790 264 c 261
 633 264 l 261
 641 349 719 408 829 408 c 260
 944 408 1019 353 1019 271 c 260
 1019 200 956 175 898 158 c 4
 858 146 819 137 803 121 c 261
187 666 m 257
 341 666 l 257
 341 270 l 257
 187 270 l 257
 187 466 l 257
 80 466 l 257
 80 590 l 257
 127 590 l 258
 167 590 187 602 187 645 c 258
 187 666 l 257
583 666 m 257
 746 666 l 257
 476 0 l 257
 312 0 l 257
 583 666 l 257
EndSplineSet
EndChar

StartChar: threequarters
Encoding: 190 190 732
GlifName: threequarters
Width: 1055
VWidth: 0
GlyphClass: 2
Flags: HW
LayerCount: 2
Fore
SplineSet
282 508 m 257
 282 429 l 257
 197 429 l 257
 197 508 l 257
 282 508 l 257
243 450 m 257
 243 508 l 257
 257 508 265 516 265 532 c 256
 265 553 251 566 229 566 c 256
 207 566 194 553 193 531 c 257
 36 531 l 257
 44 619 122 678 232 678 c 256
 342 678 422 628 422 559 c 256
 422 485 364 450 243 450 c 257
243 487 m 257
 368 487 432 449 432 373 c 256
 432 307 358 262 249 262 c 256
 130 262 44 324 36 415 c 257
 193 415 l 257
 196 390 213 376 240 376 c 256
 263 376 275 386 275 403 c 256
 275 419 264 429 243 429 c 257
 243 487 l 257
959 74 m 261
 959 0 l 261
 816 0 l 261
 816 74 l 261
 606 74 l 261
 606 194 l 261
 785 395 l 261
 959 395 l 261
 959 183 l 261
 1013 183 l 261
 1013 74 l 261
 959 74 l 261
816 183 m 261
 816 266 l 261
 752 183 l 261
 816 183 l 261
583 666 m 257
 746 666 l 257
 476 0 l 257
 312 0 l 257
 583 666 l 257
EndSplineSet
EndChar

StartChar: section
Encoding: 167 167 733
GlifName: section
Width: 579
VWidth: 0
GlyphClass: 2
Flags: HW
LayerCount: 2
Fore
SplineSet
343 503 m 258
 448 493 l 258
 558 482 609 449 609 387 c 0
 609 305 503 251 340 251 c 257
 349 299 l 257
 382 299 403 314 403 338 c 0
 403 351 395 357 377 359 c 258
 284 370 l 258
 176 383 122 426 122 500 c 0
 122 607 227 683 374 683 c 256
 542 683 637 623 637 517 c 257
 438 517 l 257
 437 544 418 556 376 556 c 256
 340 556 313 541 313 520 c 0
 313 510 324 505 343 503 c 258
354 162 m 258
 248 172 l 258
 140 182 88 216 88 278 c 0
 88 355 191 403 355 403 c 257
 348 366 l 257
 315 366 294 351 294 327 c 0
 294 314 302 307 320 305 c 258
 412 295 l 258
 520 281 574 234 574 154 c 0
 574 53 469 -18 322 -18 c 256
 160 -18 60 44 60 147 c 257
 258 147 l 257
 259 120 279 109 321 109 c 256
 357 109 384 123 384 144 c 0
 384 154 373 160 354 162 c 258
EndSplineSet
EndChar

StartChar: guillemotleft
Encoding: 171 171 734
GlifName: guillemotleft
Width: 625
VWidth: 0
GlyphClass: 2
Flags: HW
LayerCount: 2
Fore
SplineSet
705 594 m 257
 669 393 l 257
 518 315 l 257
 643 244 l 257
 607 41 l 257
 370 207 l 257
 409 428 l 257
 705 594 l 257
398 594 m 257
 362 393 l 257
 211 315 l 257
 336 244 l 257
 300 41 l 257
 63 207 l 257
 102 428 l 257
 398 594 l 257
EndSplineSet
EndChar

StartChar: guillemotright
Encoding: 187 187 735
GlifName: guillemotright
Width: 625
VWidth: 0
GlyphClass: 2
Flags: HW
LayerCount: 2
Fore
SplineSet
34 41 m 257
 69 242 l 257
 220 319 l 257
 96 391 l 257
 131 594 l 257
 368 428 l 257
 329 207 l 257
 34 41 l 257
341 41 m 257
 376 242 l 257
 527 319 l 257
 403 391 l 257
 439 594 l 257
 676 428 l 257
 637 207 l 257
 341 41 l 257
EndSplineSet
EndChar

StartChar: plusminus
Encoding: 177 177 736
GlifName: plusminus
Width: 602
VWidth: 0
GlyphClass: 2
Flags: HW
LayerCount: 2
Fore
SplineSet
595 102 m 257
 564 -70 l 257
 13 -70 l 257
 44 102 l 257
 595 102 l 257
468 461 m 257
 658 461 l 257
 627 289 l 257
 438 289 l 257
 414 151 l 257
 242 151 l 257
 266 289 l 257
 77 289 l 257
 107 461 l 257
 296 461 l 257
 321 599 l 257
 493 599 l 257
 468 461 l 257
EndSplineSet
EndChar

StartChar: dieresis
Encoding: 168 168 737
GlifName: dieresis
Width: 503
VWidth: 0
GlyphClass: 2
Flags: HW
LayerCount: 2
Fore
SplineSet
290 693 m 257
 478 693 l 257
 478 512 l 257
 290 512 l 257
 290 693 l 257
26 693 m 257
 214 693 l 257
 214 512 l 257
 26 512 l 257
 26 693 l 257
EndSplineSet
EndChar

StartChar: copyright
Encoding: 169 169 738
GlifName: copyright
Width: 906
VWidth: 135
GlyphClass: 2
Flags: HW
LayerCount: 2
Fore
SplineSet
298 332 m 256
 298 460 383 545 513 545 c 256
 629 545 713 481 721 370 c 257
 564 370 l 257
 563 409 544 422 513 422 c 256
 476 422 455 390 455 332 c 256
 455 273 476 240 513 240 c 256
 543 240 562 250 564 283 c 257
 721 283 l 257
 710 175 628 117 513 117 c 256
 384 117 298 203 298 332 c 256
509 63 m 0
 672 63 783 173 783 334 c 0
 783 493 675 600 514 600 c 0
 353 600 246 492 246 329 c 0
 246 169 350 63 509 63 c 0
922 333 m 0
 922 99 755 -61 510 -61 c 0
 269 -61 108 92 108 322 c 0
 108 559 276 725 517 725 c 0
 756 725 922 565 922 333 c 0
EndSplineSet
EndChar

StartChar: ordfeminine
Encoding: 170 170 739
GlifName: ordfeminine
Width: 513
GlyphClass: 2
Flags: HW
LayerCount: 2
Fore
SplineSet
537 382 m 2
 528 331 524 290 527 260 c 1
 372 260 l 1
 371 293 373 329 381 374 c 2
 410 535 l 2
 413 554 394 569 364 569 c 0
 324 569 299 557 291 530 c 1
 133 530 l 1
 157 620 233 678 361 678 c 0
 513 678 575 604 561 522 c 2
 537 382 l 2
426 424 m 1
 410 328 331 250 248 250 c 0
 159 250 100 296 100 368 c 4
 100 440 164 490 270 499 c 2
 361 508 l 2
 394 511 407 517 410 532 c 1
 392 428 l 1
 302 419 l 2
 273 416 260 406 260 388 c 0
 260 373 277 364 305 364 c 0
 348 364 384 389 390 424 c 1
 426 424 l 1
EndSplineSet
Substitution2: "ss01StyleSet1inLatinlookup0 subtable" ordfeminine.ss01
EndChar

StartChar: logicalnot
Encoding: 172 172 740
GlifName: logicalnot
Width: 657
VWidth: 0
GlyphClass: 2
Flags: HW
LayerCount: 2
Fore
SplineSet
472 197 m 1
 60 197 l 1
 91 369 l 1
 697 369 l 1
 643 61 l 5
 448 61 l 5
 472 197 l 1
EndSplineSet
EndChar

StartChar: uni00AD
Encoding: 173 173 741
GlifName: uni00A_D_
Width: 432
VWidth: 0
GlyphClass: 2
Flags: HW
LayerCount: 2
Fore
SplineSet
91 369 m 257
 472 369 l 257
 441 197 l 257
 60 197 l 257
 91 369 l 257
EndSplineSet
EndChar

StartChar: registered
Encoding: 174 174 742
GlifName: registered
Width: 906
VWidth: 135
GlyphClass: 2
Flags: HW
LayerCount: 2
Fore
SplineSet
507 246 m 257
 534 331 l 257
 642 331 683 307 694 222 c 258
 705 136 l 257
 564 136 l 257
 555 205 l 258
 551 232 538 246 507 246 c 257
518 417 m 258
 463 417 l 257
 463 350 l 257
 518 350 l 258
 542 350 556 363 556 385 c 256
 556 405 542 417 518 417 c 258
534 300 m 257
 523 246 l 257
 463 246 l 257
 463 136 l 257
 319 136 l 257
 319 524 l 257
 557 524 l 258
 641 524 697 481 697 416 c 256
 697 347 632 300 534 300 c 257
509 63 m 0
 672 63 783 173 783 334 c 0
 783 493 675 600 514 600 c 0
 353 600 246 492 246 329 c 0
 246 169 350 63 509 63 c 0
922 333 m 0
 922 99 755 -61 510 -61 c 0
 269 -61 108 92 108 322 c 0
 108 559 276 725 517 725 c 0
 756 725 922 565 922 333 c 0
EndSplineSet
EndChar

StartChar: macron
Encoding: 175 175 743
GlifName: macron
Width: 419
VWidth: 0
GlyphClass: 2
Flags: HW
LayerCount: 2
Fore
SplineSet
142 662 m 257
 511 662 l 257
 486 522 l 257
 118 522 l 257
 142 662 l 257
EndSplineSet
EndChar

StartChar: acute
Encoding: 180 180 744
GlifName: acute
Width: 368
VWidth: 0
GlyphClass: 2
Flags: HW
LayerCount: 2
Fore
SplineSet
469 717 m 257
 269 512 l 257
 116 512 l 257
 254 717 l 257
 469 717 l 257
EndSplineSet
EndChar

StartChar: mu
Encoding: 181 181 745
GlifName: mu
Width: 610
VWidth: 0
GlyphClass: 2
Flags: HW
LayerCount: 2
Fore
SplineSet
134 512 m 257
 329 512 l 257
 209 -167 l 257
 15 -167 l 257
 134 512 l 257
278 225 m 257
 270 178 289 154 334 154 c 256
 371 154 403 181 410 219 c 257
 449 213 l 257
 449 99 354 -20 262 -20 c 256
 126 -20 58 59 87 184 c 257
 278 225 l 257
566 0 m 257
 372 0 l 257
 462 512 l 257
 657 512 l 257
 566 0 l 257
EndSplineSet
EndChar

StartChar: paragraph
Encoding: 182 182 746
GlifName: paragraph
Width: 741
GlyphClass: 2
Flags: HW
LayerCount: 2
Fore
SplineSet
305 258 m 1
 188 258 114 329 114 443 c 0
 114 556 202 666 356 666 c 6
 802 666 l 1
 685 0 l 1
 511 0 l 1
 599 498 l 1
 527 498 l 1
 439 0 l 1
 259 0 l 1
 305 258 l 1
EndSplineSet
EndChar

StartChar: cedilla
Encoding: 184 184 747
GlifName: cedilla
Width: 313
VWidth: 0
GlyphClass: 2
Flags: HW
LayerCount: 2
Fore
SplineSet
99 10 m 257
 199 10 l 257
 159 -56 l 257
 173 -56 l 258
 241 -56 288 -106 288 -179 c 256
 288 -249 221 -294 117 -294 c 258
 26 -294 l 257
 26 -161 l 257
 109 -161 l 258
 130 -161 141 -152 141 -137 c 256
 141 -125 132 -118 115 -118 c 258
 80 -118 l 257
 54 -77 l 257
 99 10 l 257
EndSplineSet
EndChar

StartChar: ordmasculine
Encoding: 186 186 748
GlifName: ordmasculine
Width: 513
VWidth: 270
GlyphClass: 2
Flags: HW
LayerCount: 2
Fore
SplineSet
111 439 m 4
 111 577 211 678 347 678 c 4
 475 678 560 604 560 490 c 4
 560 352 460 249 324 249 c 4
 196 249 111 325 111 439 c 4
413 484 m 4
 413 529 388 555 343 555 c 4
 292 555 258 510 258 445 c 4
 258 399 283 373 328 373 c 4
 378 373 413 419 413 484 c 4
EndSplineSet
EndChar

StartChar: ordfeminine.ss01
Encoding: 65756 -1 749
GlifName: ordfeminine.ss01
Width: 513
VWidth: 270
GlyphClass: 2
Flags: HW
LayerCount: 2
Fore
SplineSet
333 666 m 257
 479 666 l 257
 479 262 l 257
 333 262 l 257
 333 666 l 257
34 465 m 256
 34 593 110 678 224 678 c 256
 322 678 387 593 387 465 c 256
 387 336 322 250 224 250 c 256
 110 250 34 336 34 465 c 256
333 465 m 256
 333 522 305 555 257 555 c 256
 208 555 180 522 180 465 c 256
 180 407 208 373 257 373 c 256
 305 373 333 407 333 465 c 256
EndSplineSet
EndChar

StartChar: arrowleft
Encoding: 8592 8592 750
GlifName: arrowleft
Width: 798
GlyphClass: 2
Flags: HW
LayerCount: 2
Fore
SplineSet
219 269 m 1
 219 422 l 1
 824 422 l 5
 824 269 l 1
 219 269 l 1
97 346 m 1
 339 587 l 1
 425 501 l 1
 269 346 l 1
 425 190 l 1
 339 104 l 1
 97 346 l 1
EndSplineSet
EndChar

StartChar: uni2196
Encoding: 8598 8598 751
GlifName: uni2196
Width: 640
GlyphClass: 2
Flags: HW
LayerCount: 2
Fore
SplineSet
129 486 m 1
 237 594 l 1
 666 167 l 1
 557 58 l 1
 129 486 l 1
97 627 m 5
 438 627 l 5
 438 504 l 5
 218 504 l 5
 218 285 l 5
 97 285 l 5
 97 627 l 5
EndSplineSet
EndChar

StartChar: uni2197
Encoding: 8599 8599 752
GlifName: uni2197
Width: 640
GlyphClass: 2
Flags: HW
LayerCount: 2
Fore
SplineSet
525 595 m 1
 633 487 l 1
 206 58 l 1
 97 167 l 1
 525 595 l 1
666 627 m 1
 666 286 l 1
 543 286 l 1
 543 506 l 1
 324 506 l 1
 324 627 l 1
 666 627 l 1
EndSplineSet
EndChar

StartChar: uni2198
Encoding: 8600 8600 753
GlifName: uni2198
Width: 640
GlyphClass: 2
Flags: HW
LayerCount: 2
Fore
SplineSet
634 199 m 1
 526 91 l 1
 97 518 l 1
 206 627 l 1
 634 199 l 1
666 58 m 1
 325 58 l 1
 325 181 l 1
 545 181 l 1
 545 400 l 1
 666 400 l 1
 666 58 l 1
EndSplineSet
EndChar

StartChar: uni2199
Encoding: 8601 8601 754
GlifName: uni2199
Width: 640
GlyphClass: 2
Flags: HW
LayerCount: 2
Fore
SplineSet
238 90 m 1
 130 198 l 1
 557 627 l 1
 666 518 l 1
 238 90 l 1
97 58 m 1
 97 399 l 1
 220 399 l 1
 220 179 l 1
 439 179 l 1
 439 58 l 1
 97 58 l 1
EndSplineSet
EndChar

StartChar: arrowup
Encoding: 8593 8593 755
GlifName: arrowup
Width: 555
GlyphClass: 2
Flags: HW
LayerCount: 2
Fore
SplineSet
263 588 m 1
 415 588 l 1
 417 -18 l 1
 263 -18 l 1
 263 588 l 1
339 709 m 1
 581 467 l 1
 495 381 l 1
 339 537 l 1
 183 381 l 1
 97 467 l 1
 339 709 l 1
EndSplineSet
EndChar

StartChar: arrowright
Encoding: 8594 8594 756
GlifName: arrowright
Width: 798
GlyphClass: 2
Flags: HW
LayerCount: 2
Fore
SplineSet
702 422 m 1
 702 269 l 1
 97 269 l 1
 97 422 l 1
 702 422 l 1
824 345 m 5
 583 104 l 5
 497 190 l 5
 652 345 l 5
 497 501 l 5
 583 587 l 5
 824 345 l 5
EndSplineSet
EndChar

StartChar: arrowdown
Encoding: 8595 8595 757
GlifName: arrowdown
Width: 555
GlyphClass: 2
Flags: HW
LayerCount: 2
Fore
SplineSet
415 104 m 1
 263 104 l 1
 261 709 l 1
 415 709 l 1
 415 104 l 1
339 -18 m 5
 97 223 l 5
 183 309 l 5
 339 154 l 5
 495 309 l 5
 581 223 l 5
 339 -18 l 5
EndSplineSet
EndChar

StartChar: arrowboth
Encoding: 8596 8596 758
GlifName: arrowboth
Width: 798
GlyphClass: 2
Flags: HW
LayerCount: 2
Fore
SplineSet
824 345 m 1
 583 104 l 1
 497 190 l 1
 652 345 l 1
 497 501 l 1
 583 587 l 1
 824 345 l 1
219 269 m 1
 219 422 l 1
 702 422 l 1
 702 269 l 1
 219 269 l 1
97 346 m 1
 339 587 l 1
 425 501 l 1
 269 346 l 1
 425 190 l 1
 339 104 l 1
 97 346 l 1
EndSplineSet
EndChar

StartChar: arrowupdn
Encoding: 8597 8597 759
GlifName: arrowupdn
Width: 555
GlyphClass: 2
Flags: HW
LayerCount: 2
Fore
SplineSet
339 -18 m 1
 97 223 l 1
 183 309 l 1
 339 154 l 1
 495 309 l 1
 581 223 l 1
 339 -18 l 1
263 586 m 1
 415 586 l 1
 415 102 l 1
 263 102 l 1
 263 586 l 1
339 709 m 1
 581 467 l 1
 495 381 l 1
 339 537 l 1
 183 381 l 1
 97 467 l 1
 339 709 l 1
EndSplineSet
EndChar

StartChar: arrowdblleft
Encoding: 8656 8656 760
GlifName: arrowdblleft
Width: 798
GlyphClass: 2
Flags: HW
LayerCount: 2
Fore
SplineSet
260 218 m 5
 260 319 l 5
 824 321 l 1
 824 218 l 1
 260 218 l 5
260 372 m 5
 260 473 l 5
 824 474 l 1
 824 372 l 1
 260 372 l 5
97 346 m 1
 349 597 l 1
 425 521 l 1
 249 346 l 1
 425 170 l 1
 349 94 l 1
 97 346 l 1
EndSplineSet
EndChar

StartChar: arrowdblup
Encoding: 8657 8657 761
GlifName: arrowdblup
Width: 574
GlyphClass: 2
Flags: HW
LayerCount: 2
Fore
SplineSet
221 546 m 5
 323 546 l 5
 324 -18 l 1
 221 -18 l 1
 221 546 l 5
375 546 m 5
 476 546 l 5
 477 -18 l 1
 375 -18 l 1
 375 546 l 5
349 709 m 1
 600 457 l 1
 524 381 l 1
 349 558 l 1
 173 381 l 1
 97 457 l 1
 349 709 l 1
EndSplineSet
EndChar

StartChar: arrowdblright
Encoding: 8658 8658 762
GlifName: arrowdblright
Width: 798
GlyphClass: 2
Flags: HW
LayerCount: 2
Fore
SplineSet
662 473 m 5
 662 372 l 5
 97 371 l 1
 97 473 l 1
 662 473 l 5
662 319 m 5
 662 218 l 5
 97 217 l 1
 97 319 l 1
 662 319 l 5
824 345 m 1
 572 94 l 1
 497 170 l 1
 673 345 l 1
 497 521 l 1
 572 597 l 1
 824 345 l 1
EndSplineSet
EndChar

StartChar: arrowdbldown
Encoding: 8659 8659 763
GlifName: arrowdbldown
Width: 574
GlyphClass: 2
Flags: HW
LayerCount: 2
Fore
SplineSet
476 145 m 5
 375 145 l 5
 374 709 l 1
 476 709 l 1
 476 145 l 5
323 145 m 5
 221 145 l 5
 220 709 l 1
 323 709 l 1
 323 145 l 5
348 -18 m 1
 97 234 l 1
 173 310 l 1
 348 134 l 1
 524 310 l 1
 600 234 l 1
 348 -18 l 1
EndSplineSet
EndChar

StartChar: arrowdblboth
Encoding: 8660 8660 764
GlifName: arrowdblboth
Width: 798
GlyphClass: 2
Flags: HW
LayerCount: 2
Fore
SplineSet
824 345 m 1
 572 94 l 1
 497 170 l 1
 673 345 l 1
 497 521 l 1
 572 597 l 1
 824 345 l 1
260 218 m 1
 260 319 l 1
 662 321 l 1
 662 218 l 1
 260 218 l 1
260 372 m 1
 260 473 l 1
 662 474 l 1
 662 372 l 1
 260 372 l 1
97 346 m 1
 349 597 l 1
 425 521 l 1
 249 346 l 1
 425 170 l 1
 349 94 l 1
 97 346 l 1
EndSplineSet
EndChar

StartChar: uni21D5
Encoding: 8661 8661 765
GlifName: uni21D_5
Width: 574
GlyphClass: 2
Flags: HW
LayerCount: 2
Fore
SplineSet
348 -18 m 1
 97 234 l 1
 173 310 l 1
 348 134 l 1
 524 310 l 1
 600 234 l 1
 348 -18 l 1
221 546 m 1
 323 546 l 1
 324 145 l 1
 221 145 l 1
 221 546 l 1
375 546 m 1
 476 546 l 1
 477 145 l 1
 375 145 l 1
 375 546 l 1
349 709 m 1
 600 457 l 1
 524 381 l 1
 349 558 l 1
 173 381 l 1
 97 457 l 1
 349 709 l 1
EndSplineSet
EndChar

StartChar: uni21D6
Encoding: 8662 8662 766
GlifName: uni21D_6
Width: 676
GlyphClass: 2
Flags: HW
LayerCount: 2
Fore
SplineSet
122 429 m 5
 194 501 l 5
 594 102 l 5
 521 30 l 5
 122 429 l 5
230 538 m 5
 302 609 l 5
 702 211 l 5
 630 139 l 5
 230 538 l 5
97 635 m 5
 454 635 l 5
 454 527 l 5
 205 527 l 5
 205 279 l 5
 97 279 l 5
 97 635 l 5
EndSplineSet
EndChar

StartChar: uni21D7
Encoding: 8663 8663 767
GlifName: uni21D_7
Width: 676
GlyphClass: 2
Flags: HW
LayerCount: 2
Fore
SplineSet
497 610 m 5
 568 539 l 5
 170 138 l 5
 97 211 l 5
 497 610 l 5
605 502 m 5
 677 430 l 5
 279 30 l 5
 207 102 l 5
 605 502 l 5
702 635 m 5
 702 279 l 5
 595 279 l 5
 595 527 l 5
 346 527 l 5
 346 635 l 5
 702 635 l 5
EndSplineSet
EndChar

StartChar: uni21D8
Encoding: 8664 8664 768
GlifName: uni21D_8
Width: 676
GlyphClass: 2
Flags: HW
LayerCount: 2
Fore
SplineSet
678 236 m 5
 606 164 l 5
 206 562 l 5
 279 635 l 5
 678 236 l 5
569 127 m 5
 498 55 l 5
 97 454 l 5
 170 525 l 5
 569 127 l 5
702 30 m 5
 346 30 l 5
 346 137 l 5
 595 137 l 5
 595 386 l 5
 702 386 l 5
 702 30 l 5
EndSplineSet
EndChar

StartChar: uni21D9
Encoding: 8665 8665 769
GlifName: uni21D_9
Width: 676
GlyphClass: 2
Flags: HW
LayerCount: 2
Fore
SplineSet
303 54 m 5
 231 126 l 5
 630 526 l 5
 702 454 l 5
 303 54 l 5
195 163 m 5
 123 234 l 5
 521 635 l 5
 593 562 l 5
 195 163 l 5
97 30 m 5
 97 386 l 5
 205 386 l 5
 205 137 l 5
 454 137 l 5
 454 30 l 5
 97 30 l 5
EndSplineSet
EndChar

StartChar: uni21C4
Encoding: 8644 8644 770
GlifName: uni21C_4
Width: 798
GlyphClass: 2
Flags: HW
LayerCount: 2
Fore
SplineSet
219 144 m 5
 219 276 l 5
 824 276 l 5
 824 144 l 5
 219 144 l 5
97 211 m 5
 308 421 l 5
 384 345 l 5
 249 211 l 5
 384 76 l 5
 308 0 l 5
 97 211 l 5
702 567 m 5
 702 435 l 5
 97 435 l 5
 97 567 l 5
 702 567 l 5
824 501 m 5
 613 291 l 5
 538 367 l 5
 673 501 l 5
 538 636 l 5
 613 712 l 5
 824 501 l 5
EndSplineSet
EndChar

StartChar: uni21C5
Encoding: 8645 8645 771
GlifName: uni21C_5
Width: 783
GlyphClass: 2
Flags: HW
LayerCount: 2
Fore
SplineSet
242 598 m 1
 374 598 l 1
 374 -8 l 1
 242 -8 l 1
 242 598 l 1
308 719 m 1
 518 508 l 1
 442 433 l 1
 308 568 l 1
 173 433 l 1
 97 508 l 1
 308 719 l 1
665 114 m 1
 532 114 l 1
 532 719 l 1
 665 719 l 1
 665 114 l 1
598 -8 m 1
 388 203 l 1
 464 279 l 1
 598 144 l 1
 733 279 l 1
 809 203 l 1
 598 -8 l 1
EndSplineSet
EndChar

StartChar: uni21C6
Encoding: 8646 8646 772
GlifName: uni21C_6
Width: 798
GlyphClass: 2
Flags: HW
LayerCount: 2
Fore
SplineSet
702 144 m 1
 97 144 l 1
 97 276 l 1
 702 276 l 1
 702 144 l 1
824 211 m 1
 613 0 l 1
 538 76 l 1
 673 211 l 1
 538 345 l 1
 613 421 l 1
 824 211 l 1
219 567 m 1
 824 567 l 1
 824 435 l 1
 219 435 l 1
 219 567 l 1
97 501 m 1
 308 712 l 1
 384 636 l 1
 249 501 l 1
 384 367 l 1
 308 291 l 1
 97 501 l 1
EndSplineSet
EndChar

StartChar: uni21C7
Encoding: 8647 8647 773
GlifName: uni21C_7
Width: 798
GlyphClass: 2
Flags: HW
LayerCount: 2
Fore
SplineSet
219 461 m 5
 219 593 l 5
 824 593 l 5
 824 461 l 5
 219 461 l 5
97 527 m 5
 288 717 l 5
 364 641 l 5
 249 527 l 5
 364 413 l 5
 288 337 l 5
 97 527 l 5
219 78 m 5
 219 210 l 5
 824 210 l 5
 824 78 l 5
 219 78 l 5
97 144 m 5
 288 334 l 5
 364 258 l 5
 249 144 l 5
 364 30 l 5
 288 -46 l 5
 97 144 l 5
EndSplineSet
EndChar

StartChar: uni21C8
Encoding: 8648 8648 774
GlifName: uni21C_8
Width: 834
GlyphClass: 2
Flags: HW
LayerCount: 2
Fore
SplineSet
604 577 m 5
 736 577 l 5
 736 -28 l 5
 604 -28 l 5
 604 577 l 5
671 699 m 5
 860 508 l 5
 784 433 l 5
 671 547 l 5
 556 433 l 5
 480 508 l 5
 671 699 l 5
221 577 m 5
 353 577 l 5
 353 -28 l 5
 221 -28 l 5
 221 577 l 5
288 699 m 5
 477 508 l 5
 401 433 l 5
 288 547 l 5
 173 433 l 5
 97 508 l 5
 288 699 l 5
EndSplineSet
EndChar

StartChar: uni21C9
Encoding: 8649 8649 775
GlifName: uni21C_9
Width: 798
GlyphClass: 2
Flags: HW
LayerCount: 2
Fore
SplineSet
702 210 m 5
 702 78 l 5
 97 78 l 5
 97 210 l 5
 702 210 l 5
824 143 m 5
 634 -46 l 5
 558 30 l 5
 673 143 l 5
 558 258 l 5
 634 334 l 5
 824 143 l 5
702 593 m 5
 702 461 l 5
 97 461 l 5
 97 593 l 5
 702 593 l 5
824 526 m 5
 634 337 l 5
 558 413 l 5
 673 526 l 5
 558 641 l 5
 634 717 l 5
 824 526 l 5
EndSplineSet
EndChar

StartChar: uni21CA
Encoding: 8650 8650 776
GlifName: uni21C_A_
Width: 834
GlyphClass: 2
Flags: HW
LayerCount: 2
Fore
SplineSet
353 94 m 1
 221 94 l 1
 221 699 l 1
 353 699 l 1
 353 94 l 1
287 -28 m 1
 97 162 l 1
 173 238 l 1
 287 123 l 1
 401 238 l 1
 477 162 l 1
 287 -28 l 1
736 94 m 1
 604 94 l 1
 604 699 l 1
 736 699 l 1
 736 94 l 1
670 -28 m 1
 480 162 l 1
 556 238 l 1
 670 123 l 1
 784 238 l 1
 860 162 l 1
 670 -28 l 1
EndSplineSet
EndChar

StartChar: uni21CB
Encoding: 8651 8651 777
GlifName: uni21C_B_
Width: 798
GlyphClass: 2
Flags: HW
LayerCount: 2
Fore
SplineSet
305 504 m 1
 824 504 l 1
 824 360 l 1
 97 360 l 1
 97 488 l 1
 288 679 l 1
 384 583 l 1
 305 504 l 1
616 157 m 1
 97 157 l 1
 97 299 l 1
 824 299 l 1
 824 172 l 1
 634 -18 l 1
 538 78 l 1
 616 157 l 1
EndSplineSet
EndChar

StartChar: uni21CC
Encoding: 8652 8652 778
GlifName: uni21C_C_
Width: 798
GlyphClass: 2
Flags: HW
LayerCount: 2
Fore
SplineSet
616 504 m 1
 538 583 l 1
 634 679 l 1
 824 488 l 1
 824 360 l 1
 97 360 l 1
 97 504 l 1
 616 504 l 1
305 157 m 1
 384 78 l 1
 288 -18 l 1
 97 172 l 1
 97 299 l 1
 824 299 l 1
 824 157 l 1
 305 157 l 1
EndSplineSet
EndChar

StartChar: uni21CD
Encoding: 8653 8653 779
GlifName: uni21C_D_
Width: 798
GlyphClass: 2
Flags: HW
LayerCount: 2
Fore
SplineSet
603 597 m 5
 728 597 l 5
 556 75 l 5
 431 75 l 5
 603 597 l 5
260 218 m 1
 260 319 l 1
 824 321 l 1
 824 218 l 1
 260 218 l 1
260 372 m 1
 260 473 l 1
 824 474 l 1
 824 372 l 1
 260 372 l 1
97 346 m 1
 349 597 l 1
 425 521 l 1
 249 346 l 1
 425 170 l 1
 349 94 l 1
 97 346 l 1
EndSplineSet
EndChar

StartChar: uni21CE
Encoding: 8654 8654 780
GlifName: uni21C_E_
Width: 798
GlyphClass: 2
Flags: HW
LayerCount: 2
Fore
SplineSet
469 597 m 1
 543 597 l 5
 449 75 l 5
 375 75 l 1
 469 597 l 1
824 345 m 1
 603 115 l 1
 527 190 l 1
 673 345 l 1
 527 501 l 1
 603 577 l 1
 824 345 l 1
260 218 m 1
 260 319 l 1
 662 321 l 1
 662 218 l 1
 260 218 l 1
260 372 m 1
 260 473 l 1
 662 474 l 1
 662 372 l 1
 260 372 l 1
97 346 m 1
 318 577 l 1
 394 501 l 1
 249 346 l 1
 394 190 l 1
 318 115 l 1
 97 346 l 1
EndSplineSet
EndChar

StartChar: uni21CF
Encoding: 8655 8655 781
GlifName: uni21C_F_
Width: 798
GlyphClass: 2
Flags: HW
LayerCount: 2
Fore
SplineSet
347 597 m 5
 472 597 l 5
 300 75 l 5
 175 75 l 5
 347 597 l 5
662 473 m 1
 662 372 l 1
 97 371 l 1
 97 473 l 1
 662 473 l 1
662 319 m 1
 662 218 l 1
 97 217 l 1
 97 319 l 1
 662 319 l 1
824 345 m 1
 572 94 l 1
 497 170 l 1
 673 345 l 1
 497 521 l 1
 572 597 l 1
 824 345 l 1
EndSplineSet
EndChar

StartChar: uni21B4
Encoding: 8628 8628 782
GlifName: uni21B_4
Width: 825
GlyphClass: 2
Flags: HW
LayerCount: 2
Fore
SplineSet
609 25 m 1
 369 266 l 1
 455 352 l 1
 609 186 l 1
 765 352 l 5
 851 266 l 5
 609 25 l 1
683 178 m 1
 541 178 l 1
 540 459 l 1
 97 459 l 1
 97 600 l 1
 683 600 l 1
 683 178 l 1
EndSplineSet
EndChar

StartChar: carriagereturn
Encoding: 8629 8629 783
GlifName: carriagereturn
Width: 647
GlyphClass: 2
Flags: HW
LayerCount: 2
Fore
SplineSet
97 177 m 1
 339 418 l 1
 425 332 l 1
 259 177 l 1
 425 22 l 5
 339 -65 l 5
 97 177 l 1
251 103 m 1
 251 246 l 1
 531 247 l 1
 531 689 l 1
 673 689 l 1
 673 103 l 1
 251 103 l 1
EndSplineSet
EndChar

StartChar: uni219A
Encoding: 8602 8602 784
GlifName: uni219A_
Width: 798
GlyphClass: 2
Flags: HW
LayerCount: 2
Fore
SplineSet
603 597 m 5
 728 597 l 5
 556 75 l 5
 431 75 l 5
 603 597 l 5
219 269 m 1
 219 422 l 1
 824 423 l 1
 824 269 l 1
 219 269 l 1
97 346 m 1
 339 587 l 1
 425 501 l 1
 269 346 l 1
 425 190 l 1
 339 104 l 1
 97 346 l 1
EndSplineSet
EndChar

StartChar: uni219B
Encoding: 8603 8603 785
GlifName: uni219B_
Width: 798
GlyphClass: 2
Flags: HW
LayerCount: 2
Fore
SplineSet
347 597 m 5
 472 597 l 5
 300 75 l 5
 175 75 l 5
 347 597 l 5
702 422 m 1
 702 269 l 1
 97 268 l 1
 97 422 l 1
 702 422 l 1
824 345 m 1
 583 104 l 1
 497 190 l 1
 652 345 l 1
 497 501 l 1
 583 587 l 1
 824 345 l 1
EndSplineSet
EndChar

StartChar: uni219E
Encoding: 8606 8606 786
GlifName: uni219E_
Width: 798
GlyphClass: 2
Flags: HW
LayerCount: 2
Fore
SplineSet
323 346 m 1
 564 587 l 1
 650 501 l 1
 495 346 l 1
 650 190 l 1
 564 104 l 1
 323 346 l 1
219 269 m 1
 219 422 l 1
 824 423 l 1
 824 269 l 1
 219 269 l 1
97 346 m 1
 339 587 l 1
 425 501 l 1
 269 346 l 1
 425 190 l 1
 339 104 l 1
 97 346 l 1
EndSplineSet
EndChar

StartChar: uni219F
Encoding: 8607 8607 787
GlifName: uni219F_
Width: 553
GlyphClass: 2
Flags: HW
LayerCount: 2
Fore
SplineSet
339 483 m 1
 580 242 l 1
 494 156 l 1
 339 311 l 1
 183 156 l 1
 97 242 l 1
 339 483 l 1
262 588 m 1
 415 588 l 1
 416 -18 l 1
 262 -18 l 1
 262 588 l 1
339 709 m 1
 580 467 l 1
 494 381 l 1
 339 537 l 1
 183 381 l 1
 97 467 l 1
 339 709 l 1
EndSplineSet
EndChar

StartChar: uni21A0
Encoding: 8608 8608 788
GlifName: uni21A_0
Width: 798
GlyphClass: 2
Flags: HW
LayerCount: 2
Fore
SplineSet
599 345 m 1
 357 104 l 1
 271 190 l 1
 427 345 l 1
 271 501 l 1
 357 587 l 1
 599 345 l 1
702 422 m 1
 702 269 l 1
 97 268 l 1
 97 422 l 1
 702 422 l 1
824 345 m 1
 583 104 l 1
 497 190 l 1
 652 345 l 1
 497 501 l 1
 583 587 l 1
 824 345 l 1
EndSplineSet
EndChar

StartChar: uni21A1
Encoding: 8609 8609 789
GlifName: uni21A_1
Width: 553
GlyphClass: 2
Flags: HW
LayerCount: 2
Fore
SplineSet
338 207 m 1
 97 449 l 1
 183 535 l 1
 338 379 l 1
 494 535 l 1
 580 449 l 1
 338 207 l 1
415 104 m 1
 262 104 l 1
 261 709 l 1
 415 709 l 1
 415 104 l 1
338 -18 m 1
 97 223 l 1
 183 309 l 1
 338 154 l 1
 494 309 l 1
 580 223 l 1
 338 -18 l 1
EndSplineSet
EndChar

StartChar: uni21A2
Encoding: 8610 8610 790
GlifName: uni21A_2
Width: 798
GlyphClass: 2
Flags: HW
LayerCount: 2
Fore
SplineSet
497 346 m 1
 738 587 l 1
 824 501 l 1
 669 346 l 1
 824 190 l 1
 738 104 l 1
 497 346 l 1
219 269 m 1
 219 422 l 1
 620 423 l 5
 620 269 l 5
 219 269 l 1
97 346 m 1
 339 587 l 1
 425 501 l 1
 269 346 l 1
 425 190 l 1
 339 104 l 1
 97 346 l 1
EndSplineSet
EndChar

StartChar: uni21A3
Encoding: 8611 8611 791
GlifName: uni21A_3
Width: 798
GlyphClass: 2
Flags: HW
LayerCount: 2
Fore
SplineSet
425 345 m 1
 183 104 l 1
 97 190 l 1
 253 345 l 1
 97 501 l 1
 183 587 l 1
 425 345 l 1
702 422 m 1
 702 269 l 1
 302 268 l 5
 302 422 l 5
 702 422 l 1
824 345 m 1
 583 104 l 1
 497 190 l 1
 652 345 l 1
 497 501 l 1
 583 587 l 1
 824 345 l 1
EndSplineSet
EndChar

StartChar: uni21A4
Encoding: 8612 8612 792
GlifName: uni21A_4
Width: 798
GlyphClass: 2
Flags: HW
LayerCount: 2
Fore
SplineSet
691 587 m 5
 824 587 l 5
 824 104 l 5
 691 104 l 5
 691 587 l 5
219 269 m 1
 219 422 l 1
 804 423 l 1
 804 269 l 1
 219 269 l 1
97 346 m 1
 339 587 l 1
 425 501 l 1
 269 346 l 1
 425 190 l 1
 339 104 l 1
 97 346 l 1
EndSplineSet
EndChar

StartChar: uni21A6
Encoding: 8614 8614 793
GlifName: uni21A_6
Width: 798
GlyphClass: 2
Flags: HW
LayerCount: 2
Fore
SplineSet
230 104 m 5
 97 104 l 5
 97 587 l 5
 230 587 l 5
 230 104 l 5
702 422 m 1
 702 269 l 1
 118 268 l 1
 118 422 l 1
 702 422 l 1
824 345 m 1
 583 104 l 1
 497 190 l 1
 652 345 l 1
 497 501 l 1
 583 587 l 1
 824 345 l 1
EndSplineSet
EndChar

